<svg width="262" height="200" viewBox="0 0 262 200" fill="none" xmlns="http://www.w3.org/2000/svg">
<path opacity="0.4" d="M95.0424 86.3735C95.798 86.3735 96.4105 85.6384 96.4105 84.7317C96.4105 83.825 95.798 83.09 95.0424 83.09C94.2868 83.09 93.6742 83.825 93.6742 84.7317C93.6742 85.6384 94.2868 86.3735 95.0424 86.3735Z" fill="white"/>
<path d="M125.351 105.561L124.566 110.575C124.566 110.575 120.7 112.629 123.418 112.689C126.137 112.749 138.943 112.689 138.943 112.689C138.943 112.689 141.419 112.689 137.493 110.514L136.708 105.259L125.351 105.561Z" fill="#2F2E41"/>
<path opacity="0.1" d="M122.871 112.635C123.489 112.085 124.566 111.513 124.566 111.513L125.351 106.499L136.708 106.51L137.493 111.453C138.408 111.96 138.976 112.348 139.307 112.647C139.812 112.532 140.363 112.104 137.493 110.514L136.708 105.259L125.351 105.561L124.566 110.575C124.566 110.575 121.317 112.301 122.871 112.635Z" fill="black"/>
<path d="M154.752 70.6161H107.186C106.193 70.6161 105.387 71.4215 105.387 72.415V104.457C105.387 105.45 106.193 106.256 107.186 106.256H154.752C155.746 106.256 156.551 105.45 156.551 104.457V72.415C156.551 71.4215 155.746 70.6161 154.752 70.6161Z" fill="#2F2E41"/>
<path d="M154.83 72.5188H107.109V99.2183H154.83V72.5188Z" fill="#3F3D56"/>
<path d="M130.969 71.9752C131.136 71.9752 131.271 71.8399 131.271 71.6731C131.271 71.5063 131.136 71.3711 130.969 71.3711C130.802 71.3711 130.667 71.5063 130.667 71.6731C130.667 71.8399 130.802 71.9752 130.969 71.9752Z" fill="#F2F2F2"/>
<path d="M156.551 101.333V104.457C156.551 104.693 156.505 104.927 156.414 105.145C156.324 105.363 156.191 105.562 156.024 105.729C155.857 105.896 155.659 106.028 155.441 106.119C155.222 106.209 154.989 106.256 154.752 106.256H107.186C106.95 106.256 106.716 106.209 106.498 106.119C106.279 106.028 106.081 105.896 105.914 105.729C105.747 105.562 105.614 105.363 105.524 105.145C105.434 104.927 105.387 104.693 105.387 104.457V101.333H156.551Z" fill="#2F2E41"/>
<path d="M154.044 114.864C154.478 114.864 154.83 114.755 154.83 114.622C154.83 114.489 154.478 114.38 154.044 114.38C153.611 114.38 153.259 114.489 153.259 114.622C153.259 114.755 153.611 114.864 154.044 114.864Z" fill="#F2F2F2"/>
<path d="M130.969 104.957C131.603 104.957 132.117 104.443 132.117 103.809C132.117 103.175 131.603 102.661 130.969 102.661C130.335 102.661 129.821 103.175 129.821 103.809C129.821 104.443 130.335 104.957 130.969 104.957Z" fill="#F2F2F2"/>
<path opacity="0.1" d="M144.319 115.951V116.555H111.821V116.072L111.865 115.951H144.319Z" fill="black"/>
<path opacity="0.4" d="M161.807 74.4122C162.563 74.4122 163.175 73.6771 163.175 72.7704C163.175 71.8637 162.563 71.1287 161.807 71.1287C161.051 71.1287 160.439 71.8637 160.439 72.7704C160.439 73.6771 161.051 74.4122 161.807 74.4122Z" fill="white"/>
<path d="M117.432 83.7959H118.993V87.6042H121.43V88.8484H117.432V83.7959ZM122.099 83.7959H123.501V84.7506H122.099V83.7959ZM122.099 85.1883H123.501V88.8484H122.099V85.1883ZM123.98 85.1883H125.442L126.152 87.5077L126.886 85.1883H128.302L126.748 88.8484H125.504L123.98 85.1883ZM128.726 85.1883H130.039V85.7879C130.166 85.5283 130.295 85.3502 130.429 85.2537C130.564 85.155 130.731 85.1056 130.928 85.1056C131.135 85.1056 131.362 85.1699 131.607 85.2986L131.173 86.298C131.008 86.2291 130.877 86.1946 130.78 86.1946C130.596 86.1946 130.454 86.2704 130.353 86.4221C130.208 86.6358 130.136 87.0356 130.136 87.6215V88.8484H128.726V85.1883ZM131.9 83.7959H133.303V84.7506H131.9V83.7959ZM131.9 85.1883H133.303V88.8484H131.9V85.1883Z" fill="white"/>
<rect x="135.149" y="81.4362" width="9.99928" height="9.41109" fill="#FF630C"/>
<path d="M137.386 83.7955H138.792V88.848H137.386V83.7955ZM139.406 85.1879H140.888L141.642 87.6245L142.342 85.1879H143.724L142.273 89.0996C142.108 89.5454 141.939 89.8463 141.767 90.0026C141.523 90.2232 141.152 90.3334 140.653 90.3334C140.451 90.3334 140.139 90.3059 139.716 90.2507L139.606 89.2719C139.808 89.3363 140.033 89.3684 140.281 89.3684C140.447 89.3684 140.58 89.3305 140.681 89.2547C140.784 89.1789 140.872 89.0433 140.943 88.848L139.406 85.1879Z" fill="white"/>
<path d="M83.2974 164.253H87.963L90.1823 146.257H83.2966L83.2974 164.253Z" fill="#A0616A"/>
<path d="M92.6696 162.919H82.2977V168.584H96.9605V167.21C96.9605 166.072 96.5084 164.981 95.7037 164.176C94.899 163.371 93.8076 162.919 92.6696 162.919Z" fill="#2F2E41"/>
<path d="M64.6506 164.253H69.3159L71.5353 146.257H64.6495L64.6506 164.253Z" fill="#A0616A"/>
<path d="M74.0226 162.919H63.6507V168.584H78.3134V167.21C78.3134 166.072 77.8614 164.981 77.0567 164.176C76.252 163.371 75.1606 162.919 74.0226 162.919Z" fill="#2F2E41"/>
<path d="M91.4257 112.376C91.0451 112.019 90.7475 111.584 90.5537 111.099C90.3599 110.615 90.2746 110.094 90.304 109.573C90.3333 109.052 90.4765 108.544 90.7234 108.084C90.9703 107.625 91.315 107.225 91.7332 106.913L89.7344 99.0077L94.2422 96.6215L96.9081 107.825C97.3859 108.562 97.5766 109.449 97.4441 110.318C97.3116 111.186 96.865 111.976 96.189 112.537C95.513 113.098 94.6547 113.392 93.7767 113.362C92.8987 113.332 92.062 112.982 91.4254 112.376H91.4257Z" fill="#A0616A"/>
<path d="M62.9912 98.5681L63.3717 125.207L63.7516 160.217L72.1234 159.456L76.3102 111.126L81.6379 159.456H90.2813L91.1517 110.745L88.1069 100.09L62.9912 98.5681Z" fill="#2F2E41"/>
<path d="M88.943 100.253L89.0654 100.197L84.2941 67.5622L86.7198 57.6981C86.846 57.1849 86.7794 56.6432 86.5329 56.1757C86.2863 55.7082 85.8767 55.3474 85.3819 55.1617L81.0175 53.5252L79.4758 49.285L67.3108 50.5959L67.0116 53.9105C65.6933 54.3334 54.8377 57.9486 55.5868 62.0674C56.3261 66.1334 60.691 78.9256 60.9127 79.5738L61.6765 97.9196L61.7705 97.9666C61.8838 98.0242 70.2686 102.146 79.3781 102.146C82.5852 102.145 85.8848 101.633 88.943 100.253Z" fill="#CCCCCC"/>
<path d="M97.066 103.678L93.2309 79.1322C93.2081 78.9881 90.9389 64.6185 90.1863 60.1034C89.4081 55.4418 85.8006 55.3879 85.7643 55.3879H83.7784L81.4556 65.8406L86.0318 86.8132L90.2535 104.193L97.066 103.678Z" fill="#CCCCCC"/>
<path d="M72.1884 101.256C72.1637 100.735 72.025 100.226 71.7822 99.7638C71.5394 99.3021 71.1983 98.8993 70.7829 98.5836C70.3676 98.268 69.8881 98.0473 69.3782 97.937C68.8683 97.8267 68.3404 97.8296 67.8318 97.9453L63.1129 91.295L58.3721 93.1769L65.168 102.475C65.4189 103.316 65.9701 104.037 66.7169 104.5C67.4638 104.962 68.3544 105.135 69.2199 104.984C70.0854 104.834 70.8658 104.371 71.4129 103.684C71.96 102.997 72.236 102.133 72.1884 101.255V101.256Z" fill="#A0616A"/>
<path d="M67.0117 95.5369L58.6211 81.426L62.0395 72.3108L57.384 59.8956L57.2111 59.9694C57.0984 60.0176 54.4533 61.1981 54.061 65.4256L48.7109 82.24L62.9895 100.764L67.0117 95.5369Z" fill="#CCCCCC"/>
<path d="M73.7383 52.6818C68.9008 52.6818 64.9793 48.7603 64.9793 43.9228C64.9793 39.0853 68.9008 35.1638 73.7383 35.1638C78.5757 35.1638 82.4973 39.0853 82.4973 43.9228C82.4973 48.7603 78.5757 52.6818 73.7383 52.6818Z" fill="#A0616A"/>
<path d="M79.7773 38.7733C78.8705 39.8464 77.3363 40.149 75.9208 40.2721C73.046 40.5243 68.8661 40.1153 66.0567 39.4668C65.855 41.41 66.4026 43.5054 65.2583 45.1042C64.7218 43.1688 64.4098 41.1781 64.3285 39.1713C64.2939 38.3107 64.3075 37.4203 64.6571 36.6303C65.0067 35.8403 65.7697 35.1696 66.6479 35.1626C65.9953 34.6677 65.2309 34.3411 64.4222 34.2115L67.2033 32.8139L66.4891 32.0806L71.5241 31.7725L70.0657 30.8461C72.2615 30.5446 74.4829 30.4748 76.6933 30.6377C77.7194 30.7133 78.7922 30.8577 79.6234 31.4523C80.4547 32.0469 80.9351 33.2283 80.4189 34.1011C81.065 34.2072 81.6734 34.4765 82.1863 34.8835C82.6992 35.2905 83.0997 35.8217 83.3499 36.4268C83.7206 37.3664 83.6866 38.4101 83.5724 39.4114C83.3828 41.0128 83.0107 42.5872 82.4633 44.1041" fill="#2F2E41"/>
<path opacity="0.1" d="M45.6547 33.045C50.2173 33.045 53.916 29.3463 53.916 24.7837C53.916 20.2212 50.2173 16.5225 45.6547 16.5225C41.0922 16.5225 37.3935 20.2212 37.3935 24.7837C37.3935 29.3463 41.0922 33.045 45.6547 33.045Z" fill="#FF630C"/>
<path opacity="0.1" d="M28.3478 10.2282C31.1722 10.2282 33.4619 7.93856 33.4619 5.11411C33.4619 2.28967 31.1722 0 28.3478 0C25.5233 0 23.2337 2.28967 23.2337 5.11411C23.2337 7.93856 25.5233 10.2282 28.3478 10.2282Z" fill="#FF630C"/>
<path opacity="0.1" d="M242.742 23.9971C244.48 23.9971 245.889 22.588 245.889 20.8499C245.889 19.1118 244.48 17.7028 242.742 17.7028C241.004 17.7028 239.595 19.1118 239.595 20.8499C239.595 22.588 241.004 23.9971 242.742 23.9971Z" fill="#FF630C"/>
<path d="M56.124 118.65L56.027 123.882L55.2507 166.293L48.605 181.855L25.7016 182.118V121.06L49.6042 119.167L56.124 118.65Z" fill="#5F5D7E"/>
<path opacity="0.1" d="M56.124 118.65L56.027 123.882L55.2507 166.293L48.605 181.855L25.7016 182.118V121.06L49.6042 119.167L56.124 118.65Z" fill="black"/>
<path d="M56.1242 118.65L56.0271 123.882L55.2508 166.293L48.6051 181.855L50.3544 123.982L50.3492 123.945L49.6043 119.167L56.1242 118.65Z" fill="#5F5D7E"/>
<path opacity="0.1" d="M49.6042 119.167L56.124 118.65L56.027 123.882L50.349 123.945L25.7016 124.221V121.06L49.6042 119.167Z" fill="black"/>
<path d="M262 121.06V181.766H256.668L235.336 166.206V119.348L254.394 117.557L255.564 118.094L256.668 118.603L262 121.06Z" fill="#5F5D7E"/>
<path opacity="0.1" d="M262 118.094H256.668V181.766H262V118.094Z" fill="black"/>
<path opacity="0.1" d="M262 118.094V121.585L256.668 121.645L235.336 121.881V119.348L254.394 117.557L255.564 118.094L256.668 118.603V118.094H262Z" fill="black"/>
<path d="M262 116.114V121.06L0 123.982V117.688L24.6527 112.705L239.183 111.131L262 116.114Z" fill="#5F5D7E"/>
<path opacity="0.1" d="M262 116.114V121.06L0 123.982V117.688L262 116.114Z" fill="black"/>
<path d="M183.796 79.691C184.948 79.691 185.881 78.7575 185.881 77.606C185.881 76.4545 184.948 75.521 183.796 75.521C182.645 75.521 181.711 76.4545 181.711 77.606C181.711 78.7575 182.645 79.691 183.796 79.691Z" fill="#E6E8EC"/>
<path d="M210.827 124.375C210.775 124.055 210.675 123.743 210.531 123.452C210.73 122.773 210.859 122.356 210.859 122.356C210.859 122.356 210.859 122.256 210.827 122.094C210.671 121.133 210.172 120.261 209.422 119.64C208.672 119.019 207.723 118.69 206.749 118.716C205.176 118.745 202.191 118.849 198.881 119.222C199.07 117.897 199.296 116.313 199.532 114.682L199.964 114.729C200.064 114.729 200.169 114.729 200.274 114.745H200.413C200.758 114.767 201.099 114.662 201.373 114.451C201.44 114.386 201.49 114.305 201.518 114.216C201.546 114.127 201.552 114.032 201.534 113.94C201.517 113.848 201.477 113.762 201.418 113.689C201.359 113.616 201.283 113.559 201.197 113.523C201.584 113.561 201.974 113.503 202.333 113.353C202.691 113.203 203.007 112.965 203.251 112.663C203.473 112.351 203.593 111.978 203.593 111.595C203.593 111.213 203.473 110.839 203.251 110.528C202.697 109.741 201.525 109.217 201.462 108.291C201.428 107.766 201.779 107.294 202.055 106.83C202.718 105.671 202.984 104.327 202.81 103.003C202.636 101.678 202.033 100.448 201.092 99.4998C200.723 99.1336 200.334 98.7878 199.928 98.4638C199.351 96.3447 198.748 94.4512 198.569 94.3909C198.338 94.3148 197.942 93.8165 197.565 93.389C197.599 93.0284 197.593 92.6651 197.546 92.3059C197.268 90.4701 195.448 89.1588 194.446 87.538C193.445 85.9172 193.264 83.9319 193.521 82.0751C193.778 80.2182 194.425 78.4217 194.953 76.6095C195.346 75.2641 195.674 73.8348 195.233 72.4999C194.921 71.5478 194.242 70.7243 193.542 69.9507C191.861 68.0912 189.922 66.3498 187.531 65.2299C185.868 64.4462 184.047 64.0567 182.209 64.0917H182.191L181.902 64.1075L181.698 64.1206L181.493 64.1416L181.276 64.1625C181.053 64.1914 180.832 64.2255 180.612 64.2701C179.015 63.9149 177.384 63.732 175.747 63.7246H175.535C175.049 63.6959 174.566 63.8098 174.145 64.0524C173.563 64.4589 173.489 65.188 173.313 65.8227C172.998 66.8848 172.332 67.8091 171.425 68.4453C170.798 68.8964 170.061 69.2321 169.463 69.7041C168.865 70.1762 168.399 70.8843 168.559 71.5819C168.692 72.1668 169.238 72.6021 169.87 72.867C169.794 72.9614 169.715 73.0532 169.642 73.1503C169.765 73.2001 169.904 73.2447 170.017 73.2814C170.804 73.5148 171.651 73.5437 172.448 73.7561C172.667 73.8148 172.883 73.8875 173.093 73.9738C172.384 75.3077 172.014 76.7956 172.015 78.3063C172.018 79.984 172.473 81.6299 173.333 83.0707C174.192 84.5116 175.424 85.6942 176.899 86.4942C176.899 86.5833 176.899 86.6699 176.899 86.7564C176.98 89.4945 176.773 92.8252 175.372 93.389C173.972 93.9529 172.632 94.5902 171.805 95.002L171.543 95.141C171.325 95.0413 171.108 94.9364 170.895 94.8262C170.895 94.8262 169.781 94.6951 169.975 95.5448C169.975 95.5448 166.605 95.0203 164.756 96.4601C162.907 97.9 159.872 100.905 159.277 101.69C158.682 102.474 154.079 104.189 154.079 104.189C154.079 104.189 155.529 102.162 154.903 99.6781C154.903 99.6781 154.21 96.6831 154.541 95.4819C154.871 94.2807 155.729 89.8223 155.729 89.8223C155.729 89.8223 155.849 85.1173 153.282 82.9589C150.714 80.8005 148.928 79.0249 149.92 81.123C150.353 82.0848 150.838 83.0225 151.373 83.9319C151.373 83.9319 145.233 85.39 147.412 87.6665C149.592 89.9429 150.184 89.9455 150.184 89.9455C150.184 89.9455 149.458 95.5658 149.324 96.6122C149.191 97.6587 148.013 105.631 148.013 105.631C148.013 105.631 147.947 109.424 148.608 110.011C148.608 110.011 149.041 112.453 151.776 112.372C151.776 112.372 156.99 112.24 158.443 111.653C159.896 111.066 164.911 107.926 165.44 108.123C165.479 108.138 165.514 108.162 165.543 108.191C165.571 108.215 165.597 108.242 165.621 108.27C165.097 109.432 163.854 113.376 164.383 115.314C164.383 115.314 163.922 120.803 166.694 122.568C166.694 122.568 170.72 129.366 169.201 133.025C169.08 133.321 168.973 133.594 168.873 133.859C166.568 131.947 163.051 130.187 157.68 129.214C157.132 129.114 156.586 128.994 156.046 128.863C154.52 128.493 150.321 128.155 148.322 134.792C147.856 136.335 147.263 137.837 146.55 139.282C145.763 140.874 144.889 143.156 144.871 145.419C144.826 148.593 146.466 151.737 152.414 152.891C152.479 155.251 152.749 158.063 153.557 160.085C155.207 164.202 157.848 170.869 157.848 170.869C157.848 170.869 161.016 177.667 161.215 180.41C161.344 182.207 161.533 184.562 161.401 186.18C161.401 186.28 161.386 186.374 161.375 186.469C161.103 186.762 160.807 187.031 160.489 187.274C160.027 187.536 158.509 189.17 158.509 189.561C158.512 189.935 158.545 190.309 158.608 190.678C157.89 191.305 157.496 191.989 157.496 192.671C157.496 196.217 167.559 199.091 179.972 199.091C192.385 199.091 202.445 196.206 202.445 192.671C202.445 189.435 194.053 186.76 183.148 186.319C185.422 185.412 187.441 184.46 188.278 183.696C188.458 183.557 188.595 183.369 188.674 183.156L186.563 178.254C186.563 178.254 186.398 178.291 186.154 178.362L186.007 178.142C185.068 176.712 183.261 173.864 183.261 173.091C183.261 172.805 182.784 170.977 182.091 168.472V160.434C188.978 161.483 197.853 160.056 197.853 160.056L197.893 160.035H198.066V159.941C199.259 159.28 205.228 155.784 206.998 151.147C207.523 149.794 206.87 147.856 205.572 145.784C206.479 143.531 208.719 137.711 208.496 135.39C208.496 135.267 208.48 135.128 208.48 134.992C208.501 134.755 208.51 134.516 208.506 134.278C208.769 130.869 210.867 124.64 210.867 124.64C210.867 124.64 210.854 124.533 210.827 124.375ZM166.243 109.227C166.72 110.066 167.232 111.139 167.433 111.574C167.433 111.574 166.736 110.289 166.256 109.227H166.243ZM166.741 182.687L166.691 182.705V182.443C166.663 181.759 166.679 181.074 166.741 180.392C166.748 180.024 166.671 179.66 166.516 179.327C165.707 177.296 165.167 175.169 164.908 172.999C164.646 170.712 164.428 168.218 164.564 167.583C164.769 166.61 164.937 159.24 164.682 155.608L168.742 156.521L173.463 166.146C173.463 166.146 176.5 170.846 177.441 174.554V178.268C177.166 179.374 176.685 180.418 176.023 181.347C175.396 182.204 174.785 183.072 174.218 183.969C174.045 184.247 173.854 184.533 173.662 184.801C173.599 184.801 170.497 184.982 169.97 185.564C169.644 185.923 169.078 186.49 168.983 187.059L168.85 187.08C168.241 185.267 166.754 182.687 166.754 182.687H166.741Z" fill="url(#paint0_linear)"/>
<path opacity="0.1" d="M186.712 179.317L185.663 182.726L181.205 186.594L174.648 188.477C174.648 188.477 171.567 186.791 172.616 186.463C172.907 186.371 173.253 186.038 173.605 185.603C173.237 186.94 176.156 185.217 176.156 185.217C176.156 185.217 183.696 179.841 184.483 179.251C184.999 178.909 185.565 178.649 186.162 178.483C186.489 178.994 186.712 179.317 186.712 179.317Z" fill="black"/>
<path d="M186.712 179.317L185.663 182.726L181.205 186.594L174.648 188.477C174.648 188.477 171.567 186.791 172.616 186.463C172.907 186.371 173.253 186.038 173.604 185.603C173.921 185.199 174.213 184.777 174.48 184.339C175.041 183.437 175.65 182.566 176.271 181.716C177.178 180.425 177.747 178.928 177.926 177.36C178.385 173.754 173.73 166.476 173.73 166.476L165.272 149.101L177.074 150.544C177.074 150.544 183.434 172.377 183.434 173.426C183.434 174.213 185.228 177.058 186.161 178.493C186.489 178.994 186.712 179.317 186.712 179.317Z" fill="#FDC2CC"/>
<path d="M180.166 199.503C192.495 199.503 202.49 196.62 202.49 193.064C202.49 189.508 192.495 186.626 180.166 186.626C167.837 186.626 157.842 189.508 157.842 193.064C157.842 196.62 167.837 199.503 180.166 199.503Z" fill="#5F5D7E"/>
<path d="M188.811 183.513C188.731 183.726 188.595 183.914 188.417 184.056C186.796 185.543 180.735 187.754 176.99 188.955C176.009 189.297 175.008 189.582 173.993 189.807C173.075 189.873 171.173 189.283 169.862 188.477C168.551 187.672 169.731 186.529 170.261 185.939C170.791 185.349 173.932 185.173 173.932 185.173C172.424 187.683 176.159 185.48 176.159 185.48C176.159 185.48 183.699 180.103 184.486 179.513C185.273 178.923 186.715 178.595 186.715 178.595L188.811 183.513Z" fill="#FF630C"/>
<path opacity="0.3" d="M188.811 183.513C188.731 183.726 188.595 183.914 188.417 184.056C186.796 185.543 180.735 187.754 176.99 188.955C176.009 189.297 175.008 189.582 173.993 189.807C173.075 189.873 171.173 189.283 169.862 188.477C168.551 187.672 169.731 186.529 170.261 185.939C170.791 185.349 173.932 185.173 173.932 185.173C172.424 187.683 176.159 185.48 176.159 185.48C176.159 185.48 183.699 180.103 184.486 179.513C185.273 178.923 186.715 178.595 186.715 178.595L188.811 183.513Z" fill="black"/>
<path opacity="0.1" d="M188.417 184.061C186.796 185.548 180.736 187.759 176.991 188.96C180.384 186.085 186.075 184.583 188.417 184.061Z" fill="black"/>
<path opacity="0.1" d="M180.166 192.278C182.633 192.278 184.633 191.701 184.633 190.99C184.633 190.279 182.633 189.702 180.166 189.702C177.7 189.702 175.7 190.279 175.7 190.99C175.7 191.701 177.7 192.278 180.166 192.278Z" fill="black"/>
<path d="M182.272 157.027H177.683V190.99H182.272V157.027Z" fill="#5F5D7E"/>
<path opacity="0.1" d="M182.272 158.711V162.644C181.354 162.361 179.259 161.168 177.683 160.229V157.024H178.64L182.272 158.711Z" fill="black"/>
<path d="M171.459 142.241C171.459 142.241 186.613 138.341 190.384 135.422C194.155 132.503 208.965 146.237 207.009 151.42C205.052 156.602 197.929 160.355 197.929 160.355C197.929 160.355 178.231 163.56 174.876 156.875C171.522 150.19 171.459 142.241 171.459 142.241Z" fill="#474157"/>
<path opacity="0.1" d="M171.459 142.241C171.459 142.241 186.613 138.341 190.384 135.422C194.155 132.503 208.965 146.237 207.009 151.42C205.052 156.602 197.929 160.355 197.929 160.355C197.929 160.355 178.231 163.56 174.876 156.875C171.522 150.19 171.459 142.241 171.459 142.241Z" fill="black"/>
<path d="M170.148 140.667C170.148 140.667 185.301 136.767 189.073 133.848C192.844 130.929 207.654 144.664 205.698 149.846C203.741 155.028 196.618 158.781 196.618 158.781C196.618 158.781 176.919 161.986 173.565 155.301C170.211 148.616 170.148 140.667 170.148 140.667Z" fill="#474157"/>
<path d="M156.093 104.905L154.454 104.31C154.454 104.31 155.897 102.277 155.275 99.7855C155.275 99.7855 154.585 96.78 154.913 95.5631C155.241 94.3462 156.093 89.8851 156.093 89.8851C156.093 89.8851 156.214 85.1644 153.662 83.0007C151.11 80.8371 149.34 79.0668 150.324 81.1649C150.753 82.1301 151.235 83.0712 151.766 83.9842C151.766 83.9842 145.669 85.445 147.832 87.732C149.996 90.0189 150.586 90.0163 150.586 90.0163C150.586 90.0163 149.865 95.6549 149.734 96.7039C149.602 97.753 148.422 105.752 148.422 105.752C148.422 105.752 148.357 109.555 149.012 110.145C149.158 110.855 149.559 111.487 150.138 111.922C150.718 112.357 151.437 112.564 152.16 112.505C152.626 112.497 158.192 106.347 156.093 104.905Z" fill="#FDC2CC"/>
<path d="M195.695 92.8408V96.5124L191.892 97.7529L185.414 102.521L183.696 103.785L176.025 100.703L171.173 95.5893C171.173 95.5893 171.409 95.4608 171.818 95.2483L172.081 95.1093C172.902 94.6976 174.195 94.0603 175.624 93.4912C177.053 92.9221 177.221 89.5861 177.14 86.8376V86.5753C177.074 84.6477 176.878 83.0715 176.878 83.0715C176.878 83.0715 177.677 82.9194 178.842 82.7463C182.07 82.2663 188.094 81.6186 187.565 83.596C187.41 84.2682 187.41 84.9668 187.565 85.639C187.58 85.7125 187.596 85.7885 187.615 85.862C188.16 88.2459 189.849 90.7427 189.849 90.7427L195.094 92.631L195.241 92.6834L195.695 92.8408Z" fill="#FDC2CC"/>
<path d="M195.695 93.9554V92.8408C196.107 92.7699 196.528 92.7699 196.94 92.8408C197.399 92.9719 198.27 94.3488 198.664 94.48C199.057 94.6111 201.464 103.594 201.202 104.38C200.94 105.167 198.462 122.93 198.462 122.93L193.465 128.438L192.482 113.292L195.695 104.31V93.9554Z" fill="#FDC2CC"/>
<path d="M169.796 135.196C169.796 135.196 165.23 136.18 165.81 137.622C166.39 139.065 168.944 139.13 168.944 139.13L169.796 135.196Z" fill="#FDC2CC"/>
<path d="M176.156 106.072L172.681 113.56L168.551 116.576L167.829 111.915C167.829 111.915 166.434 108.834 165.834 108.312C165.805 108.282 165.77 108.259 165.731 108.244C165.207 108.047 160.224 111.194 158.781 111.784C157.339 112.374 152.159 112.505 152.159 112.505L154.454 104.31C154.454 104.31 159.044 102.605 159.634 101.818C160.224 101.031 163.24 98.0154 165.076 96.5729C166.911 95.1305 170.261 95.655 170.261 95.655L170.313 95.676L171.173 96.0484L173.665 102.146L176.156 106.072Z" fill="#FDC2CC"/>
<path d="M167.043 180.764C166.981 181.448 166.964 182.135 166.993 182.82C167.011 183.552 167.043 184.174 167.043 184.174L165.535 187.321C165.535 187.321 160.355 189.026 161.207 188.304C161.504 188.055 161.656 187.407 161.732 186.55C161.861 184.929 161.674 182.566 161.546 180.764C161.349 178.011 158.202 171.192 158.202 171.192C158.202 171.192 155.579 164.504 153.94 160.373C152.301 156.243 152.891 148.768 152.891 148.768C152.891 148.768 153.153 143.13 154.334 141.425C155.514 139.72 160.103 139.13 160.103 139.13L162.257 146.272C162.257 146.272 164.027 152.959 164.682 153.943C165.338 154.926 165.141 166.662 164.879 167.908C164.745 168.545 164.971 171.055 165.223 173.342C165.48 175.517 166.016 177.651 166.817 179.689C166.974 180.025 167.051 180.393 167.043 180.764Z" fill="#FDC2CC"/>
<path opacity="0.1" d="M167.043 184.174L165.535 187.321C165.535 187.321 160.355 189.025 161.207 188.304C161.504 188.055 161.656 187.407 161.732 186.55C161.918 186.363 162.117 186.159 162.322 185.949C163.64 184.583 165.237 183.516 167.003 182.82C167.011 183.552 167.043 184.174 167.043 184.174Z" fill="black"/>
<path d="M169.408 188.858C169.41 188.87 169.41 188.882 169.408 188.894C169.146 190.14 164.819 191.845 164.819 191.845C164.819 191.845 162.065 192.304 160.492 192.697C160.371 192.73 160.246 192.741 160.122 192.731C158.907 192.64 158.852 190.303 158.852 189.943C158.852 189.584 160.36 187.911 160.819 187.649C161.338 187.218 161.826 186.751 162.278 186.251C163.623 184.857 165.253 183.769 167.056 183.059C167.056 183.059 169.618 187.565 169.408 188.858Z" fill="#FF630C"/>
<path opacity="0.3" d="M169.408 188.858C169.41 188.87 169.41 188.882 169.408 188.894C169.146 190.14 164.819 191.845 164.819 191.845C164.819 191.845 162.065 192.304 160.492 192.697C160.371 192.73 160.246 192.741 160.122 192.731C158.907 192.639 158.852 190.303 158.852 189.943C158.852 189.584 160.36 187.911 160.819 187.649C161.347 187.213 161.841 186.738 162.299 186.23C163.616 184.857 165.213 183.783 166.983 183.083L167.056 183.054C167.056 183.054 169.618 187.565 169.408 188.858Z" fill="black"/>
<path opacity="0.1" d="M169.408 188.858C169.41 188.87 169.41 188.882 169.408 188.894C169.146 190.14 164.819 191.845 164.819 191.845C164.819 191.845 162.065 192.304 160.491 192.697C160.371 192.73 160.246 192.741 160.122 192.731C161.548 191.753 165.007 189.406 165.474 189.353C165.941 189.301 168.241 188.64 169.408 188.858Z" fill="black"/>
<path opacity="0.1" d="M187.625 85.8621C186.004 87.197 184.514 87.0056 182.251 87.0056C180.615 87.0056 178.488 87.5799 177.148 86.843C177.092 84.7947 176.885 83.0716 176.885 83.0716C176.885 83.0716 188.294 80.908 187.572 83.5961C187.408 84.3447 187.425 85.122 187.625 85.8621Z" fill="black"/>
<path d="M191.04 78.3614C191.04 80.848 190.052 83.2328 188.294 84.9911C186.535 86.7495 184.151 87.7373 181.664 87.7373C181.423 87.7373 181.181 87.7373 180.945 87.711C179.127 87.5708 177.389 86.9033 175.945 85.7904C174.5 84.6776 173.411 83.1676 172.812 81.4454C172.212 79.7232 172.128 77.8635 172.569 76.0941C173.011 74.3247 173.958 72.7224 175.296 71.4835C176.634 70.2445 178.305 69.4226 180.103 69.1184C181.901 68.8142 183.749 69.041 185.42 69.771C187.091 70.5009 188.513 71.7023 189.511 73.2281C190.51 74.7539 191.042 76.5378 191.043 78.3614H191.04Z" fill="#FDC2CC"/>
<path opacity="0.1" d="M173.665 102.151L176.156 106.085L172.681 113.573L168.551 116.589L167.83 111.915C167.83 111.915 166.434 108.834 165.834 108.312C166.007 107.889 166.125 107.695 166.125 107.85C166.125 108.506 167.738 111.456 167.738 111.456C172.721 109.752 171.173 103.129 171.173 103.129C171.173 103.129 170.554 97.2285 170.313 95.6759L171.173 96.0483L173.665 102.151Z" fill="black"/>
<path opacity="0.1" d="M195.695 92.8408V96.5125L191.892 97.753L185.414 102.521L183.696 103.785L176.025 100.703L171.173 95.5893C171.173 95.5893 171.409 95.4608 171.818 95.2484L172.081 95.1094C175.456 96.6436 179.109 97.2075 181.719 97.4094C182.919 97.5112 184.124 97.5383 185.328 97.4907C195.207 95.9172 195.501 93.5306 195.254 92.6835L195.695 92.8408Z" fill="black"/>
<path d="M198.514 152.304C196.041 153.516 193.502 154.589 190.908 155.516C186.384 157.155 176.419 154.992 175.173 154.664C173.927 154.336 164.354 150.533 160.683 149.091C157.011 147.648 156.093 148.829 155.241 148.697C154.388 148.566 153.798 146.927 153.667 146.468C153.536 146.009 156.028 142.01 157.404 139.977C158.781 137.945 162.912 138.338 163.502 138.207C164.092 138.076 168.223 138.207 168.223 138.207C168.223 138.207 167.961 136.896 169.469 133.224C170.977 129.552 166.977 122.734 166.977 122.734C164.223 120.963 164.682 115.456 164.682 115.456C164.027 113.03 166.125 107.457 166.125 108.112C166.125 108.768 167.738 111.718 167.738 111.718C172.721 110.014 171.173 103.392 171.173 103.392C171.173 103.392 170.452 96.5073 170.261 95.6549C170.069 94.8026 171.173 94.9337 171.173 94.9337C171.387 95.0439 171.602 95.1488 171.818 95.2484C175.27 96.8744 179.046 97.4672 181.727 97.6717C182.927 97.7734 184.132 97.8006 185.335 97.753C197.313 95.8202 195.191 92.7386 195.113 92.6284L195.695 92.8356C200.022 95.9828 198.711 106.408 198.711 106.408L197.09 114.189L195.886 119.985C195.886 119.985 200.148 145.818 200.541 147.129C200.935 148.44 198.514 152.304 198.514 152.304Z" fill="#FF630C"/>
<path opacity="0.1" d="M166.584 140.502C166.321 140.698 163.371 146.796 165.535 148.501C167.698 150.205 166.584 140.502 166.584 140.502Z" fill="black"/>
<path opacity="0.1" d="M168.682 141.359C168.747 141.556 174.845 151.26 178.189 152.047L168.682 141.359Z" fill="black"/>
<path opacity="0.1" d="M183.371 64.5716L182.395 64.7788C182.664 64.6797 182.939 64.5982 183.219 64.5349L183.371 64.5716Z" fill="black"/>
<path opacity="0.1" d="M198.063 106.408L196.227 114.184C195.291 113.756 194.43 113.18 193.678 112.476C193.093 111.92 192.569 111.283 191.816 110.919C190.848 110.449 189.681 110.512 188.582 110.473C187.21 110.421 185.85 110.189 184.538 109.78C184.157 109.685 183.8 109.512 183.489 109.272C182.865 108.721 182.907 107.832 182.965 107.055C183.079 105.546 183.092 104.032 183.004 102.521C182.988 102.238 182.967 101.954 182.944 101.671C182.839 100.404 182.498 98.9358 181.202 98.3929C180.536 98.1306 179.741 98.1516 179.104 97.8343C179.012 97.788 178.924 97.7335 178.842 97.6717C177.898 97.0108 177.811 95.6863 177.848 94.5717C177.904 93.0401 177.957 91.5076 178.008 89.9743C178.056 89.218 178.039 88.4591 177.958 87.7057C177.895 87.2054 177.757 86.7174 177.549 86.258C176.98 85.0411 175.794 84.0262 175.582 82.7411C175.57 82.6813 175.562 82.6209 175.558 82.5601C175.448 81.4114 176.172 80.3414 176.426 79.211C176.935 76.9372 175.225 74.4457 172.71 73.7927C171.923 73.5881 171.079 73.5488 170.295 73.3154C170.169 73.2779 170.046 73.2342 169.925 73.1842C171.824 70.6508 175.078 68.988 178.774 68.988C184.63 68.988 189.38 73.1842 189.38 78.3639C189.38 81.3012 187.851 83.9212 185.461 85.6417C185.477 85.7151 185.495 85.7912 185.516 85.8646C186.133 88.2486 188.045 90.7453 188.045 90.7453L193.982 92.6336L194.643 92.8434C199.547 95.9879 198.063 106.408 198.063 106.408Z" fill="black"/>
<path opacity="0.1" d="M201.286 113.94C201.229 113.94 201.173 113.927 201.118 113.916C201.175 113.91 201.233 113.918 201.286 113.94Z" fill="black"/>
<path d="M181.008 64.312C179.367 63.9308 177.689 63.7346 176.004 63.7272C175.456 63.7272 174.868 63.756 174.43 64.0576C173.851 64.4641 173.777 65.1985 173.604 65.8331C173.291 66.893 172.631 67.8167 171.729 68.4558C171.108 68.9095 170.376 69.2425 169.781 69.7199C169.185 70.1972 168.732 70.9053 168.881 71.6029C169.031 72.3005 169.815 72.8382 170.601 73.0611C171.388 73.284 172.225 73.3233 173.017 73.5384C175.532 74.1914 177.239 76.6856 176.731 78.9541C176.468 80.0845 175.752 81.1545 175.862 82.3032C175.991 83.6748 177.258 84.7318 177.853 86.0037C178.396 87.1629 178.359 88.4637 178.317 89.7174L178.157 94.3174C178.115 95.5291 178.22 96.9873 179.416 97.58C180.056 97.8947 180.853 97.8606 181.514 98.1386C182.81 98.6789 183.151 100.15 183.256 101.414C183.406 103.206 183.413 105.006 183.277 106.798C183.216 107.585 183.174 108.464 183.801 109.015C184.111 109.256 184.469 109.429 184.85 109.523C186.162 109.932 187.522 110.165 188.894 110.216C189.996 110.258 191.16 110.195 192.128 110.662C192.881 111.026 193.405 111.666 193.99 112.219C195.667 113.754 197.804 114.69 200.069 114.881C200.554 114.923 201.105 114.913 201.443 114.601C201.782 114.289 201.582 113.615 201.1 113.654C201.51 113.723 201.931 113.681 202.319 113.532C202.707 113.384 203.049 113.134 203.308 112.81C203.529 112.496 203.647 112.122 203.647 111.738C203.647 111.355 203.529 110.981 203.308 110.667C202.76 109.88 201.596 109.356 201.533 108.422C201.499 107.897 201.847 107.423 202.12 106.956C202.778 105.794 203.04 104.449 202.868 103.125C202.696 101.801 202.098 100.568 201.165 99.6125C199.935 98.3405 198.092 97.3754 197.662 95.7441C197.376 94.6531 197.809 93.507 197.643 92.3977C197.381 90.5618 195.564 89.2505 194.564 87.614C193.565 85.9775 193.389 83.9974 193.644 82.1354C193.898 80.2733 194.543 78.4637 195.068 76.6541C195.459 75.3034 195.781 73.8689 195.346 72.5287C195.034 71.5767 194.362 70.7506 193.665 69.9716C191.994 68.107 190.072 66.3603 187.696 65.2509C185.32 64.1415 182.424 63.7114 179.901 64.5323" fill="#474157"/>
<path opacity="0.1" d="M181.008 64.312C179.367 63.9308 177.689 63.7346 176.004 63.7272C175.456 63.7272 174.868 63.756 174.43 64.0576C173.851 64.4641 173.777 65.1985 173.604 65.8331C173.291 66.893 172.631 67.8167 171.729 68.4558C171.108 68.9095 170.376 69.2425 169.781 69.7199C169.185 70.1972 168.732 70.9053 168.881 71.6029C169.031 72.3005 169.815 72.8382 170.601 73.0611C171.388 73.284 172.225 73.3233 173.017 73.5384C175.532 74.1914 177.239 76.6856 176.731 78.9541C176.468 80.0845 175.752 81.1545 175.862 82.3032C175.991 83.6748 177.258 84.7318 177.853 86.0037C178.396 87.1629 178.359 88.4637 178.317 89.7174L178.157 94.3174C178.115 95.5291 178.22 96.9873 179.416 97.58C180.056 97.8947 180.853 97.8606 181.514 98.1386C182.81 98.6789 183.151 100.15 183.256 101.414C183.406 103.206 183.413 105.006 183.277 106.798C183.216 107.585 183.174 108.464 183.801 109.015C184.111 109.256 184.469 109.429 184.85 109.523C186.162 109.932 187.522 110.165 188.894 110.216C189.996 110.258 191.16 110.195 192.128 110.662C192.881 111.026 193.405 111.666 193.99 112.219C195.667 113.754 197.804 114.69 200.069 114.881C200.554 114.923 201.105 114.913 201.443 114.601C201.782 114.289 201.582 113.615 201.1 113.654C201.51 113.723 201.931 113.681 202.319 113.532C202.707 113.384 203.049 113.134 203.308 112.81C203.529 112.496 203.647 112.122 203.647 111.738C203.647 111.355 203.529 110.981 203.308 110.667C202.76 109.88 201.596 109.356 201.533 108.422C201.499 107.897 201.847 107.423 202.12 106.956C202.778 105.794 203.04 104.449 202.868 103.125C202.696 101.801 202.098 100.568 201.165 99.6125C199.935 98.3405 198.092 97.3754 197.662 95.7441C197.376 94.6531 197.809 93.507 197.643 92.3977C197.381 90.5618 195.564 89.2505 194.564 87.614C193.565 85.9775 193.389 83.9974 193.644 82.1354C193.898 80.2733 194.543 78.4637 195.068 76.6541C195.459 75.3034 195.781 73.8689 195.346 72.5287C195.034 71.5767 194.362 70.7506 193.665 69.9716C191.994 68.107 190.072 66.3603 187.696 65.2509C185.32 64.1415 182.424 63.7114 179.901 64.5323" fill="black"/>
<path opacity="0.1" d="M166.977 122.739C166.977 122.739 169.206 123.591 171.567 121.231C173.927 118.87 166.977 122.739 166.977 122.739Z" fill="black"/>
<g opacity="0.1">
<path opacity="0.1" d="M181.995 64.2727C182.427 64.1867 182.865 64.1315 183.306 64.1075C182.693 64.0701 182.079 64.0894 181.47 64.1652L181.995 64.2727Z" fill="black"/>
<path opacity="0.1" d="M195.144 112.219C194.557 111.666 194.035 111.026 193.279 110.662C192.314 110.195 191.147 110.258 190.046 110.216C188.673 110.166 187.313 109.933 186.002 109.523C185.62 109.429 185.263 109.256 184.953 109.015C184.328 108.464 184.373 107.577 184.428 106.799C184.564 105.006 184.557 103.206 184.407 101.414C184.3 100.15 183.961 98.6789 182.663 98.1386C182 97.8606 181.205 97.8947 180.565 97.58C179.369 96.9873 179.254 95.5291 179.304 94.3174C179.358 92.7841 179.411 91.2516 179.464 89.72C179.508 88.4638 179.542 87.1629 178.999 86.0037C178.404 84.7318 177.137 83.6775 177.009 82.3032C176.901 81.1571 177.625 80.0845 177.879 78.9541C178.388 76.6803 176.678 74.1915 174.163 73.5384C173.376 73.3339 172.532 73.2919 171.748 73.0611C170.964 72.8303 170.203 72.332 170.04 71.6187C169.878 70.9053 170.342 70.2129 170.937 69.733C171.533 69.253 172.264 68.9226 172.889 68.4689C173.79 67.8304 174.45 66.9063 174.761 65.8463C174.937 65.2116 175.023 64.4799 175.587 64.0707C175.911 63.8703 176.282 63.7615 176.663 63.756C176.429 63.756 176.196 63.7429 175.965 63.7429C175.417 63.7429 174.829 63.7718 174.391 64.0707C173.812 64.4799 173.738 65.2116 173.565 65.8463C173.252 66.9061 172.592 67.8298 171.69 68.4689C171.069 68.9226 170.337 69.2557 169.741 69.733C169.146 70.2103 168.692 70.9184 168.842 71.6187C168.991 72.3189 169.768 72.8277 170.552 73.0611C171.336 73.2945 172.175 73.3234 172.967 73.5384C175.482 74.1915 177.19 76.6856 176.681 78.9541C176.419 80.0845 175.703 81.1571 175.813 82.3032C175.941 83.6775 177.208 84.7318 177.803 86.0037C178.346 87.1629 178.312 88.4638 178.268 89.72C178.213 91.2516 178.16 92.7841 178.108 94.3174C178.066 95.5291 178.171 96.9873 179.366 97.58C180.006 97.8947 180.804 97.8606 181.465 98.1386C182.76 98.6789 183.101 100.15 183.206 101.414C183.356 103.206 183.363 105.006 183.227 106.799C183.167 107.585 183.125 108.464 183.752 109.015C184.062 109.256 184.419 109.429 184.801 109.523C186.112 109.933 187.472 110.166 188.845 110.216C189.946 110.258 191.111 110.195 192.078 110.662C192.831 111.026 193.356 111.666 193.943 112.219C195.619 113.754 197.755 114.69 200.02 114.881C200.312 114.916 200.609 114.905 200.898 114.847C198.751 114.599 196.737 113.68 195.144 112.219Z" fill="black"/>
</g>
<path opacity="0.1" d="M154.454 104.31C154.454 104.31 152.356 106.235 152.663 107.021C152.97 107.808 154.454 104.31 154.454 104.31Z" fill="black"/>
<path d="M156.4 129.054C154.887 128.684 150.714 128.343 148.729 135.002C148.267 136.549 147.678 138.055 146.969 139.505C145.065 143.416 142.605 151.457 153.424 153.227L179.388 159.128C179.388 159.128 193.287 160.832 194.205 160.177C195.123 159.521 194.992 158.079 194.992 158.079C194.992 158.079 179.65 158.079 176.634 153.358C173.618 148.637 173.487 142.212 173.487 142.212C173.487 142.212 173.864 132.29 158.013 129.408C157.489 129.309 156.938 129.185 156.4 129.054Z" fill="#474157"/>
<path opacity="0.1" d="M156.4 129.099C154.887 128.729 150.714 128.388 148.729 135.049C148.267 136.596 147.678 138.102 146.969 139.552C145.065 143.46 142.605 151.501 153.424 153.271L179.388 159.172C179.388 159.172 193.287 160.877 194.205 160.221C195.123 159.566 194.992 158.123 194.992 158.123C194.992 158.123 179.65 158.123 176.634 153.403C173.618 148.682 173.487 142.256 173.487 142.256C173.487 142.256 173.864 132.335 158.013 129.453C157.489 129.353 156.938 129.225 156.4 129.099Z" fill="black"/>
<path d="M210.827 122.269C210.677 121.31 210.183 120.437 209.438 119.814C208.693 119.19 207.747 118.859 206.776 118.881C203.041 118.949 191.546 119.447 186.206 122.935C186.206 122.935 182.141 125.558 180.961 125.558C179.781 125.558 163.783 139.196 187.518 151.391C187.518 151.391 200.237 155.01 205.22 146.513C205.22 146.513 208.761 137.386 208.499 134.226C208.236 131.066 210.859 122.542 210.859 122.542C210.859 122.542 210.854 122.44 210.827 122.269Z" fill="#474157"/>
<path opacity="0.1" d="M210.827 124.567C210.529 122.731 208.782 121.404 206.776 121.438C203.041 121.501 191.546 121.962 186.206 125.18C186.206 125.18 182.141 127.601 180.961 127.601C179.781 127.601 163.783 140.19 187.518 151.449C187.518 151.449 200.237 154.79 205.22 146.946C205.22 146.946 208.761 138.519 208.499 135.603C208.236 132.686 210.859 124.818 210.859 124.818C210.859 124.818 210.854 124.724 210.827 124.567Z" fill="black"/>
<path d="M198.139 151.388H193.943V160.323H198.139V151.388Z" fill="#5F5D7E"/>
<path opacity="0.1" d="M44.6476 115.055C51.1713 115.055 56.4599 114.715 56.4599 114.297C56.4599 113.878 51.1713 113.539 44.6476 113.539C38.1238 113.539 32.8353 113.878 32.8353 114.297C32.8353 114.715 38.1238 115.055 44.6476 115.055Z" fill="black"/>
<path d="M54.561 85.0648C54.3094 85.4096 54.108 85.7884 53.963 86.1899C53.9263 86.2895 53.8896 86.3997 53.8529 86.5072C53.7867 86.4758 53.7172 86.4521 53.6457 86.4364C53.3399 86.3598 53.0238 86.3324 52.7094 86.3551C52.7094 86.2345 52.7251 86.0928 52.7278 85.9722C52.7671 84.5901 52.6045 82.6624 51.2853 83.4781C50.0212 84.2649 50.9234 85.5762 51.739 86.418L51.9488 86.6226C51.204 87.1471 51.0624 88.3876 50.9391 89.6753C50.8159 90.963 49.7222 92.374 48.9958 93.1739C48.9223 93.2552 48.8568 93.3287 48.7912 93.3968C48.4979 93.1619 48.158 92.992 47.794 92.8984C47.43 92.8048 47.0503 92.7897 46.68 92.854C46.6511 92.7412 46.6171 92.6232 46.583 92.4973C45.9955 90.3782 44.776 86.7039 43.2208 85.8988L43.4253 85.6365C44.0862 84.771 44.831 83.4886 43.7322 83.1581C42.6333 82.8277 42.5336 84.2727 42.594 85.3533C42.594 85.4896 42.6149 85.6155 42.6254 85.7362C42.4059 85.7468 42.1908 85.802 41.9933 85.8985C41.7958 85.995 41.62 86.1307 41.4767 86.2974L41.3062 86.0981C40.4146 85.049 38.7807 83.3784 38.285 84.6399C37.8234 85.8148 39.2632 87.3386 40.2756 88.2224L40.3385 88.2775C39.6592 91.0391 42.6176 93.2946 44.2226 94.2702L44.4298 94.3961C42.2268 96.9925 40.8656 101.857 40.8656 101.857L47.034 102.959C47.034 102.959 51.1253 99.4315 50.6008 96.1165H50.6428C54.7314 95.2982 55.6599 90.9394 55.0226 88.3509L55.096 88.3221C55.8404 88.0165 56.4928 87.5231 56.9895 86.8901C58.133 85.2982 55.7307 83.5043 54.561 85.0648Z" fill="#FF630C"/>
<path opacity="0.1" d="M54.561 85.0648C54.3094 85.4096 54.108 85.7884 53.963 86.1899C53.9263 86.2895 53.8896 86.3997 53.8529 86.5072C53.7867 86.4758 53.7172 86.4521 53.6457 86.4364C53.3399 86.3598 53.0238 86.3324 52.7094 86.3551C52.7094 86.2345 52.7251 86.0928 52.7278 85.9722C52.7671 84.5901 52.6045 82.6624 51.2853 83.4781C50.0212 84.2649 50.9234 85.5762 51.739 86.418L51.9488 86.6226C51.204 87.1471 51.0624 88.3876 50.9391 89.6753C50.8159 90.963 49.7222 92.374 48.9958 93.1739C48.9223 93.2552 48.8568 93.3287 48.7912 93.3968C48.4979 93.1619 48.158 92.992 47.794 92.8984C47.43 92.8048 47.0503 92.7897 46.68 92.854C46.6511 92.7412 46.6171 92.6232 46.583 92.4973C45.9955 90.3782 44.776 86.7039 43.2208 85.8988L43.4253 85.6365C44.0862 84.771 44.831 83.4886 43.7322 83.1581C42.6333 82.8277 42.5336 84.2727 42.594 85.3533C42.594 85.4896 42.6149 85.6155 42.6254 85.7362C42.4059 85.7468 42.1908 85.802 41.9933 85.8985C41.7958 85.995 41.62 86.1307 41.4767 86.2974L41.3062 86.0981C40.4146 85.049 38.7807 83.3784 38.285 84.6399C37.8234 85.8148 39.2632 87.3386 40.2756 88.2224L40.3385 88.2775C39.6592 91.0391 42.6176 93.2946 44.2226 94.2702L44.4298 94.3961C42.2268 96.9925 40.8656 101.857 40.8656 101.857L47.034 102.959C47.034 102.959 51.1253 99.4315 50.6008 96.1165H50.6428C54.7314 95.2982 55.6599 90.9394 55.0226 88.3509L55.096 88.3221C55.8404 88.0165 56.4928 87.5231 56.9895 86.8901C58.133 85.2982 55.7307 83.5043 54.561 85.0648Z" fill="black"/>
<path d="M42.282 86.8429L41.5686 88.9542C41.5686 88.9542 41.1673 88.6709 40.6612 88.2251C39.6488 87.3412 38.209 85.8175 38.6706 84.6426C39.1663 83.3811 40.8002 85.0464 41.6919 86.1007C42.0433 86.5177 42.282 86.8429 42.282 86.8429Z" fill="#FF630C"/>
<path d="M43.803 85.6391C43.5835 85.9268 43.3489 86.2025 43.1001 86.4652C43.0387 86.0979 42.9958 85.7276 42.9716 85.3559C42.9113 84.2754 43.0267 82.8408 44.1099 83.1607C45.193 83.4807 44.4534 84.7737 43.803 85.6391Z" fill="#FF630C"/>
<path d="M53.1082 85.9721C53.0872 86.6671 53.019 87.2205 53.019 87.2205C52.7014 86.9736 52.4008 86.7055 52.1194 86.418C51.3038 85.5709 50.4016 84.2648 51.6657 83.478C52.9823 82.6624 53.1449 84.59 53.1082 85.9721Z" fill="#FF630C"/>
<path d="M57.3673 86.8823C56.8687 87.5151 56.2145 88.0076 55.4685 88.3116C55.262 88.4011 55.05 88.4773 54.8338 88.5398L53.9841 87.3465C54.074 86.9524 54.1915 86.565 54.3355 86.1873C54.4805 85.7858 54.6819 85.407 54.9335 85.0622C56.1136 83.5044 58.5107 85.2982 57.3673 86.8823Z" fill="#FF630C"/>
<path opacity="0.1" d="M41.6839 86.1008C42.0432 86.5178 42.2819 86.843 42.2819 86.843L41.5685 88.9542C41.5685 88.9542 41.1673 88.671 40.6611 88.2252C40.7741 87.5492 41.0535 86.912 41.4741 86.371C41.537 86.2739 41.6131 86.1821 41.6839 86.1008Z" fill="black"/>
<path opacity="0.1" d="M43.8028 85.6392C43.5833 85.9268 43.3487 86.2026 43.0999 86.4653C43.0385 86.0979 42.9956 85.7277 42.9714 85.356C43.2714 85.361 43.5622 85.46 43.8028 85.6392Z" fill="black"/>
<path d="M47.3384 94.021L45.5446 94.8078C45.5446 94.8078 45.1538 94.619 44.5899 94.2675C42.7043 93.1057 38.9146 90.1867 41.4559 86.7458C43.9972 83.305 46.1163 89.4786 46.9503 92.4946C47.2152 93.3994 47.3384 94.021 47.3384 94.021Z" fill="#FF630C"/>
<path opacity="0.1" d="M52.1168 86.418C52.3769 86.148 52.7309 85.9884 53.1055 85.9722C53.0845 86.6672 53.0163 87.2205 53.0163 87.2205C52.6987 86.9736 52.3982 86.7055 52.1168 86.418Z" fill="black"/>
<path opacity="0.1" d="M55.4685 88.3117C55.262 88.4012 55.05 88.4774 54.8338 88.5399L53.9841 87.3466C54.074 86.9525 54.1915 86.5651 54.3355 86.1874C54.8889 86.5126 55.2928 87.3072 55.4685 88.3117Z" fill="black"/>
<path d="M51.0102 96.1087L50.7086 96.1611C44.6949 97.0764 48.7259 93.8322 48.7259 93.8322C48.7259 93.8322 48.9881 93.5831 49.3632 93.1739C50.0896 92.374 51.1807 90.9709 51.3065 89.6754C51.4954 87.7268 51.713 85.8988 54.0131 86.4364C56.2817 86.9636 56.7144 94.9678 51.0102 96.1087Z" fill="#FF630C"/>
<path d="M50.9078 111.079H39.4181V114.1H50.9078V111.079Z" fill="#474157"/>
<path d="M52.6046 101.26H37.5928V111.802H52.6046V101.26Z" fill="#474157"/>
<path opacity="0.1" d="M50.7975 111.079H39.3078V114.1H50.7975V111.079Z" fill="black"/>
<path opacity="0.1" d="M52.5574 101.262H37.5455V111.805H52.5574V101.262Z" fill="black"/>
<path d="M51.663 111.079H40.1733V114.1H51.663V111.079Z" fill="#474157"/>
<path opacity="0.1" d="M46.9607 92.5078C47.2229 93.41 47.3488 94.0316 47.3488 94.0316L45.5549 94.8183C45.5549 94.8183 45.1642 94.6295 44.6003 94.2781C45.3032 93.3785 46.0952 92.7045 46.9607 92.5078Z" fill="black"/>
<path opacity="0.1" d="M51.0102 96.1087L50.7086 96.1611C44.6949 97.0764 48.7259 93.8322 48.7259 93.8322C48.7259 93.8322 48.9881 93.5831 49.3632 93.174C50.4857 94.0814 50.9603 95.0858 51.0102 96.1087Z" fill="black"/>
<path d="M41.2432 101.857C41.2432 101.857 44.6106 89.7932 49.334 93.5173C54.0573 97.2415 47.4116 102.959 47.4116 102.959L41.2432 101.857Z" fill="#FF630C"/>
<path opacity="0.1" d="M42.9426 89.0143C43.1512 89.0143 43.3203 88.8453 43.3203 88.6367C43.3203 88.4281 43.1512 88.259 42.9426 88.259C42.7341 88.259 42.565 88.4281 42.565 88.6367C42.565 88.8453 42.7341 89.0143 42.9426 89.0143Z" fill="black"/>
<path opacity="0.1" d="M42.9114 90.7794C43.12 90.7794 43.2891 90.6103 43.2891 90.4017C43.2891 90.1931 43.12 90.024 42.9114 90.024C42.7028 90.024 42.5337 90.1931 42.5337 90.4017C42.5337 90.6103 42.7028 90.7794 42.9114 90.7794Z" fill="black"/>
<path opacity="0.1" d="M53.8661 89.3607C54.0746 89.3607 54.2437 89.1916 54.2437 88.983C54.2437 88.7744 54.0746 88.6053 53.8661 88.6053C53.6575 88.6053 53.4884 88.7744 53.4884 88.983C53.4884 89.1916 53.6575 89.3607 53.8661 89.3607Z" fill="black"/>
<path opacity="0.1" d="M45.0514 98.3954C45.26 98.3954 45.4291 98.2264 45.4291 98.0178C45.4291 97.8092 45.26 97.6401 45.0514 97.6401C44.8429 97.6401 44.6738 97.8092 44.6738 98.0178C44.6738 98.2264 44.8429 98.3954 45.0514 98.3954Z" fill="black"/>
<path opacity="0.1" d="M53.0793 92.2901C53.2879 92.2901 53.457 92.121 53.457 91.9124C53.457 91.7039 53.2879 91.5348 53.0793 91.5348C52.8708 91.5348 52.7017 91.7039 52.7017 91.9124C52.7017 92.121 52.8708 92.2901 53.0793 92.2901Z" fill="black"/>
<path opacity="0.1" d="M49.177 96.1926C49.3856 96.1926 49.5546 96.0235 49.5546 95.8149C49.5546 95.6063 49.3856 95.4373 49.177 95.4373C48.9684 95.4373 48.7993 95.6063 48.7993 95.8149C48.7993 96.0235 48.9684 96.1926 49.177 96.1926Z" fill="black"/>
<path opacity="0.1" d="M44.2332 89.7697C44.4418 89.7697 44.6108 89.6006 44.6108 89.3921C44.6108 89.1835 44.4418 89.0144 44.2332 89.0144C44.0246 89.0144 43.8555 89.1835 43.8555 89.3921C43.8555 89.6006 44.0246 89.7697 44.2332 89.7697Z" fill="black"/>
<path opacity="0.1" d="M52.8274 90.4962C53.036 90.4962 53.2051 90.3271 53.2051 90.1185C53.2051 89.9099 53.036 89.7408 52.8274 89.7408C52.6188 89.7408 52.4498 89.9099 52.4498 90.1185C52.4498 90.3271 52.6188 90.4962 52.8274 90.4962Z" fill="black"/>
<path opacity="0.1" d="M51.5371 93.4232C51.7457 93.4232 51.9148 93.2541 51.9148 93.0455C51.9148 92.8369 51.7457 92.6678 51.5371 92.6678C51.3286 92.6678 51.1595 92.8369 51.1595 93.0455C51.1595 93.2541 51.3286 93.4232 51.5371 93.4232Z" fill="black"/>
<path opacity="0.1" d="M47.5692 98.1124C47.7778 98.1124 47.9469 97.9433 47.9469 97.7347C47.9469 97.5261 47.7778 97.3571 47.5692 97.3571C47.3606 97.3571 47.1916 97.5261 47.1916 97.7347C47.1916 97.9433 47.3606 98.1124 47.5692 98.1124Z" fill="black"/>
<path opacity="0.1" d="M46.751 96.2554C46.9596 96.2554 47.1286 96.0864 47.1286 95.8778C47.1286 95.6692 46.9596 95.5001 46.751 95.5001C46.5424 95.5001 46.3733 95.6692 46.3733 95.8778C46.3733 96.0864 46.5424 96.2554 46.751 96.2554Z" fill="black"/>
<path opacity="0.1" d="M44.7995 92.0698C45.0081 92.0698 45.1772 91.9007 45.1772 91.6921C45.1772 91.4835 45.0081 91.3145 44.7995 91.3145C44.5909 91.3145 44.4219 91.4835 44.4219 91.6921C44.4219 91.9007 44.5909 92.0698 44.7995 92.0698Z" fill="black"/>
<path opacity="0.1" d="M51.663 111.079H40.1733V112.183H51.663V111.079Z" fill="black"/>
<path d="M53.3598 101.26H38.3479V111.802H53.3598V101.26Z" fill="#474157"/>
<path opacity="0.1" d="M48.0728 99.8117C48.2813 99.8117 48.4504 99.6426 48.4504 99.4341C48.4504 99.2255 48.2813 99.0564 48.0728 99.0564C47.8642 99.0564 47.6951 99.2255 47.6951 99.4341C47.6951 99.6426 47.8642 99.8117 48.0728 99.8117Z" fill="black"/>
<path opacity="0.1" d="M45.8066 100.284C46.0152 100.284 46.1843 100.115 46.1843 99.9061C46.1843 99.6975 46.0152 99.5284 45.8066 99.5284C45.5981 99.5284 45.429 99.6975 45.429 99.9061C45.429 100.115 45.5981 100.284 45.8066 100.284Z" fill="black"/>
<path d="M81.7971 141.551C81.7971 141.551 83.667 143.998 80.9342 147.69C78.2014 151.383 75.9512 154.509 76.8534 156.807C76.8534 156.807 80.9814 149.946 84.341 149.851C87.7006 149.757 85.4923 145.679 81.7971 141.551Z" fill="#FF630C"/>
<path opacity="0.1" d="M81.7969 141.551C81.9603 141.787 82.0893 142.044 82.1798 142.317C85.4555 146.167 87.2021 149.76 84.0524 149.851C81.1176 149.943 77.5981 155.188 76.7536 156.5C76.7824 156.602 76.8165 156.704 76.8533 156.801C76.8533 156.801 80.9813 149.941 84.3408 149.846C87.7004 149.752 85.4922 145.679 81.7969 141.551Z" fill="black"/>
<path d="M85.2744 144.672C85.2744 145.532 85.1773 146.23 85.0593 146.23C84.9413 146.23 84.8443 145.532 84.8443 144.672C84.8443 143.812 84.9649 144.215 85.0829 144.215C85.2009 144.215 85.2744 143.809 85.2744 144.672Z" fill="#FFD037"/>
<path d="M86.4677 145.7C85.7123 146.112 85.0541 146.361 84.9964 146.256C84.9387 146.151 85.5052 145.731 86.2631 145.32C87.021 144.908 86.7194 145.207 86.7876 145.32C86.8558 145.432 87.2256 145.288 86.4677 145.7Z" fill="#FFD037"/>
<path d="M71.9124 141.551C71.9124 141.551 70.0424 143.998 72.7752 147.69C75.508 151.383 77.7582 154.509 76.8534 156.807C76.8534 156.807 72.728 149.946 69.3684 149.851C66.0088 149.757 68.2171 145.679 71.9124 141.551Z" fill="#FF630C"/>
<path opacity="0.1" d="M71.9124 141.551C71.7489 141.787 71.62 142.044 71.5295 142.317C68.2538 146.167 66.5071 149.76 69.6569 149.851C72.5916 149.943 76.1112 155.188 76.9557 156.5C76.9271 156.602 76.893 156.703 76.8534 156.801C76.8534 156.801 72.728 149.943 69.3684 149.854C66.0088 149.765 68.2171 145.679 71.9124 141.551Z" fill="black"/>
<path d="M68.4349 144.672C68.4349 145.532 68.532 146.23 68.65 146.23C68.768 146.23 68.865 145.532 68.865 144.672C68.865 143.812 68.7444 144.215 68.6264 144.215C68.5084 144.215 68.4349 143.809 68.4349 144.672Z" fill="#FFD037"/>
<path d="M67.2415 145.7C67.9968 146.112 68.6551 146.361 68.7128 146.256C68.7705 146.151 68.204 145.731 67.446 145.32C66.6881 144.908 66.9897 145.207 66.9215 145.32C66.8533 145.432 66.4835 145.288 67.2415 145.7Z" fill="#FFD037"/>
<path opacity="0.1" d="M76.8533 175.529C87.6587 175.529 96.4181 174.185 96.4181 172.527C96.4181 170.868 87.6587 169.524 76.8533 169.524C66.048 169.524 57.2886 170.868 57.2886 172.527C57.2886 174.185 66.048 175.529 76.8533 175.529Z" fill="#FF630C"/>
<path d="M86.924 153.512L86.8296 154.276L86.6985 155.356L86.646 155.805L86.5123 156.885L86.4572 157.336L86.3261 158.414L84.8417 170.688C84.7079 171.784 82.9166 172.637 80.7582 172.637H72.9638C70.8028 172.637 69.0299 171.784 68.883 170.688L67.3829 158.414L67.2517 157.336L67.1966 156.885L67.0629 155.805L67.0104 155.356L66.8793 154.276L66.7849 153.512C66.7088 152.894 67.6766 152.369 68.9014 152.369H84.8102C86.0297 152.369 87.0001 152.894 86.924 153.512Z" fill="#65617D"/>
<path d="M86.8298 154.276L86.6987 155.354H67.0106L66.8795 154.276H86.8298Z" fill="#9D9CB5"/>
<path d="M86.6461 155.805L86.515 156.885H67.1968L67.063 155.805H86.6461Z" fill="#9D9CB5"/>
<path d="M86.4574 157.334L86.3262 158.414H67.383L67.2519 157.334H86.4574Z" fill="#9D9CB5"/>
<path opacity="0.1" d="M161.879 192.71C174.08 192.71 183.972 191.724 183.972 190.507C183.972 189.291 174.08 188.304 161.879 188.304C149.677 188.304 139.786 189.291 139.786 190.507C139.786 191.724 149.677 192.71 161.879 192.71Z" fill="#FF630C"/>
<path d="M72.6461 97.7976L85.7916 105.387L85.7916 120.583L72.6461 112.993L72.6461 97.7976Z" fill="#FF5B00"/>
<path d="M76.6582 103.473L78.82 104.721L78.82 113.691L76.6582 112.443L76.6582 103.473Z" fill="white"/>
<path d="M85.7917 105.393L98.9373 97.8039L98.9373 112.993L85.7917 120.583L85.7917 105.393Z" fill="#CB4600"/>
<path d="M89.3217 107.989L91.6 106.674L92.7604 110.33L93.836 105.383L95.9607 104.156L93.73 112.388C93.4757 113.326 93.2161 114.011 92.9512 114.441C92.5767 115.049 92.0063 115.574 91.2398 116.016C90.9289 116.196 90.4485 116.424 89.7986 116.702L89.629 115.062C89.9399 114.997 90.286 114.854 90.6675 114.634C90.9218 114.487 91.1267 114.301 91.2821 114.077C91.4411 113.85 91.5753 113.532 91.6848 113.122L89.3217 107.989Z" fill="white"/>
<path d="M72.6405 97.8085L85.7848 90.2196L98.9428 97.8164L85.7986 105.405L72.6405 97.8085Z" fill="#FF690E"/>
<rect width="1.51777" height="15.1936" transform="matrix(0.866025 -0.5 0.866025 0.5 78.6975 94.3033)" fill="#EE8E09"/>
<defs>
<linearGradient id="paint0_linear" x1="177.858" y1="199.078" x2="177.858" y2="63.7272" gradientUnits="userSpaceOnUse">
<stop stop-color="#808080" stop-opacity="0.25"/>
<stop offset="0.54" stop-color="#808080" stop-opacity="0.12"/>
<stop offset="1" stop-color="#808080" stop-opacity="0.1"/>
</linearGradient>
</defs>
</svg>
