<svg width="16" height="12" viewBox="0 0 16 12" fill="none" xmlns="http://www.w3.org/2000/svg">
<path fill-rule="evenodd" clip-rule="evenodd" d="M0.615385 0C0.452174 0 0.295649 0.070238 0.180242 0.195262C0.064835 0.320287 0 0.489856 0 0.666667C0 0.843478 0.064835 1.01305 0.180242 1.13807C0.295649 1.2631 0.452174 1.33333 0.615385 1.33333H15.3846C15.5478 1.33333 15.7044 1.2631 15.8198 1.13807C15.9352 1.01305 16 0.843478 16 0.666667C16 0.489856 15.9352 0.320287 15.8198 0.195262C15.7044 0.070238 15.5478 0 15.3846 0H0.615385ZM0 6C0 5.82319 0.064835 5.65362 0.180242 5.5286C0.295649 5.40357 0.452174 5.33333 0.615385 5.33333H15.3846C15.5478 5.33333 15.7044 5.40357 15.8198 5.5286C15.9352 5.65362 16 5.82319 16 6C16 6.17681 15.9352 6.34638 15.8198 6.4714C15.7044 6.59643 15.5478 6.66667 15.3846 6.66667H0.615385C0.452174 6.66667 0.295649 6.59643 0.180242 6.4714C0.064835 6.34638 0 6.17681 0 6ZM0 11.3333C0 11.1565 0.064835 10.987 0.180242 10.8619C0.295649 10.7369 0.452174 10.6667 0.615385 10.6667H15.3846C15.5478 10.6667 15.7044 10.7369 15.8198 10.8619C15.9352 10.987 16 11.1565 16 11.3333C16 11.5101 15.9352 11.6797 15.8198 11.8047C15.7044 11.9298 15.5478 12 15.3846 12H0.615385C0.452174 12 0.295649 11.9298 0.180242 11.8047C0.064835 11.6797 0 11.5101 0 11.3333Z" fill="#FF630C"/>
</svg>
