<svg width="222" height="133" viewBox="0 0 222 133" fill="none" xmlns="http://www.w3.org/2000/svg">
<path d="M124.597 0V1.88527V34.0356H85.2835V1.88527V0H124.597Z" fill="url(#paint0_linear)"/>
<path d="M85.5351 0H124.346V1.09942H85.5351V0Z" fill="#535461"/>
<path d="M85.5351 1.06845H124.346V33.6078H85.5351V1.06845Z" fill="#EDEDF4"/>
<path d="M87.2501 6.13199H122.532V28.1552H87.2501V6.13199Z" fill="white"/>
<path d="M123.624 0.721972C123.52 0.721972 123.436 0.637912 123.436 0.534219C123.436 0.430526 123.52 0.346466 123.624 0.346466C123.728 0.346466 123.812 0.430526 123.812 0.534219C123.812 0.637912 123.728 0.721972 123.624 0.721972Z" fill="#FA595F"/>
<path d="M123.059 0.721972C122.955 0.721972 122.871 0.637912 122.871 0.534219C122.871 0.430526 122.955 0.346466 123.059 0.346466C123.162 0.346466 123.246 0.430526 123.246 0.534219C123.246 0.637912 123.162 0.721972 123.059 0.721972Z" fill="#FFC74C"/>
<path d="M122.494 0.721972C122.39 0.721972 122.306 0.637912 122.306 0.534219C122.306 0.430526 122.39 0.346466 122.494 0.346466C122.597 0.346466 122.681 0.430526 122.681 0.534219C122.681 0.637912 122.597 0.721972 122.494 0.721972Z" fill="#85D459"/>
<path d="M118.907 8.0192V25.2789H90.3626" stroke="#535461" stroke-width="0.38712" stroke-miterlimit="10"/>
<path d="M88.0359 132.589C39.903 132.589 0.883591 121.441 0.883591 107.689C0.883591 93.9374 39.903 82.7895 88.0359 82.7895C136.169 82.7895 175.188 93.9374 175.188 107.689C175.188 121.441 136.169 132.589 88.0359 132.589Z" fill="#F5F5F5"/>
<path d="M69.4232 59.7326C69.4232 59.7326 67.0153 47.908 57.8096 49.0036C57.8096 49.0036 51.4589 49.441 50.1446 53.6025V62.7986L69.4232 59.7326Z" fill="#535461"/>
<path d="M47.8683 40.2566C48.9484 40.1347 49.9723 39.6759 50.9788 39.2269C52.6705 38.4623 54.4029 37.6552 55.7114 36.2364C57.6779 34.1072 58.3922 30.9638 59.7761 28.3256C60.2884 27.2921 60.9738 26.354 61.8027 25.5519C62.4885 24.9279 63.283 24.4352 64.1467 24.0982C65.844 23.4238 67.722 23.3554 69.4638 23.9047L68.496 23.744L72.6363 25.066C73.1511 25.2325 73.7163 25.4435 73.9776 25.9642C74.2389 26.4848 74.0725 27.23 73.7008 27.7062C73.3292 28.1824 72.8066 28.4591 72.2995 28.7263L71.864 28.9547C72.2174 29.783 72.3523 30.6882 72.2557 31.5836C72.1591 32.479 71.8343 33.3346 71.3123 34.0685V38.3133C72.3353 38.6823 73.4271 38.8211 74.5099 38.7198C74.8077 38.8189 75.0818 38.9783 75.3151 39.1882C75.8203 39.5753 76.461 40.3495 76.7223 41.7799C77.1617 44.1917 82.142 52.4064 82.6607 53.2503L90.7902 55.3795L90.7419 55.4259L90.8986 55.4666C90.8986 55.4666 90.8348 55.5266 90.7341 55.633C91.6516 55.695 93.2659 55.6911 94.5492 55.0872C95.8654 54.4678 97.9791 55.1027 99.1559 55.5517C99.2443 55.5856 99.3213 55.6438 99.378 55.7197C99.4346 55.7955 99.4687 55.8858 99.4762 55.9801C99.4837 56.0745 99.4643 56.1691 99.4203 56.2529C99.3763 56.3367 99.3095 56.4063 99.2275 56.4537C97.6431 57.3529 95.8663 57.8594 94.0459 57.9306C92.06 58.0351 90.4341 58.0487 89.3211 58.037C89.295 58.205 89.3037 58.3766 89.3467 58.5411C89.3896 58.7056 89.4659 58.8595 89.5708 58.9932L79.856 57.6035C79.5715 57.4409 79.3026 57.2523 79.0528 57.0402C78.4552 56.5656 77.9405 55.9953 77.5295 55.3524L75.4371 52.6174C75.3055 53.0897 73.9409 58.1029 74.3996 59.7655L74.8893 61.6082L72.0285 61.9044V61.8424L63.3705 63.0038V62.8102H63.3551L63.3183 61.1863L53.2822 60.863C53.2822 60.863 51.5402 59.4481 52.3008 57.1854C53.0615 54.9227 52.7809 48.3629 52.7809 48.3629C53.043 46.544 53.4409 44.7473 53.9713 42.9878C51.7536 42.671 49.588 42.0605 47.5315 41.1722C46.5328 40.7425 45.5243 40.2218 44.8217 39.314C45.6269 40.1269 46.7883 40.3786 47.8683 40.2566Z" fill="url(#paint1_linear)"/>
<path d="M63.21 29.1308H71.3395V41.7122H63.21V29.1308Z" fill="#FE5858"/>
<path opacity="0.1" d="M63.21 29.1308H71.3395V41.7122H63.21V29.1308Z" fill="black"/>
<path d="M69.6573 33.7549C69.1512 34.4149 68.8383 35.2026 68.7535 36.03C68.6688 36.8574 68.8155 37.6921 69.1773 38.441C70.4199 41.1121 69.6593 44.9582 68.6585 45.5447C67.6578 46.1311 63.684 46.9306 62.4433 45.2234C61.2026 43.5162 61.2723 38.5842 61.6807 37.8681C62.0891 37.1519 65.1164 36.5461 64.9867 32.5026L69.6573 33.7549Z" fill="#F2B08D"/>
<path opacity="0.1" d="M70.178 38.7236C70.178 38.7236 68.5831 49.4159 63.1827 42.0567L63.6299 62.187L73.395 60.8843L70.178 38.7236Z" fill="black"/>
<path d="M70.1916 38.9153C70.1916 38.9153 68.5967 49.6075 63.1964 42.2484L63.6435 62.3786L73.4086 61.0759L70.1916 38.9153Z" fill="#F1C413"/>
<path d="M64.23 57.7777C64.23 57.7777 67.1663 58.1493 69.1987 57.2628C69.1987 57.2628 73.0699 58.3099 72.6827 59.2197C72.2956 60.1294 63.4132 60.1875 63.4132 60.1875L64.23 57.7777Z" fill="#F2B08D"/>
<path d="M89.4567 55.1704C89.4567 55.1704 92.0097 55.5808 93.8524 54.7136C95.1261 54.1136 97.1739 54.7291 98.3159 55.1646C98.4013 55.1976 98.4756 55.254 98.5303 55.3273C98.5851 55.4006 98.6179 55.488 98.6252 55.5792C98.6325 55.6704 98.6139 55.7618 98.5715 55.8429C98.5291 55.924 98.4647 55.9915 98.3856 56.0376C96.8509 56.9085 95.1298 57.399 93.3666 57.468C89.6193 57.6615 87.192 57.5299 87.192 57.5299L89.4567 55.1704Z" fill="#F2B08D"/>
<path opacity="0.1" d="M64.8958 43.7136L66.3824 58.037L65.0042 57.7931C65.0042 57.7931 62.8751 59.5604 64.7178 60.623L54.0584 60.2939C54.0584 60.2939 52.3706 58.9235 53.108 56.7228C53.8455 54.522 53.5726 48.1752 53.5726 48.1752C53.5726 48.1752 54.6701 40.1424 56.8496 39.7224C56.8496 39.7224 61.2569 38.8591 63.8313 35.9944L64.8958 43.7136Z" fill="black"/>
<path d="M64.7042 43.7329L66.1907 58.0564L64.8126 57.8125C64.8126 57.8125 62.6834 59.5797 64.5261 60.6423L53.8668 60.2997C53.8668 60.2997 52.1789 58.9293 52.9164 56.7286C53.6539 54.5278 53.3809 48.1809 53.3809 48.1809C53.3809 48.1809 54.4784 40.1482 56.6579 39.7282C56.6579 39.7282 61.0653 38.8649 63.6396 36.0002L64.7042 43.7329Z" fill="#39447A"/>
<path opacity="0.1" d="M68.9007 37.1655C68.9007 37.1655 71.3899 39.2733 74.5429 38.9462C74.5429 38.9462 76.1321 39.3604 76.5792 41.8264C77.0263 44.2923 82.3725 53.0064 82.3725 53.0064L90.3084 55.0794C90.3084 55.0794 88.0225 57.2473 89.0212 58.4977L79.6103 57.1563C78.7418 56.639 78.0082 55.9233 77.4696 55.0678L75.3404 52.2941C75.3404 52.2941 73.8597 57.5667 74.3242 59.2623L74.7984 61.0488L72.0267 61.3372C72.0267 61.3372 71.8912 54.3265 71.2389 51.6031C70.9563 50.4243 70.7124 49.2397 70.5343 48.0416C70.0814 44.9834 69.373 40.3321 69.1078 39.7185L68.9007 37.1655Z" fill="black"/>
<path d="M68.7942 37.0803C68.7942 37.0803 71.2834 39.1959 74.4365 38.8611C74.4365 38.8611 76.0256 39.2753 76.4727 41.7412C76.9199 44.2072 82.2679 52.9232 82.2679 52.9232L90.2039 54.9962C90.2039 54.9962 87.9179 57.1641 88.9167 58.4145L79.5058 57.0731C78.6338 56.5552 77.8974 55.8373 77.3573 54.9788L75.2281 52.2051C75.2281 52.2051 73.7474 57.4777 74.212 59.1733L74.6862 60.9598L71.9202 61.2385C71.9202 61.2385 71.7847 54.2278 71.1324 51.5044C70.8498 50.3256 70.6059 49.141 70.4278 47.9429C69.9749 44.8847 69.2665 40.2334 69.0013 39.6198L68.7942 37.0803Z" fill="#39447A"/>
<path opacity="0.1" d="M64.2185 35.1795C64.6733 34.4614 65.0624 34.1556 65.0179 32.7871L69.6865 34.0414C69.134 34.763 68.8122 35.6346 68.7632 36.5422C68.4325 36.6468 68.0921 36.7175 67.747 36.7532C66.4715 36.8867 65.1882 35.8647 64.2185 35.1795Z" fill="black"/>
<path d="M62.1339 31.9249C61.844 29.1285 63.8759 26.6264 66.6724 26.3364C69.4689 26.0464 71.9709 28.0784 72.2609 30.8748C72.5509 33.6713 70.519 36.1734 67.7225 36.4634C64.926 36.7533 62.4239 34.7214 62.1339 31.9249Z" fill="#F2B08D"/>
<path opacity="0.1" d="M74.4578 46.0537C74.4578 46.0537 73.5364 47.4086 74.1016 48.2158C74.6668 49.0229 74.7965 50.2675 74.5894 51.063" fill="black"/>
<path opacity="0.1" d="M59.5653 45.8602C59.5653 45.8602 57.8639 53.6664 58.3245 54.3923L59.5653 45.8602Z" fill="black"/>
<path opacity="0.1" d="M63.4151 56.5989C63.4151 56.5989 58.5916 56.9705 58.8664 55.8788L63.4151 56.5989Z" fill="black"/>
<path d="M69.549 24.4853C67.8609 23.9557 66.0419 24.0241 64.3984 24.6789C63.5592 25.0068 62.7876 25.4864 62.1221 26.0938C61.3193 26.8707 60.6555 27.7794 60.1594 28.7804C58.8238 31.3373 58.1309 34.384 56.2263 36.4454C54.9585 37.8177 53.2803 38.6017 51.6408 39.3488C50.673 39.7882 49.6743 40.2295 48.6271 40.3476C47.5799 40.4656 46.4554 40.2217 45.6753 39.4359C46.3489 40.3147 47.3264 40.8198 48.2942 41.236C52.104 42.8802 56.2723 43.5181 60.3994 43.0884C61.5608 42.9645 62.7221 42.7516 63.7983 42.2367C64.5726 41.8651 65.3236 41.2825 65.6294 40.4095C66.334 38.3965 64.3558 36.2596 64.7274 34.1362C64.921 33.0465 65.7126 32.2006 66.5953 31.678C67.4779 31.1554 68.4631 30.9038 69.4058 30.5554C70.3962 30.1544 71.3612 29.6935 72.2956 29.1753C72.7873 28.9159 73.2944 28.643 73.6505 28.1862C74.0067 27.7294 74.1828 27.0248 73.9177 26.5041C73.6525 25.9835 73.1163 25.7957 72.6189 25.6331L68.6064 24.3343" fill="#FE5858"/>
<path d="M19.0608 64.1129L100.956 57.3247L111.466 59.5139L110.81 74.1857L110.092 74.2729L109.277 96.3019L28.913 110.753L20.3732 103.528V79.6441L19.2796 79.0035L19.0608 64.1129Z" fill="#EDEDF4"/>
<path opacity="0.05" d="M18.9505 64.1129L19.1692 79.0035L28.0381 83.1631L28.1484 67.6163L18.9505 64.1129Z" fill="black"/>
<path opacity="0.05" d="M20.3733 79.6596L20.2649 103.09L28.8047 110.316L28.257 83.163L20.3733 79.6596Z" fill="black"/>
<path opacity="0.05" d="M109.984 75.1477L28.1911 85.1296L28.1486 83.2366L110.044 74.4044L109.984 75.1477Z" fill="black"/>
<path opacity="0.05" d="M20.3732 80.519V79.6596L28.4756 83.2366V85.1335L20.3732 80.519Z" fill="black"/>
<path d="M111.577 59.5139L101.066 57.3247L19.1693 64.1129L28.3672 67.6163L111.577 59.5139Z" fill="#F4F4F8"/>
<path d="M10.7145 94.3605C7.23275 94.3605 4.41024 93.324 4.41024 92.0455C4.41024 90.767 7.23275 89.7305 10.7145 89.7305C14.1962 89.7305 17.0187 90.767 17.0187 92.0455C17.0187 93.324 14.1962 94.3605 10.7145 94.3605Z" fill="#CD9494"/>
<path opacity="0.05" d="M10.7145 92.9688C8.93778 92.9688 7.49749 92.4402 7.49749 91.7881C7.49749 91.136 8.93778 90.6074 10.7145 90.6074C12.4911 90.6074 13.9314 91.136 13.9314 91.7881C13.9314 92.4402 12.4911 92.9688 10.7145 92.9688Z" fill="black"/>
<path d="M17.0168 91.5306C17.0168 91.5306 10.0699 95.3902 4.4083 92.0455C4.4083 92.0455 5.18255 105.424 9.0402 106.712H14.187C14.187 106.712 18.5614 97.7052 17.0168 91.5306Z" fill="#FF7361"/>
<path d="M5.26966 67.0143C3.50246 73.4773 11.0416 91.8887 11.0416 91.8887C11.0416 91.8887 26.9135 79.888 28.673 73.4173C29.4852 70.3258 29.0446 67.0387 27.4469 64.2703C25.8492 61.5018 23.2236 59.4757 20.1405 58.6322C17.0574 57.7887 13.766 58.1959 10.9815 59.7655C8.197 61.335 6.14438 63.94 5.26966 67.0143Z" fill="#FF630C"/>
<path d="M20.1079 58.5519C20.1079 58.5519 10.2364 73.456 10.9777 91.9255" stroke="#1C1C28" stroke-width="0.19356" stroke-miterlimit="10"/>
<path d="M2.74955 78.8273C2.74955 78.8273 11.7036 73.9573 10.5616 91.9371C10.5616 91.9371 3.09214 91.67 0.442301 85.5767C-0.0756359 84.3917 -0.14103 83.0579 0.258499 81.828C0.65803 80.598 1.49475 79.5572 2.61019 78.9028L2.74955 78.8273Z" fill="#FF630C"/>
<path d="M2.60234 78.8582C2.60234 78.8582 3.76369 88.1917 10.5693 91.9371" stroke="#1C1C28" stroke-width="0.19356" stroke-miterlimit="10"/>
<path opacity="0.05" d="M5.25233 92.483C5.51364 95.5606 6.58016 105.121 9.81262 106.197H14.4329C14.2858 106.526 14.1968 106.712 14.1968 106.712H9.04999C5.1904 105.424 4.4181 92.0455 4.4181 92.0455C4.68867 92.2052 4.96709 92.3512 5.25233 92.483Z" fill="black"/>
<path opacity="0.5" d="M113.893 19.5476H116.84V24.0943H113.893V19.5476Z" fill="#FF630C"/>
<path opacity="0.7" d="M108.841 15.5061H111.789V24.0944H108.841V15.5061Z" fill="#FF630C"/>
<path opacity="0.5" d="M103.789 17.9488H106.737V24.0963H103.789V17.9488Z" fill="#FF630C"/>
<path opacity="0.8" d="M98.735 14.1589H101.683V24.0943H98.735V14.1589Z" fill="#FF630C"/>
<path d="M93.683 10.6226H96.6309V24.0944H93.683V10.6226Z" fill="#FF630C"/>
<path d="M115.408 16.77L110.273 12.1381L105.219 16.5165L100.253 11.2129L95.2006 9.10699" stroke="#535461" stroke-width="0.38712" stroke-miterlimit="10"/>
<path d="M115.408 17.3604C115.082 17.3604 114.818 17.0961 114.818 16.77C114.818 16.444 115.082 16.1797 115.408 16.1797C115.734 16.1797 115.999 16.444 115.999 16.77C115.999 17.0961 115.734 17.3604 115.408 17.3604Z" fill="#FF630C"/>
<path d="M105.304 17.0236C104.978 17.0236 104.714 16.7593 104.714 16.4333C104.714 16.1072 104.978 15.8429 105.304 15.8429C105.63 15.8429 105.895 16.1072 105.895 16.4333C105.895 16.7593 105.63 17.0236 105.304 17.0236Z" fill="#FF630C"/>
<path d="M100.167 11.8033C99.8412 11.8033 99.5769 11.539 99.5769 11.2129C99.5769 10.8869 99.8412 10.6226 100.167 10.6226C100.493 10.6226 100.758 10.8869 100.758 11.2129C100.758 11.539 100.493 11.8033 100.167 11.8033Z" fill="#FF630C"/>
<path d="M110.273 12.6453C109.947 12.6453 109.683 12.381 109.683 12.0549C109.683 11.7289 109.947 11.4646 110.273 11.4646C110.599 11.4646 110.863 11.7289 110.863 12.0549C110.863 12.381 110.599 12.6453 110.273 12.6453Z" fill="#FF630C"/>
<path d="M95.2005 9.69735C94.8744 9.69735 94.6101 9.43304 94.6101 9.10699C94.6101 8.78094 94.8744 8.51663 95.2005 8.51663C95.5265 8.51663 95.7908 8.78094 95.7908 9.10699C95.7908 9.43304 95.5265 9.69735 95.2005 9.69735Z" fill="#FF630C"/>
<path d="M191.581 109.437C195.155 109.437 198.053 106.539 198.053 102.965C198.053 99.3913 195.155 96.494 191.581 96.494C188.007 96.494 185.11 99.3913 185.11 102.965C185.11 106.539 188.007 109.437 191.581 109.437Z" fill="#3F3D56"/>
<path d="M192.758 105.833C194.342 105.833 195.626 104.549 195.626 102.965C195.626 101.381 194.342 100.097 192.758 100.097C191.174 100.097 189.89 101.381 189.89 102.965C189.89 104.549 191.174 105.833 192.758 105.833Z" fill="#E6E6E6"/>
<path d="M187.5 107.488L201.619 113.371L201.178 114.768L193.052 113.849L179.3 107.745L186.948 108.628L187.5 107.488Z" fill="#3F3D56"/>
<path d="M199.981 113.106L217.541 55.5015L221.817 47.9072L221.833 47.8339C221.846 47.7669 222.16 46.1795 221.388 45.03C221.193 44.7443 220.942 44.5017 220.649 44.3174C220.357 44.1331 220.029 44.011 219.687 43.9588C217.327 43.5163 212.047 43.2982 211.824 43.2892L211.781 43.2874L211.74 43.2932C211.595 43.3128 208.221 43.8061 207.458 46.7527L203.787 53.4343L203.772 53.4818L187.153 108.121L188.067 108.399L204.673 53.8076L208.356 47.1035L208.371 47.0419C208.911 44.8245 211.489 44.3057 211.832 44.2464C212.372 44.2694 217.334 44.4902 219.511 44.8984C219.727 44.9279 219.935 45.0019 220.121 45.1158C220.307 45.2297 220.468 45.3809 220.592 45.56C221.068 46.2648 220.949 47.3025 220.907 47.5753L216.657 55.1231L216.642 55.1729L199.066 112.827L199.981 113.106Z" fill="#3F3D56"/>
<path d="M202.548 58.9586L202.378 59.8994L215.061 62.19L215.231 61.2492L202.548 58.9586Z" fill="#3F3D56"/>
<path d="M200.18 66.7825L199.988 67.7192L212.58 70.2892L212.772 69.3525L200.18 66.7825Z" fill="#3F3D56"/>
<path d="M195.962 80.7752L195.699 81.6942L207.993 85.212L208.256 84.2929L195.962 80.7752Z" fill="#3F3D56"/>
<path d="M204.276 107.896L204.625 107.006L192.692 102.334L192.106 95.989L203.243 100.149L206.851 105.37L207.638 104.826L203.859 99.3582L191.014 94.5604L191.794 103.009L204.276 107.896Z" fill="#3F3D56"/>
<path d="M208.421 115.614C211.996 115.614 214.893 112.717 214.893 109.143C214.893 105.569 211.996 102.671 208.421 102.671C204.847 102.671 201.95 105.569 201.95 109.143C201.95 112.717 204.847 115.614 208.421 115.614Z" fill="#3F3D56"/>
<path d="M210.113 112.305C211.697 112.305 212.981 111.021 212.981 109.437C212.981 107.853 211.697 106.569 210.113 106.569C208.529 106.569 207.245 107.853 207.245 109.437C207.245 111.021 208.529 112.305 210.113 112.305Z" fill="#E6E6E6"/>
<path d="M181.565 111.077L162.83 111.977L162.424 111.871L146.715 107.788L149.85 87.5656L169.896 87.292L183.81 91.1392L183.8 91.2293L183.795 91.2735L181.565 111.077Z" fill="#FF630C"/>
<path opacity="0.1" d="M181.565 111.077L162.83 111.977L162.424 111.871L165.637 91.1398L183.8 91.2292L181.565 111.077Z" fill="black"/>
<path opacity="0.05" d="M183.795 91.2735L183.789 91.2768L165.637 91.1398L149.85 87.5656L169.896 87.292L183.81 91.1392L183.8 91.2293L183.795 91.2735Z" fill="black"/>
<path d="M201.384 114.995L182.65 115.894L182.243 115.789L166.535 111.706L169.669 91.483L189.716 91.2094L203.63 95.0566L203.62 95.1466L203.614 95.1909L201.384 114.995Z" fill="#3F3D56"/>
<path opacity="0.05" d="M203.614 95.1909L203.608 95.1942L185.457 95.0572L169.669 91.483L189.716 91.2094L203.63 95.0566L203.62 95.1466L203.614 95.1909Z" fill="black"/>
<path d="M191.936 93.2441L173.201 94.1437L172.795 94.0384L157.086 89.9553L160.221 69.7326L180.268 69.4589L194.182 73.3061L194.172 73.3962L194.166 73.4404L191.936 93.2441Z" fill="#3F3D56"/>
<path opacity="0.1" d="M191.936 93.2441L173.201 94.1437L172.795 94.0384L176.009 73.3067L194.172 73.3962L191.936 93.2441Z" fill="black"/>
<path opacity="0.05" d="M194.166 73.4404L194.16 73.4437L176.009 73.3067L160.221 69.7326L180.268 69.4589L194.182 73.3061L194.172 73.3962L194.166 73.4404Z" fill="black"/>
<path d="M179.85 71.248L170.072 71.7173L169.859 71.6632L161.661 69.5317L163.297 58.9774L173.76 58.834L181.022 60.8429L181.017 60.8901L181.014 60.9121L179.85 71.248Z" fill="#3F3D56"/>
<path opacity="0.1" d="M179.85 71.248L170.072 71.7173L169.859 71.6632L171.536 60.8434L181.017 60.8901L179.85 71.248Z" fill="black"/>
<path opacity="0.05" d="M181.014 60.9121L181.01 60.9144L171.536 60.8434L163.297 58.9774L173.76 58.834L181.022 60.8429L181.017 60.8901L181.014 60.9121Z" fill="black"/>
<path d="M196.56 73.4155L186.782 73.8848L186.569 73.8307L178.371 71.6992L180.007 61.1449L190.469 61.0015L197.731 63.0104L197.727 63.0576L197.724 63.0796L196.56 73.4155Z" fill="#FF630C"/>
<path opacity="0.05" d="M197.724 63.0796L197.72 63.0819L188.246 63.0109L180.007 61.1449L190.469 61.0015L197.731 63.0104L197.727 63.0576L197.724 63.0796Z" fill="black"/>
<path d="M203.154 63.5903L193.376 64.0597L193.164 64.0055L184.965 61.874L186.601 51.3197L197.064 51.1763L204.326 53.1852L204.321 53.2324L204.318 53.2545L203.154 63.5903Z" fill="#3F3D56"/>
<path opacity="0.05" d="M204.318 53.2545L204.315 53.2568L194.841 53.1857L186.601 51.3197L197.064 51.1763L204.326 53.1852L204.321 53.2324L204.318 53.2545Z" fill="black"/>
<path d="M185.618 61.2949L175.841 61.7642L175.628 61.7101L167.43 59.5786L169.066 49.0243L179.528 48.8809L186.79 50.8898L186.786 50.937L186.782 50.959L185.618 61.2949Z" fill="#FF630C"/>
<path opacity="0.1" d="M185.619 61.2949L175.841 61.7642L175.628 61.7101L177.305 50.8903L186.786 50.937L185.619 61.2949Z" fill="black"/>
<path opacity="0.05" d="M186.782 50.959L186.779 50.9613L177.305 50.8903L169.066 49.0243L179.528 48.8809L186.79 50.8898L186.786 50.937L186.782 50.959Z" fill="black"/>
<path d="M192.192 51.6073L182.414 52.078L182.201 52.0225L174.003 49.891L175.639 39.3367L186.101 39.1933L193.363 41.2022L193.359 41.2494L193.356 41.2714L192.192 51.6073Z" fill="#3F3D56"/>
<path opacity="0.05" d="M193.356 41.2714L193.352 41.2737L183.878 41.2027L175.639 39.3367L186.101 39.1933L193.363 41.2022L193.359 41.2494L193.356 41.2714Z" fill="black"/>
<path d="M112.591 110.234C113.342 109.77 113.739 108.605 113.946 107.625L113.464 107.461C113.464 107.461 115.038 91.1591 115.386 90.292C115.735 89.4248 116.085 86.3027 116.085 86.3027L116.652 69.3004C114.041 68.3519 112.943 66.517 112.574 65.7137C112.44 65.4773 112.329 65.2291 112.241 64.9724C115.918 60.4644 118.882 48.3262 118.882 48.3262L118.384 47.0448L118.166 46.4816C117.436 49.5592 114.163 50.9335 114.163 50.9335L114.211 50.4825C114.082 50.5464 114.002 50.5812 113.991 50.5851C113.303 51.0941 112.574 51.3593 111.89 51.1077C109.746 50.2889 109.781 46.5358 109.792 46.1177C109.792 45.8758 109.792 45.7306 109.792 45.7306L111.892 37.9262C111.947 38.3206 112.037 38.7093 112.161 39.0876C112.283 37.4714 112.438 34.4422 112.067 32.7214C111.654 30.809 115.686 32.1252 116.733 34.3802C117.106 33.8789 117.587 33.4686 118.141 33.1803C118.695 32.8919 119.307 32.7331 119.931 32.7156C123.585 32.5588 126.084 30.2497 126.512 29.8335C126.606 29.4384 126.677 29.0384 126.727 28.6354C126.016 27.9992 125.476 27.1945 125.157 26.2951C124.838 25.3958 124.75 24.4307 124.902 23.4886C124.808 23.4464 124.716 23.3992 124.627 23.3473C123.33 22.5731 122.914 20.9143 122.832 19.4161C122.832 19.3387 122.832 19.2554 122.832 19.1722C122.813 18.6748 122.927 18.0592 123.413 17.9586C124.05 17.825 124.516 18.7832 125.155 18.6806C125.351 18.6343 125.528 18.5281 125.66 18.3767C126.1 17.9412 126.396 17.3818 126.831 16.9463C127.482 16.2959 128.407 15.9649 129.328 15.8856C130.252 15.8357 131.178 15.9225 132.077 16.143C132.572 16.2238 133.05 16.386 133.492 16.623C133.711 16.7419 133.9 16.9077 134.048 17.1084C134.195 17.3092 134.296 17.54 134.343 17.7844C134.356 17.8897 134.359 17.9959 134.353 18.1018C134.353 18.2625 134.353 18.427 134.34 18.5877C134.342 18.6579 134.35 18.7278 134.363 18.7967C134.456 19.2516 134.831 19.6 135.232 19.8381C135.633 20.0761 136.08 20.2426 136.457 20.5155C137.06 20.9798 137.479 21.6431 137.64 22.3872C137.737 22.8066 137.781 23.2364 137.771 23.6667C137.776 24.0549 137.754 24.443 137.704 24.828C137.544 26.1237 137.18 27.3859 136.626 28.5676C136.443 28.9832 136.207 29.3735 135.925 29.729C135.51 30.1808 135.034 30.5718 134.51 30.8903C134.297 31.0336 134.043 31.1807 133.8 31.1013C133.728 31.0748 133.663 31.0355 133.606 30.9852C133.246 30.6871 133.124 30.2109 133.136 29.7348C133.136 29.7851 133.12 29.8374 133.114 29.8858L133.08 29.9012C133.054 30.2143 133.054 30.5289 133.08 30.8419C133.403 31.1168 135.596 32.944 138.05 33.9544C138.881 34.2988 139.625 34.8238 140.227 35.4914C140.83 36.159 141.276 36.9524 141.534 37.814C141.905 39.0779 142.459 40.2805 143.179 41.3832C143.53 41.9039 145.102 49.0134 146.151 50.4012C147.027 51.5625 143.499 57.95 140.992 60.4044L140.88 60.5108C140.299 61.1186 139.765 61.5425 139.331 61.6722C139.393 61.279 139.426 60.8817 139.428 60.4837C139.144 60.8708 138.869 61.2483 138.621 61.6219C138.724 62.1696 138.844 62.7077 138.983 63.2323C140.725 69.8133 139.682 69.9953 139.682 69.9953C139.682 69.9953 139.63 70.0204 139.539 70.0553C139.448 70.3204 139.333 70.3417 139.333 70.3417C139.333 70.3417 139.279 70.3688 139.181 70.4056C139.138 77.9951 137.936 86.2969 137.936 86.2969C137.936 86.2969 138.985 96.7027 138.46 98.6092C137.936 100.516 138.46 108.674 138.46 108.674L138.102 108.769C138.296 109.799 138.683 111.063 139.51 111.796C141.083 113.184 142.655 115.612 140.559 116.304C138.462 116.997 135.665 116.479 135.317 114.396L135.143 112.836L132.696 111.969L133.114 109.065C132.425 107.964 133.221 102.43 133.221 102.43C133.221 102.43 132.696 100.522 131.998 89.2506C131.978 88.9332 131.955 88.6254 131.932 88.3196C131.932 88.2305 131.918 88.1434 131.91 88.0563C131.891 87.8254 131.87 87.5976 131.848 87.3731C131.848 87.2957 131.833 87.2163 131.825 87.1389C131.796 86.8505 131.765 86.5582 131.732 86.2853C131.732 86.2427 131.721 86.2001 131.717 86.1575C131.687 85.9188 131.657 85.6839 131.626 85.453L131.593 85.2129C131.563 85.0026 131.532 84.7961 131.5 84.5935C131.5 84.5335 131.483 84.4735 131.473 84.4155C131.432 84.1574 131.389 83.9077 131.345 83.6664L131.314 83.5019C131.279 83.3096 131.243 83.1199 131.206 82.9328L131.163 82.7218C131.123 82.5257 131.083 82.3321 131.041 82.1411L131.018 82.0328C130.968 81.8102 130.917 81.5934 130.867 81.3824L130.826 81.214C130.786 81.0527 130.746 80.8946 130.706 80.7398L130.66 80.5636C130.608 80.3701 130.555 80.1765 130.501 79.983V79.9675C130.447 79.7739 130.391 79.592 130.335 79.41L130.286 79.2532C130.244 79.1177 130.201 78.9848 130.159 78.8545L130.112 78.7151C130.056 78.5467 130 78.3822 129.944 78.2235L129.919 78.1557C129.87 78.019 129.821 77.8854 129.772 77.7551L129.721 77.6215C129.677 77.5054 129.633 77.3925 129.59 77.2828L129.549 77.1821C129.493 77.0441 129.438 76.9105 129.383 76.7815L129.346 76.6963C129.302 76.5944 129.258 76.495 129.214 76.3982L129.164 76.2879C129.119 76.1898 129.074 76.0943 129.03 76.0014L129.003 75.9414C128.951 75.8311 128.899 75.7266 128.848 75.6259L128.806 75.5446L128.693 75.3259L128.649 75.2427L128.517 74.9988V74.9814L128.384 74.7472L128.345 74.6813C128.139 74.3157 127.905 73.9663 127.646 73.6361C127.646 73.6361 121.505 88.5577 121.673 91.1552C121.841 93.7528 120.624 99.4783 120.624 99.4783C120.624 99.4783 120.099 101.387 119.925 102.6C119.776 103.632 118.87 107.668 118.603 108.858L118.561 109.052V109.073L118.549 109.125V109.154V109.172L118.719 111.276L116.447 112.664C115.224 116.132 112.603 115.954 110.505 115.091C108.406 114.228 111.194 111.092 112.591 110.234ZM115.15 39.6954L115.177 39.6721V39.6392L115.15 39.6954ZM138.042 55.2324C138.168 55.1279 138.298 55.0118 138.43 54.8879C138.577 54.7331 138.72 54.5685 138.853 54.3943L138.76 54.495C138.625 54.6227 138.49 54.7427 138.36 54.8492C138.34 52.8611 138.42 50.8734 138.6 48.8933C138.515 48.7501 138.437 48.6243 138.368 48.5198C138.128 50.7491 138.02 52.9905 138.042 55.2324Z" fill="url(#paint2_linear)"/>
<path d="M133.182 28.6953V28.7379L133.223 28.6779L133.182 28.6953ZM138.468 54.342C139.171 53.5949 139.802 52.6174 139.721 51.5625C139.593 49.9115 138.823 48.5372 138.406 47.9042C138.166 50.1574 138.057 52.4227 138.079 54.6885C138.205 54.584 138.337 54.4659 138.468 54.342ZM115.135 38.9327L115.106 38.985L115.133 38.9618L115.135 38.9327Z" fill="url(#paint3_linear)"/>
<path d="M114.542 104.898C114.542 104.898 114.372 108.128 113.013 108.978C111.655 109.828 108.933 112.888 110.973 113.738C113.013 114.588 115.563 114.758 116.753 111.359L118.963 110.004L118.623 105.746L114.542 104.898Z" fill="#1A2246"/>
<path d="M137.661 105.914C137.661 105.914 137.661 109.145 139.19 110.503C140.719 111.862 142.251 114.243 140.21 114.922C138.17 115.602 135.451 115.093 135.11 113.053L134.94 111.524L132.561 110.674L133.24 105.914H137.661Z" fill="#1A2246"/>
<path d="M117.092 64.9491L116.412 85.5168C116.412 85.5168 116.072 88.577 115.733 89.4267C115.394 90.2765 113.863 106.253 113.863 106.253L118.793 107.952C118.793 107.952 119.983 102.684 120.148 101.493C120.312 100.303 120.827 98.4331 120.827 98.4331C120.827 98.4331 122.018 92.8199 121.847 90.2745C121.677 87.7292 127.627 73.1058 127.627 73.1058C127.627 73.1058 131.196 77.3641 131.885 88.397C132.574 99.4299 133.076 101.315 133.076 101.315C133.076 101.315 132.226 107.265 133.076 107.945C133.925 108.624 138.176 107.436 138.176 107.436C138.176 107.436 137.667 99.4473 138.176 97.5776C138.685 95.7078 137.667 85.5091 137.667 85.5091C137.667 85.5091 140.89 63.089 136.81 58.6604L119.132 57.4758L117.092 64.9491Z" fill="#3B477B"/>
<g opacity="0.1">
<path opacity="0.1" d="M114.883 106.253C114.883 106.253 116.412 90.2745 116.753 89.4248C117.093 88.5751 117.432 85.5149 117.432 85.5149L118.111 64.9492L120.125 57.5377L119.124 57.47L117.084 64.9492L116.404 85.5168C116.404 85.5168 116.064 88.577 115.725 89.4268C115.386 90.2765 113.863 106.253 113.863 106.253L118.793 107.952L118.866 107.625L114.883 106.253Z" fill="black"/>
<path opacity="0.1" d="M134.09 107.954C133.24 107.275 134.09 101.325 134.09 101.325C134.09 101.325 133.581 99.4551 132.9 88.4067C132.218 77.3583 128.641 73.1154 128.641 73.1154C128.641 73.1154 128.498 73.4658 128.254 74.0678C129.313 75.8601 131.368 80.3062 131.866 88.4144C132.545 99.4628 133.056 101.333 133.056 101.333C133.056 101.333 132.207 107.283 133.056 107.962C133.321 108.175 133.92 108.204 134.614 108.146C134.426 108.128 134.246 108.062 134.09 107.954Z" fill="black"/>
</g>
<path d="M126.611 24.8338C126.611 24.8338 127.966 30.9523 124.232 34.1828C120.498 37.4133 133.072 39.9625 135.28 37.243C137.489 34.5234 133.751 33.1627 133.751 33.1627C133.751 33.1627 131.882 31.6336 133.751 27.0443L126.611 24.8338Z" fill="#FFC0C6"/>
<path d="M125.591 31.6336L130.01 36.3932L133.436 31.833L136.3 45.5757L135.28 61.5406C135.28 61.5406 127.122 63.751 122.532 59.5004L123.887 44.7125L125.591 31.6336Z" fill="#F0F1F5"/>
<path opacity="0.1" d="M125.252 60.8708L124.576 63.089C124.576 63.089 132.565 64.4439 135.286 63.7684L134.607 61.3896C134.607 61.3896 127.122 63.2497 125.252 60.8708Z" fill="black"/>
<path d="M125.252 60.5302L124.576 62.7406C124.576 62.7406 132.565 64.0955 135.286 63.42L134.607 61.0412C134.607 61.0412 127.122 62.909 125.252 60.5302Z" fill="#1A2246"/>
<path opacity="0.1" d="M126.781 30.4432C126.781 30.4432 124.232 33.1627 120.322 33.3331C116.412 33.5034 115.903 38.263 115.903 38.263L114.548 50.8444C114.548 50.8444 117.779 49.4895 118.458 46.4255L119.308 48.6359C119.308 48.6359 116.418 60.534 112.849 64.955C112.849 64.955 114.378 70.0553 121.857 69.3739C121.857 69.3739 125.937 67.5041 125.767 62.7445L127.093 55.2924C127.563 52.6747 127.758 50.0148 127.674 47.3565L126.781 30.4432Z" fill="black"/>
<path d="M126.611 30.1025C126.611 30.1025 124.062 32.8221 120.152 32.9924C116.242 33.1627 115.733 37.9262 115.733 37.9262L114.378 50.5076C114.378 50.5076 117.608 49.1527 118.288 46.0887L119.137 48.2991C119.137 48.2991 116.242 60.1856 112.673 64.6104C112.673 64.6104 114.202 69.7107 121.681 69.0294C121.681 69.0294 125.761 67.1596 125.591 62.4L126.926 54.9595C127.397 52.3418 127.591 49.6819 127.507 47.0236L126.611 30.1025Z" fill="#293158"/>
<path opacity="0.1" d="M132.948 31.2697C132.948 31.2697 134.851 33.4763 137.439 34.5505C138.247 34.8912 138.97 35.4075 139.555 36.0619C140.14 36.7164 140.572 37.4927 140.82 38.3346C141.179 39.5727 141.719 40.7511 142.421 41.8323C142.761 42.3413 144.291 49.3114 145.311 50.6721C146.331 52.0329 141.23 60.7005 139.022 61.3818C139.022 61.3818 139.872 56.6222 136.473 56.1131C136.473 56.1131 139.533 54.2433 139.362 52.0329C139.192 49.8224 137.833 48.123 137.833 48.123C137.833 48.123 136.643 56.7925 138.342 63.2516C140.042 69.7107 139.022 69.881 139.022 69.881C139.022 69.881 132.054 73.2799 133.072 57.2996C134.09 41.3193 133.242 35.3712 133.242 35.3712L132.948 31.2697Z" fill="black"/>
<path d="M139.361 61.0392C139.361 61.0392 140.032 57.2784 137.793 56.086C137.866 58.3371 138.11 60.7469 138.679 62.909C140.379 69.3681 139.359 69.5384 139.359 69.5384C139.181 69.6208 138.995 69.6856 138.805 69.732C137.175 70.1404 132.567 70.1617 133.411 56.957C134.431 40.9787 133.581 35.0286 133.581 35.0286L132.901 31.1187C132.901 31.1187 135.191 33.1317 137.779 34.206C138.588 34.5468 139.311 35.0631 139.896 35.7175C140.481 36.372 140.913 37.1482 141.161 37.9901C141.521 39.2278 142.06 40.4061 142.761 41.4877C143.102 41.9968 144.631 48.9669 145.651 50.3276C146.505 51.4657 143.071 57.7255 140.634 60.1314C140.158 60.6056 139.721 60.9289 139.361 61.0392ZM139.455 52.9852C139.642 52.5803 139.726 52.1354 139.699 51.6903C139.573 50.0605 138.799 48.7075 138.404 48.1113C138.263 47.8984 138.17 47.7823 138.17 47.7823C137.875 50.198 137.741 52.6306 137.769 55.064C138.364 54.5724 139.082 53.833 139.455 52.9871V52.9852Z" fill="#293158"/>
<path opacity="0.1" d="M130.521 30.7839C131.369 30.7851 132.206 30.5931 132.969 30.2225C133.099 29.2463 133.36 28.2919 133.743 27.385L126.605 25.1745C126.866 26.5454 126.916 27.9482 126.752 29.3341C127.784 30.2702 129.128 30.7872 130.521 30.7839Z" fill="black"/>
<path d="M130.521 30.4432C127.423 30.4432 124.911 27.9318 124.911 24.8338C124.911 21.7359 127.423 19.2245 130.521 19.2245C133.619 19.2245 136.13 21.7359 136.13 24.8338C136.13 27.9318 133.619 30.4432 130.521 30.4432Z" fill="#FFC0C6"/>
<g opacity="0.1">
<path opacity="0.1" d="M113.35 64.6104C116.919 60.1915 119.809 48.2914 119.809 48.2914L118.963 46.0809C118.89 46.4084 118.785 46.728 118.65 47.0352L119.134 48.2914C119.134 48.2914 116.242 60.1856 112.673 64.6104C112.673 64.6104 114.068 69.2559 120.69 69.0836C114.653 68.9249 113.35 64.6104 113.35 64.6104Z" fill="black"/>
</g>
<path d="M112.502 40.3031C112.502 40.3031 113.011 35.3731 112.502 32.9943C111.993 30.6154 118.452 33.335 117.092 36.5635C115.731 39.7921 114.372 41.6638 114.372 41.6638L112.502 40.3031Z" fill="#FFC0C6"/>
<path opacity="0.1" d="M112.334 38.0927L110.294 45.7422C110.294 45.7422 110.123 49.8224 112.334 50.6722C114.544 51.5219 117.264 46.5919 117.264 46.5919L115.909 39.4534C115.909 39.4534 113.013 42.682 112.334 38.0927Z" fill="black"/>
<path d="M112.334 38.4333L110.294 46.0828C110.294 46.0828 110.123 50.1631 112.334 51.0128C114.544 51.8625 117.264 46.9326 117.264 46.9326L115.909 39.7941C115.909 39.7941 113.013 43.0227 112.334 38.4333Z" fill="#293158"/>
<path opacity="0.02" d="M112.334 38.4333L110.294 46.0828C110.294 46.0828 110.123 50.1631 112.334 51.0128C114.544 51.8625 117.264 46.9326 117.264 46.9326L115.909 39.7941C115.909 39.7941 113.013 43.0227 112.334 38.4333Z" fill="black"/>
<path opacity="0.1" d="M138.679 62.909C140.379 69.3681 139.359 69.5385 139.359 69.5385C139.181 69.6208 138.996 69.6856 138.805 69.732C137.092 66.2847 136.802 60.654 136.951 55.7957C136.951 55.757 136.951 55.7183 136.951 55.6776C137.053 52.609 137.316 49.5478 137.739 46.5067C137.932 46.6751 138.161 47.2558 138.399 48.1114C138.257 47.8984 138.165 47.7823 138.165 47.7823C137.87 50.198 137.736 52.6306 137.764 55.064C137.737 55.4053 137.745 55.7483 137.787 56.088C137.866 58.3371 138.11 60.747 138.679 62.909Z" fill="black"/>
<path d="M139.454 59.7656L139.26 60.0095C138.608 60.8323 138.04 61.718 137.564 62.6535C136.546 64.8659 133.004 58.8172 136.028 57.0403C136.523 56.7519 136.995 56.4906 137.44 56.266L137.783 56.0899C139.181 56.8293 139.452 58.5597 139.454 59.7656Z" fill="#FFC0C6"/>
<path opacity="0.1" d="M139.454 59.7656L139.26 60.0095C139.26 60.0095 139.181 56.8428 137.439 56.2641L137.781 56.088C139.181 56.8293 139.452 58.5597 139.454 59.7656Z" fill="black"/>
<path opacity="0.1" d="M130.453 23.2892C130.137 23.1808 129.806 23.0086 129.485 23.115C129.339 23.1739 129.207 23.2637 129.098 23.3783C128.655 23.7964 128.217 24.2822 127.623 24.4119C127.256 24.4678 126.881 24.4514 126.52 24.3635C125.893 24.2532 125.248 24.1351 124.702 23.8099C123.44 23.057 123.038 21.4233 122.96 19.9561C122.933 19.4625 123.036 18.8238 123.52 18.7212C124.139 18.5896 124.592 19.5303 125.217 19.4277C125.408 19.3818 125.58 19.2777 125.709 19.1296C126.135 18.7038 126.423 18.1618 126.849 17.7263C127.512 17.1072 128.371 16.7395 129.276 16.6869C130.175 16.6377 131.077 16.7225 131.951 16.9385C132.433 17.0178 132.898 17.1767 133.327 17.4089C133.541 17.5266 133.726 17.6903 133.87 17.888C134.013 18.0858 134.111 18.3128 134.156 18.5528C134.198 18.8819 134.109 19.2206 134.175 19.5438C134.266 19.991 134.63 20.3297 135.021 20.5658C135.412 20.802 135.846 20.953 136.213 21.2298C136.801 21.6862 137.208 22.3354 137.363 23.0628C137.514 23.7862 137.535 24.5308 137.425 25.2616C137.272 26.5307 136.921 27.7679 136.384 28.9276C136.206 29.3339 135.977 29.7157 135.702 30.0638C135.3 30.5076 134.836 30.8921 134.326 31.2058C134.119 31.3452 133.871 31.4904 133.635 31.4129C133.564 31.3874 133.498 31.3487 133.442 31.2987C132.96 30.8961 132.913 30.1664 133.054 29.5567C133.196 28.947 133.463 28.3566 133.492 27.7295C133.51 27.5535 133.475 27.3761 133.391 27.2204C133.29 27.0943 133.176 26.9795 133.051 26.8778C132.884 26.6904 132.752 26.4739 132.663 26.2391C132.406 25.6584 132.145 25.0487 132.083 24.408C132.028 23.8834 132.143 23.355 132.41 22.9002C132.149 23.1351 131.829 23.2953 131.485 23.3638C131.14 23.4322 130.784 23.4065 130.453 23.2892Z" fill="black"/>
<path d="M130.407 23.0685C130.092 22.9601 129.761 22.7878 129.439 22.8943C129.293 22.9531 129.161 23.0429 129.052 23.1575C128.609 23.5756 128.172 24.0614 127.577 24.1911C127.21 24.247 126.835 24.2306 126.474 24.1427C125.847 24.0324 125.202 23.9143 124.657 23.5891C123.395 22.8362 122.992 21.2025 122.915 19.7354C122.887 19.2418 122.99 18.603 123.474 18.5004C124.093 18.3688 124.546 19.3095 125.171 19.2069C125.362 19.1611 125.534 19.0569 125.663 18.9089C126.089 18.483 126.377 17.9411 126.803 17.5056C127.466 16.8864 128.325 16.5187 129.23 16.4661C130.13 16.4169 131.031 16.5018 131.905 16.7178C132.387 16.797 132.852 16.956 133.282 17.1881C133.496 17.3059 133.681 17.4695 133.824 17.6673C133.967 17.865 134.065 18.0921 134.11 18.3321C134.153 18.6611 134.064 18.9998 134.129 19.3231C134.22 19.7702 134.584 20.1089 134.975 20.3451C135.366 20.5812 135.8 20.7322 136.168 21.009C136.755 21.4655 137.162 22.1146 137.317 22.842C137.469 23.5654 137.49 24.3101 137.379 25.0408C137.227 26.3099 136.875 27.5471 136.338 28.7069C136.16 29.1131 135.931 29.495 135.657 29.8431C135.254 30.2868 134.791 30.6713 134.28 30.9851C134.073 31.1244 133.826 31.2696 133.589 31.1922C133.518 31.1666 133.453 31.1279 133.396 31.078C132.914 30.6754 132.867 29.9457 133.009 29.3359C133.15 28.7262 133.417 28.1359 133.446 27.5087C133.465 27.3328 133.429 27.1554 133.345 26.9997C133.245 26.8736 133.13 26.7587 133.005 26.6571C132.838 26.4696 132.707 26.2531 132.618 26.0183C132.36 25.4376 132.099 24.8279 132.037 24.1872C131.982 23.6626 132.097 23.1342 132.364 22.6794C132.103 22.9144 131.784 23.0745 131.439 23.143C131.095 23.2115 130.738 23.1857 130.407 23.0685Z" fill="#FF630C"/>
<path d="M44.6991 88.6158L48.1765 88.1416L44.9372 96.0659L50.3643 95.3257L49.306 97.9146L40.4015 99.129L44.6991 88.6158ZM55.0929 87.1983L58.2171 86.7722L57.4051 88.7587L54.2808 89.1848L55.0929 87.1983ZM53.9085 90.0955L57.0328 89.6694L53.9195 97.2854L50.7953 97.7115L53.9085 90.0955ZM58.0998 89.5239L61.3546 89.08L60.963 93.6907L64.5709 88.6414L67.7259 88.2111L61.1506 96.2992L58.3794 96.6772L58.0998 89.5239ZM68.6701 88.0824L71.5948 87.6835L71.0847 88.9313C71.587 88.3527 72.0276 87.9427 72.4065 87.7014C72.7924 87.4547 73.2055 87.3013 73.6456 87.2413C74.1062 87.1785 74.5555 87.2436 74.9937 87.4366L73.1763 89.6482C72.8665 89.5551 72.6041 89.5231 72.3892 89.5524C71.9798 89.6083 71.598 89.8093 71.2438 90.1556C70.7397 90.6442 70.2384 91.498 69.74 92.7171L68.6964 95.2701L65.5568 95.6983L68.6701 88.0824ZM76.9243 84.221L80.0486 83.7949L79.2365 85.7813L76.1123 86.2074L76.9243 84.221ZM75.74 87.1182L78.8642 86.6921L75.7509 94.308L72.6267 94.7341L75.74 87.1182Z" fill="black"/>
<rect width="22.4777" height="21.1555" transform="matrix(0.990828 -0.135129 -0.378389 0.925647 85.7952 79.2351)" fill="#FF630C"/>
<path d="M89.1424 82.5546L92.2743 82.1275L87.9767 92.6406L84.8448 93.0678L89.1424 82.5546ZM92.4564 84.8383L95.7572 84.3882L95.3657 89.229L98.9966 83.9464L102.075 83.5266L95.5158 92.1068C94.7682 93.0845 94.136 93.7621 93.6193 94.1396C92.8892 94.6725 91.9689 95.0147 90.8584 95.1661C90.4081 95.2276 89.7355 95.2651 88.8408 95.2788L89.4277 93.2756C89.8234 93.3481 90.2975 93.3466 90.8502 93.2712C91.2187 93.221 91.5477 93.1016 91.8374 92.9131C92.1322 92.724 92.442 92.4154 92.7667 91.9874L92.4564 84.8383Z" fill="white"/>
<defs>
<linearGradient id="paint0_linear" x1="104.941" y1="34.0356" x2="104.941" y2="0" gradientUnits="userSpaceOnUse">
<stop stop-color="#808080" stop-opacity="0.25"/>
<stop offset="0.54" stop-color="#808080" stop-opacity="0.12"/>
<stop offset="1" stop-color="#808080" stop-opacity="0.1"/>
</linearGradient>
<linearGradient id="paint1_linear" x1="-37056.3" y1="17112.5" x2="-37056.3" y2="9062.54" gradientUnits="userSpaceOnUse">
<stop stop-color="#808080" stop-opacity="0.25"/>
<stop offset="0.54" stop-color="#808080" stop-opacity="0.12"/>
<stop offset="1" stop-color="#808080" stop-opacity="0.1"/>
</linearGradient>
<linearGradient id="paint2_linear" x1="-9765.28" y1="70664.3" x2="-9765.28" y2="18246.6" gradientUnits="userSpaceOnUse">
<stop stop-color="#808080" stop-opacity="0.25"/>
<stop offset="0.54" stop-color="#808080" stop-opacity="0.12"/>
<stop offset="1" stop-color="#808080" stop-opacity="0.1"/>
</linearGradient>
<linearGradient id="paint3_linear" x1="9394.13" y1="9954.32" x2="9394.13" y2="6459.02" gradientUnits="userSpaceOnUse">
<stop stop-color="#808080" stop-opacity="0.25"/>
<stop offset="0.54" stop-color="#808080" stop-opacity="0.12"/>
<stop offset="1" stop-color="#808080" stop-opacity="0.1"/>
</linearGradient>
</defs>
</svg>
