<svg width="192" height="134" viewBox="0 0 192 134" fill="none" xmlns="http://www.w3.org/2000/svg">
<path d="M191.165 31.4671H190.438V11.5357C190.438 8.47627 189.222 5.54211 187.059 3.37874C184.896 1.21537 181.961 0 178.902 0H136.675C133.615 0 130.681 1.21537 128.518 3.37874C126.354 5.54211 125.139 8.47627 125.139 11.5357V120.881C125.139 123.94 126.354 126.874 128.518 129.038C130.681 131.201 133.615 132.416 136.675 132.416H178.902C181.961 132.416 184.896 131.201 187.059 129.038C189.222 126.874 190.438 123.94 190.438 120.881V45.6545H191.165V31.4671Z" fill="#3F3D56"/>
<path d="M71.9034 133.506C111.615 133.506 143.807 132.022 143.807 130.191C143.807 128.36 111.615 126.876 71.9034 126.876C32.1923 126.876 0 128.36 0 130.191C0 132.022 32.1923 133.506 71.9034 133.506Z" fill="#3F3D56"/>
<path d="M68.0707 127.239L47.2337 131.501L46.7601 131.454L28.4488 129.607V106.402L50.8644 102.614L67.1236 104.508L67.1283 104.611L67.1299 104.661L68.0707 127.239Z" fill="#FF630C"/>
<path opacity="0.1" d="M68.0707 127.239L47.2337 131.501L46.7602 131.454V107.665L67.1283 104.611L68.0707 127.239Z" fill="black"/>
<path d="M90.9597 128.186L70.1227 132.449L69.6492 132.401L51.3379 130.554V107.349L73.7534 103.561L90.0126 105.455L90.0173 105.558L90.0189 105.608L90.9597 128.186Z" fill="#3F3D56"/>
<path d="M76.595 105.455L55.7579 109.717L55.2844 109.67L36.9731 107.823V84.6182L59.3886 80.8296L75.6478 82.7239L75.6525 82.8265L75.6541 82.877L76.595 105.455Z" fill="#3F3D56"/>
<path opacity="0.1" d="M76.5948 105.455L55.7578 109.717L55.2842 109.67V85.881L75.6524 82.8265L76.5948 105.455Z" fill="black"/>
<path d="M59.2306 82.907L48.3559 85.1312L48.1081 85.1075L38.5515 84.143V72.0323L50.2502 70.0544L58.7366 71.0441L58.7397 71.0978V71.123L59.2306 82.907Z" fill="#3F3D56"/>
<path opacity="0.1" d="M59.2307 82.907L48.356 85.1312L48.1081 85.1075V72.6921L58.7397 71.0978L59.2307 82.907Z" fill="black"/>
<path d="M79.0905 81.9562L68.2157 84.1804L67.9679 84.1567L58.4113 83.1922V71.0815L70.11 69.1035L78.5964 70.0933L78.5995 70.147V70.1722L79.0905 81.9562Z" fill="#FF630C"/>
<path d="M84.0141 70.2785L73.1394 72.5027L72.8915 72.479L63.3349 71.5145V59.4038L75.0336 57.4259L83.52 58.4156L83.5231 58.4693V58.4945L84.0141 70.2785Z" fill="#3F3D56"/>
<path d="M63.9663 70.7521L53.0916 72.9763L52.8438 72.9526L43.2872 71.9881V59.8774L54.9859 57.8994L63.4722 58.8892L63.4754 58.9429V58.9681L63.9663 70.7521Z" fill="#FF630C"/>
<path opacity="0.1" d="M63.9663 70.7521L53.0916 72.9763L52.8438 72.9526V60.5372L63.4754 58.9429L63.9663 70.7521Z" fill="black"/>
<path d="M69.6493 58.755L58.7746 60.9808L58.5267 60.9555L48.9701 59.991V47.8803L60.6689 45.9024L69.1552 46.8921L69.1583 46.9458V46.9711L69.6493 58.755Z" fill="#3F3D56"/>
<path d="M94.3232 41.8469C94.2015 42.9304 93.3747 43.8039 93.068 44.8474C92.6079 46.4226 93.4013 48.1146 94.4949 49.3481C95.3761 50.3282 96.4431 51.1237 97.634 51.6885C98.8249 52.2534 100.116 52.5763 101.433 52.6386C101.819 52.6719 102.209 52.6294 102.579 52.5136C102.909 52.3793 103.207 52.1758 103.451 51.9168C104.271 51.0917 104.713 49.9498 104.888 48.798C105.063 47.6461 104.996 46.4743 104.928 45.3124C104.928 45.072 104.884 44.8336 104.798 44.609C104.687 44.3954 104.533 44.2066 104.346 44.0539C103.755 43.5106 103.104 43.0369 102.404 42.642C102.104 42.4753 101.783 42.3086 101.591 42.0203C101.459 41.7906 101.374 41.5375 101.339 41.2751L101.124 40.1816C101.086 39.8663 100.979 39.5634 100.809 39.2948C100.431 38.7848 99.7057 38.7147 99.0706 38.6897L96.7369 38.5981C96.0118 38.5697 95.0583 38.3613 94.3498 38.5047C93.6831 38.6364 93.9081 39.2465 94.0281 39.7999C94.2017 40.4693 94.3007 41.1558 94.3232 41.8469Z" fill="#FFC0C6"/>
<path opacity="0.1" d="M94.3232 41.8469C94.2015 42.9304 93.3747 43.8039 93.068 44.8474C92.6079 46.4226 93.4013 48.1146 94.4949 49.3481C95.3761 50.3282 96.4431 51.1237 97.634 51.6885C98.8249 52.2534 100.116 52.5763 101.433 52.6386C101.819 52.6719 102.209 52.6294 102.579 52.5136C102.909 52.3793 103.207 52.1758 103.451 51.9168C104.271 51.0917 104.713 49.9498 104.888 48.798C105.063 47.6461 104.996 46.4743 104.928 45.3124C104.928 45.072 104.884 44.8336 104.798 44.609C104.687 44.3954 104.533 44.2066 104.346 44.0539C103.755 43.5106 103.104 43.0369 102.404 42.642C102.104 42.4753 101.783 42.3086 101.591 42.0203C101.459 41.7906 101.374 41.5375 101.339 41.2751L101.124 40.1816C101.086 39.8663 100.979 39.5634 100.809 39.2948C100.431 38.7848 99.7057 38.7147 99.0706 38.6897L96.7369 38.5981C96.0118 38.5697 95.0583 38.3613 94.3498 38.5047C93.6831 38.6364 93.9081 39.2465 94.0281 39.7999C94.2017 40.4693 94.3007 41.1558 94.3232 41.8469Z" fill="black"/>
<path d="M109.144 90.6479L108.154 101.503C107.895 104.35 107.632 107.209 107.125 110.019C106.958 110.988 106.745 111.951 106.502 112.906C105.825 115.558 104.843 118.151 104.526 120.869C104.516 120.948 104.508 121.036 104.5 121.108C104.435 121.708 104.378 122.314 104.166 122.875C104 123.29 103.765 123.668 103.593 124.078C103.26 124.898 103.206 125.805 103.165 126.694C101.963 126.015 100.647 125.563 99.2823 125.36C98.6155 125.262 97.8904 125.193 97.4486 124.693C96.9486 124.15 97.0069 123.318 97.0903 122.588C97.3525 120.321 97.6137 118.055 97.8737 115.79C97.9604 114.816 98.1277 113.85 98.3738 112.903C98.4638 112.588 98.5722 112.278 98.6822 111.968C98.8339 111.541 98.9872 111.114 99.1022 110.676C99.2618 109.972 99.372 109.257 99.4323 108.537C99.7007 106.257 100.024 103.982 100.307 101.703L100.322 101.583C100.747 98.129 101.071 94.6585 100.978 91.1796C100.964 90.6645 100.943 90.1495 100.909 89.6327C100.863 88.8843 100.794 88.4875 101.409 88.0191C102.094 87.5024 102.996 87.1407 103.78 86.8023C104.201 86.6189 108.845 84.9686 108.947 85.332C109.163 86.1039 109.275 86.901 109.281 87.7024C109.29 88.686 109.244 89.6694 109.144 90.6479Z" fill="#605D82"/>
<path opacity="0.1" d="M107.125 110.019C106.959 110.988 106.745 111.951 106.502 112.906C105.825 115.558 104.843 118.151 104.527 120.869C104.517 120.948 104.508 121.036 104.5 121.108C102.43 118.151 100.686 114.97 98.6656 111.981C98.8173 111.555 98.9707 111.128 99.0857 110.689C99.2514 109.981 99.3673 109.262 99.4324 108.537C99.7008 106.257 100.024 103.982 100.308 101.703L100.323 101.583C100.44 102.067 100.607 102.536 100.823 102.985C102.18 105.742 105.403 107.135 106.98 109.774C107.032 109.856 107.081 109.938 107.125 110.019Z" fill="black"/>
<path d="M90.3258 85.7788C90.3942 87.9891 90.7475 90.1811 91.1009 92.3648L91.8294 96.8655C92.2278 99.3326 92.6445 101.848 93.8114 104.057C94.6848 105.71 95.9417 107.12 97.0802 108.602C99.8773 112.246 101.979 116.375 104.631 120.126C105.403 121.216 106.505 122.396 107.82 122.168C108.684 122.019 109.31 121.299 109.987 120.746C110.787 120.092 111.751 119.614 112.381 118.794C113.011 117.974 113.134 116.614 112.281 116.03C111.989 115.832 111.634 115.757 111.304 115.63C109.982 115.13 109.125 113.837 108.582 112.53C108.039 111.223 107.707 109.821 106.982 108.606C105.405 105.967 102.179 104.573 100.822 101.815C100.062 100.271 99.989 98.4808 99.9323 96.7688L99.784 92.3831C99.7673 91.9031 99.7556 91.4047 99.9507 90.9662C100.469 89.7994 102.036 89.6894 103.306 89.541C104.747 89.3728 106.142 88.9328 107.418 88.2442C108.15 87.8491 108.864 87.3457 109.252 86.6122C109.609 85.9455 109.657 85.1603 109.699 84.4036L110.139 76.454C110.177 75.7705 110.211 75.0621 109.972 74.422C109.367 72.8117 107.333 72.285 105.615 72.3617C102.418 72.505 99.4672 73.8802 96.4468 74.8104C95.6983 75.0404 94.9465 75.2471 94.1748 75.4021C93.508 75.5372 92.6745 75.4822 92.0344 75.6989C90.8876 76.0856 90.9159 78.596 90.7542 79.6361C90.4206 81.6659 90.2772 83.7224 90.3258 85.7788Z" fill="#605D82"/>
<path d="M107.387 122.505C107.669 122.79 107.76 123.206 107.834 123.6C108.241 125.783 108.453 127.998 108.467 130.219C108.449 130.426 108.49 130.634 108.585 130.819C108.665 130.929 108.773 131.015 108.897 131.069C109.712 131.458 110.657 130.916 111.338 130.321C112.596 129.219 113.661 127.739 113.733 126.067C113.751 125.637 113.703 125.202 113.778 124.777C113.888 124.146 114.256 123.598 114.58 123.048C115.133 122.11 115.58 121.114 115.913 120.077C116.037 119.687 116.12 119.197 115.813 118.926C115.706 118.84 115.583 118.776 115.452 118.737L111.768 117.37C111.448 117.252 110.654 119.291 110.529 119.514C110.221 120.059 109.914 120.368 109.296 120.494C108.677 120.621 107.914 120.438 107.324 120.753C106.323 121.284 106.822 121.936 107.387 122.505Z" fill="#535070"/>
<path d="M101.706 123.763C101.638 123.627 101.542 123.506 101.426 123.408C101.256 123.3 101.062 123.234 100.861 123.216C100.161 123.096 99.3305 123.018 98.8455 123.54C98.3921 124.028 98.4704 124.823 98.092 125.373C97.972 125.54 97.8086 125.69 97.7053 125.873C97.5768 126.154 97.5196 126.462 97.5386 126.77C97.5186 127.619 97.4986 128.47 97.5586 129.317C97.6069 130.027 97.7253 130.772 98.1704 131.329C98.8838 132.223 100.171 132.351 101.311 132.408L102.236 132.456C102.49 132.486 102.748 132.462 102.993 132.386C103.144 132.316 103.28 132.217 103.393 132.093C103.505 131.97 103.591 131.825 103.646 131.668C104.128 130.471 103.366 129.182 102.896 127.982C102.354 126.6 102.451 125.068 101.706 123.763Z" fill="#535070"/>
<path d="M96.8368 41.4602C99.7368 41.4602 102.088 39.1093 102.088 36.2094C102.088 33.3094 99.7368 30.9585 96.8368 30.9585C93.9369 30.9585 91.586 33.3094 91.586 36.2094C91.586 39.1093 93.9369 41.4602 96.8368 41.4602Z" fill="#FFC0C6"/>
<path d="M98.0669 47.6995C97.889 47.1906 97.554 46.7513 97.1103 46.4451C96.6666 46.1389 96.1371 45.9816 95.5981 45.9959C95.4436 46.0254 95.2836 46.0049 95.1414 45.9375C95.0608 45.876 94.9962 45.7959 94.953 45.7042C94.6347 45.1295 94.3782 44.5227 94.1879 43.8939C94.1046 43.6155 93.9895 43.2871 93.7078 43.2154C93.4811 43.1571 93.2494 43.3038 93.0977 43.4822C92.9633 43.6735 92.8175 43.8567 92.661 44.0306C91.9942 44.6207 90.8274 44.0822 90.1289 44.624C90.0139 44.7123 89.9189 44.8257 89.7956 44.9074C89.6756 44.9805 89.546 45.0366 89.4105 45.0741C88.0547 45.5152 86.7256 46.0344 85.4299 46.6293C85.8966 49.4364 86.3734 52.2969 87.4669 54.9223C87.9869 56.1725 88.5754 57.3977 88.9921 58.6862C89.9156 61.5417 89.9556 64.5971 89.9673 67.5993C89.9673 69.6529 89.9673 71.7499 89.3005 73.6936C89.1505 74.1336 88.9671 74.5704 88.9254 75.0271C88.8837 75.4838 89.0204 76.0006 89.3955 76.274C89.6126 76.4172 89.8616 76.5048 90.1206 76.529C91.2725 76.6957 92.4326 76.3923 93.5662 76.1289C96.605 75.4255 99.7055 75.0221 102.798 74.6287L107.982 73.9619C108.354 73.9359 108.718 73.8416 109.055 73.6836C110.004 73.1651 110.094 71.7382 109.504 70.8314C109.222 70.3964 108.824 70.0397 108.585 69.5796C108.347 69.1195 108.328 68.4727 108.737 68.1544C109.57 67.5043 109.32 66.2991 109.36 65.2456C109.471 62.2984 109.456 59.3535 109.315 56.4108C109.273 55.8006 109.263 55.1885 109.285 54.5772C109.344 53.5404 109.6 52.5252 109.857 51.5167L111.432 45.3158C111.021 44.6657 110.232 44.2523 109.487 44.0656C108.742 43.8789 107.963 43.8239 107.228 43.5955C105.728 43.1288 104.381 41.9452 102.809 42.0553C102.69 42.0574 102.573 42.0858 102.466 42.1386C102.112 42.3403 102.168 42.8504 102.146 43.2571C102.096 44.1589 101.432 44.9107 100.702 45.4391C99.9722 45.9675 99.1354 46.3509 98.4636 46.9527C98.3469 47.0406 98.251 47.1531 98.1824 47.2821C98.1139 47.4111 98.0744 47.5536 98.0669 47.6995Z" fill="#3F3D56"/>
<path d="M77.2623 53.5821C76.9145 53.8082 76.5448 53.9986 76.1587 54.1505C75.792 54.2955 75.4003 54.4105 75.1003 54.6639C74.9517 54.7928 74.827 54.9468 74.7319 55.119C74.5542 55.4342 74.4644 55.7913 74.4718 56.153C74.4792 56.5147 74.5835 56.8679 74.7739 57.1756C74.9642 57.4832 75.2337 57.7342 75.5541 57.9023C75.8745 58.0704 76.2341 58.1494 76.5955 58.1311C77.0772 58.1061 77.5323 57.9111 77.974 57.7194L81.6779 56.1075C82.3047 55.8358 82.9815 55.519 83.2782 54.9023C83.3122 54.8445 83.3252 54.7768 83.3149 54.7106C83.2862 54.6379 83.2315 54.5785 83.1615 54.5439C82.3268 54.0008 81.5968 53.312 81.0062 52.5102C80.8545 52.3035 80.6728 51.8168 80.4528 51.6918C79.6693 51.2567 77.8907 53.1753 77.2623 53.5821Z" fill="#FFC0C6"/>
<path d="M81.4284 62.8964L81.464 62.8625L81.7829 64.1715C81.8318 64.3724 81.9382 64.5084 82.0785 64.5495C82.2189 64.5905 82.3817 64.5334 82.5313 64.3905L84.5953 62.4187C84.7449 62.2759 84.8688 62.059 84.94 61.8159C85.0111 61.5728 85.0236 61.3234 84.9746 61.1224L83.2252 53.9409C83.1763 53.74 83.0699 53.604 82.9296 53.563C82.7892 53.5219 82.6264 53.5791 82.4768 53.722L80.4128 55.6937C80.2632 55.8366 80.1393 56.0534 80.0681 56.2965C79.997 56.5396 79.9845 56.7891 80.0335 56.99L81.237 61.9307L81.2015 61.9646L81.4284 62.8964Z" fill="#3F3D56"/>
<path d="M116.855 52.2735L118.22 53.8338C118.513 54.1671 118.807 54.5005 119.074 54.8606C119.73 55.7645 120.256 56.756 120.637 57.8061C120.934 58.5845 121.181 59.4146 121.077 60.2414C121.008 60.6653 120.893 61.0805 120.735 61.48C120.485 62.2478 120.175 62.9947 119.807 63.7137C119.5 64.2592 119.153 64.7812 118.768 65.2756C117.711 66.6767 116.554 67.9998 115.306 69.2345C114.84 69.6963 114.639 70.4447 114.441 71.0681C114.066 72.22 113.174 73.1185 112.312 73.9686C112.035 74.2616 111.729 74.5253 111.397 74.7554C110.901 75.0755 110.321 75.2404 109.73 75.2288C109.473 75.2303 109.218 75.1774 108.982 75.0738C108.392 74.7937 108.092 74.1119 108.03 73.4618C107.976 72.8711 108.074 72.2763 108.317 71.7349C109.1 69.9996 111.112 69.2479 112.534 67.981C113.368 67.2392 114.006 66.3057 114.636 65.3839C115.063 64.8077 115.419 64.1826 115.698 63.522C116.015 62.6735 115.891 61.67 116.17 60.8099C116.286 60.4448 116.503 60.1164 116.621 59.7547C116.74 59.393 116.78 58.9646 116.558 58.6529C116.392 58.4536 116.18 58.2979 115.94 58.1994C115.031 57.7394 114.014 57.146 113.841 56.1408C113.772 55.5842 113.917 55.022 114.248 54.5689C114.577 54.1216 114.962 53.7182 115.393 53.3687C115.788 53.012 116.456 52.6169 116.855 52.2735Z" fill="#FFC0C6"/>
<path d="M75.7919 55.6513C75.2756 55.8186 74.7406 56.0454 74.4311 56.4922C74.2958 56.7119 74.2068 56.9568 74.1696 57.2121C74.1323 57.4674 74.1477 57.7276 74.2146 57.9767C74.3483 58.4729 74.5487 58.9487 74.8102 59.391L75.4997 60.6809C75.6344 60.9702 75.816 61.2351 76.0372 61.4652C76.3129 61.694 76.6316 61.8653 76.9745 61.9691C77.7537 62.2512 78.5606 62.5054 79.3906 62.5085C80.7371 62.5162 81.9941 61.891 83.124 61.1663C83.8269 60.713 84.5551 60.1319 84.704 59.3079C84.7677 58.9517 84.6838 58.5335 84.3805 58.3376C84.259 58.267 84.1254 58.2196 83.9866 58.1976C82.5348 57.8949 81.0282 58.2108 79.6048 58.6265C79.2178 58.7385 78.8158 58.8618 78.4202 58.7906C78.3519 58.7858 78.2872 58.7586 78.236 58.7132C78.1888 58.6529 78.1646 58.5777 78.1676 58.5011C78.1246 57.6408 78.9848 56.2939 78.1416 55.5729C77.5833 55.104 76.3774 55.4604 75.7919 55.6513Z" fill="#FFC0C6"/>
<path d="M82.6279 48.4746C82.4163 48.612 82.2301 48.7852 82.0778 48.9863C81.8861 49.278 81.8461 49.6531 81.6811 49.9532C81.3277 50.6099 80.4992 50.845 79.9841 51.3834C79.9006 51.457 79.8423 51.5549 79.8174 51.6634C79.8143 51.81 79.8633 51.953 79.9558 52.0668L82.4462 55.9808C83.2797 56.0541 84.0698 55.534 84.8999 55.604C85.2083 55.629 85.5267 55.7357 85.8234 55.644C86.0355 55.5496 86.2344 55.428 86.4151 55.2823C86.9152 54.9689 87.5687 54.9323 87.9837 54.5205C88.3988 54.1088 88.4338 53.5037 88.4288 52.942C88.4363 52.4544 88.3865 51.9677 88.2804 51.4917C87.9137 49.9915 86.7652 48.8346 86.0451 47.5044C85.6934 46.856 85.5033 46.4776 84.7616 46.9227C84.0198 47.3677 83.3297 47.9612 82.6279 48.4746Z" fill="#3F3D56"/>
<path d="M112.868 46.4959C113.336 46.7999 113.758 47.1692 114.121 47.5928C114.5 48.0812 114.715 48.6813 115.08 49.1814C115.445 49.6814 115.913 50.0415 116.313 50.4882C116.922 51.165 117.333 51.9885 117.737 52.8069C116.749 54.0918 115.673 55.3061 114.516 56.4408C114.387 56.5926 114.217 56.7038 114.026 56.7609C113.897 56.7748 113.766 56.7563 113.646 56.7072C113.525 56.658 113.419 56.5796 113.336 56.4792C113.156 56.2925 113.029 56.0591 112.858 55.8641C112.453 55.4469 111.914 55.1865 111.336 55.129C110.762 55.0731 110.185 55.0647 109.611 55.104C109.484 55.1189 109.357 55.0975 109.242 55.0423C109.157 54.9838 109.088 54.9047 109.042 54.8123C108.375 53.6654 108.584 52.2252 108.822 50.915L109.367 47.9145C109.447 47.3416 109.6 46.7814 109.822 46.2476C110.029 45.8058 110.489 45.0557 111.059 45.1891C111.629 45.3224 112.386 46.1492 112.868 46.4959Z" fill="#3F3D56"/>
<path d="M96.205 32.9296C95.8637 32.932 95.4859 32.878 95.2119 33.0897C95.0905 33.1962 94.9935 33.3276 94.9275 33.475C94.6415 34.0289 94.3841 34.6461 93.8546 34.9728C93.5189 35.1513 93.1516 35.2626 92.7733 35.3002C92.1307 35.4064 91.4686 35.511 90.8315 35.3823C89.3582 35.0836 88.4156 33.6435 87.8433 32.2537C87.6498 31.7866 87.5322 31.1353 87.9644 30.8722C88.5176 30.5351 89.2737 31.2894 89.8423 30.9784C90.011 30.8694 90.1415 30.7106 90.2157 30.524C90.4823 29.9686 90.5768 29.3477 90.8401 28.783C91.27 27.9606 91.974 27.3146 92.8302 26.9567C93.6814 26.6043 94.5802 26.3804 95.4972 26.2924C95.989 26.2055 96.4917 26.2012 96.9849 26.2796C97.2313 26.3207 97.4656 26.4158 97.6709 26.5581C97.8762 26.7005 98.0474 26.8864 98.1724 27.1027C98.3251 27.4059 98.354 27.763 98.5271 28.0526C98.7666 28.4533 99.2326 28.6568 99.6901 28.7521C100.148 28.8474 100.617 28.8461 101.066 28.9885C101.787 29.23 102.401 29.7184 102.797 30.3677C103.189 31.0145 103.461 31.7261 103.603 32.4688C103.886 33.7454 103.966 35.0585 103.841 36.3601C103.807 36.8125 103.716 37.2586 103.569 37.6877C103.331 38.2525 103.014 38.7807 102.628 39.2566C102.475 39.4613 102.285 39.6855 102.031 39.6908C101.954 39.6903 101.877 39.6752 101.805 39.6462C101.204 39.4211 100.912 38.7326 100.841 38.0962C100.771 37.4599 100.828 36.7995 100.644 36.1844C100.602 36.0084 100.508 35.849 100.374 35.7273C100.234 35.6398 100.085 35.5676 99.9289 35.5121C99.7042 35.3878 99.5041 35.2234 99.3387 35.027C98.8933 34.5538 98.4343 34.054 98.1573 33.4567C97.9265 32.9689 97.858 32.4201 97.9617 31.8905C97.7895 32.2058 97.5354 32.4687 97.2262 32.6516C96.917 32.8345 96.5642 32.9305 96.205 32.9296Z" fill="#FF630C"/>
<rect x="128.903" y="8.10571" width="58.2323" height="115.803" rx="3.30865" fill="white"/>
<rect x="138.829" y="49.0771" width="38.4227" height="36.1625" fill="#FF630C"/>
<path d="M147.424 57.4026H152.827V76.8169H147.424V57.4026ZM155.184 62.7528H160.879L163.779 72.1156L166.467 62.7528H171.778L166.202 77.7837C165.567 79.4965 164.918 80.653 164.256 81.2534C163.32 82.1009 161.894 82.5247 159.978 82.5247C159.201 82.5247 158 82.4188 156.376 82.2069L155.952 78.4459C156.729 78.6931 157.594 78.8167 158.548 78.8167C159.183 78.8167 159.696 78.671 160.084 78.3796C160.481 78.0883 160.817 77.5674 161.09 76.8169L155.184 62.7528Z" fill="white"/>
</svg>
