<svg width="60" height="22" viewBox="0 0 60 22" fill="none" xmlns="http://www.w3.org/2000/svg">
<path d="M1.09863 5.26272H4.41649V13.356H9.5947V16H1.09863V5.26272ZM11.0156 5.26272H13.9965V7.29153H11.0156V5.26272ZM11.0156 8.2217H13.9965V16H11.0156V8.2217ZM15.0146 8.2217H18.1201L19.6289 13.1509L21.1889 8.2217H24.1992L20.8959 16H18.2519L15.0146 8.2217ZM25.1 8.2217H27.8905V9.49611C28.1591 8.94436 28.435 8.56594 28.7182 8.36086C29.0063 8.1509 29.3603 8.04592 29.7802 8.04592C30.2196 8.04592 30.7006 8.18264 31.2231 8.45608L30.3002 10.5801C29.9486 10.4336 29.6703 10.3604 29.4653 10.3604C29.0746 10.3604 28.7719 10.5215 28.5571 10.8438C28.2494 11.2979 28.0956 12.1475 28.0956 13.3926V16H25.1V8.2217ZM31.8456 5.26272H34.8266V7.29153H31.8456V5.26272ZM31.8456 8.2217H34.8266V16H31.8456V8.2217Z" fill="#1C1C28"/>
<rect x="38.75" y="1.25" width="21.2499" height="19.9999" fill="#FF630C"/>
<path d="M43.5034 5.26272H46.4916V16H43.5034V5.26272ZM47.7953 8.2217H50.9447L52.5487 13.3999L54.0356 8.2217H56.9726L53.8891 16.5347C53.5375 17.4819 53.1786 18.1216 52.8124 18.4536C52.2948 18.9224 51.5063 19.1567 50.4467 19.1567C50.017 19.1567 49.3529 19.0981 48.4545 18.9809L48.2201 16.9009C48.6498 17.0376 49.1283 17.106 49.6557 17.106C50.0072 17.106 50.2904 17.0254 50.5053 16.8643C50.725 16.7031 50.9106 16.415 51.0619 16L47.7953 8.2217Z" fill="white"/>
</svg>
