<svg width="80" height="80" viewBox="0 0 80 80" fill="none" xmlns="http://www.w3.org/2000/svg">
<rect x="0.66687" y="4.70587" width="79.3331" height="75.2941" fill="#FF630C"/>
<path d="M18.4459 21.5563H29.7017V62H18.4459V21.5563ZM34.6124 32.7017H46.4751L52.5169 52.2063L58.1172 32.7017H69.1799L57.5654 64.0139C56.2412 67.5819 54.8894 69.9913 53.51 71.2419C51.5605 73.0075 48.5902 73.8903 44.5992 73.8903C42.9807 73.8903 40.4794 73.6696 37.0953 73.2282L36.2125 65.3933C37.831 65.9083 39.6334 66.1658 41.6197 66.1658C42.9439 66.1658 44.0106 65.8623 44.8199 65.2554C45.6475 64.6484 46.3464 63.5633 46.9165 62L34.6124 32.7017Z" fill="white"/>
</svg>
