<svg width="34" height="34" viewBox="0 0 34 34" fill="none" xmlns="http://www.w3.org/2000/svg">
<path d="M34 17C34 12.4913 32.2089 8.1673 29.0208 4.97919C25.8327 1.79107 21.5087 0 17 0C12.4913 0 8.1673 1.79107 4.97919 4.97919C1.79107 8.1673 0 12.4913 0 17C0 21.5087 1.79107 25.8327 4.97919 29.0208C8.1673 32.2089 12.4913 34 17 34C21.5087 34 25.8327 32.2089 29.0208 29.0208C32.2089 25.8327 34 21.5087 34 17ZM18.0625 24.4375C18.0625 24.7193 17.9506 24.9895 17.7513 25.1888C17.552 25.3881 17.2818 25.5 17 25.5C16.7182 25.5 16.448 25.3881 16.2487 25.1888C16.0494 24.9895 15.9375 24.7193 15.9375 24.4375V12.1274L11.3773 16.6898C11.1777 16.8893 10.9071 17.0013 10.625 17.0013C10.3429 17.0013 10.0723 16.8893 9.87275 16.6898C9.67324 16.4902 9.56116 16.2196 9.56116 15.9375C9.56116 15.6554 9.67324 15.3848 9.87275 15.1852L16.2477 8.81025C16.3464 8.7113 16.4637 8.6328 16.5928 8.57924C16.7219 8.52567 16.8602 8.4981 17 8.4981C17.1398 8.4981 17.2781 8.52567 17.4072 8.57924C17.5363 8.6328 17.6536 8.7113 17.7523 8.81025L24.1273 15.1852C24.3268 15.3848 24.4388 15.6554 24.4388 15.9375C24.4388 16.2196 24.3268 16.4902 24.1273 16.6898C23.9277 16.8893 23.6571 17.0013 23.375 17.0013C23.0929 17.0013 22.8223 16.8893 22.6227 16.6898L18.0625 12.1274V24.4375Z" fill="#FF630C"/>
</svg>
