<svg viewBox="0 0 10 10" fill="none">
<path d="M5.40246 4.77539L9.24768 0.191895C9.31213 0.115723 9.25793 0 9.15832 0H7.98938C7.92053 0 7.85461 0.0307617 7.8092 0.083496L4.63781 3.86426L1.46643 0.083496C1.42248 0.0307617 1.35656 0 1.28625 0H0.117305C0.0176956 0 -0.0365038 0.115723 0.0279494 0.191895L3.87316 4.77539L0.0279494 9.35889C0.0135113 9.37587 0.00424869 9.39663 0.00126094 9.41872C-0.0017268 9.4408 0.00168579 9.46328 0.0110939 9.48349C0.020502 9.50369 0.0355105 9.52077 0.0543372 9.5327C0.0731638 9.54463 0.0950179 9.5509 0.117305 9.55078H1.28625C1.3551 9.55078 1.42102 9.52002 1.46643 9.46728L4.63781 5.68652L7.8092 9.46728C7.85314 9.52002 7.91906 9.55078 7.98938 9.55078H9.15832C9.25793 9.55078 9.31213 9.43506 9.24768 9.35889L5.40246 4.77539Z" fill="#FF5722"/>
</svg>
