<svg width="282" height="147" viewBox="0 0 282 147" fill="none" xmlns="http://www.w3.org/2000/svg">
<path d="M70.544 38.4859H69.7667V17.1907C69.7667 13.9219 68.4682 10.787 66.1568 8.47559C63.8454 6.16419 60.7105 4.86566 57.4417 4.86566H12.3251C9.05625 4.86566 5.92133 6.16419 3.60993 8.47559C1.29853 10.787 0 13.9219 0 17.1907V134.017C0 137.286 1.29853 140.421 3.60993 142.733C5.92133 145.044 9.05625 146.342 12.3251 146.342H57.4417C60.7105 146.342 63.8454 145.044 66.1568 142.733C68.4682 140.421 69.7667 137.286 69.7667 134.017V53.644H70.544V38.4859Z" fill="#3F3D56"/>
<path opacity="0.4" d="M160.938 63.3959C161.493 63.3959 161.942 62.8564 161.942 62.1909C161.942 61.5254 161.493 60.9859 160.938 60.9859C160.384 60.9859 159.934 61.5254 159.934 62.1909C159.934 62.8564 160.384 63.3959 160.938 63.3959Z" fill="white"/>
<path d="M183.184 77.4791L182.608 81.159C182.608 81.159 179.77 82.6665 181.766 82.7108C183.761 82.7551 193.16 82.7108 193.16 82.7108C193.16 82.7108 194.978 82.7108 192.096 81.1147L191.52 77.2574L183.184 77.4791Z" fill="#2F2E41"/>
<path opacity="0.1" d="M181.364 82.6709C181.817 82.2677 182.608 81.8476 182.608 81.8476L183.184 78.1676L191.519 78.1755L192.096 81.8032C192.768 82.1755 193.184 82.4608 193.428 82.6797C193.798 82.5952 194.202 82.2814 192.096 81.1147L191.519 77.2574L183.184 77.4791L182.608 81.159C182.608 81.159 180.223 82.4259 181.364 82.6709Z" fill="black"/>
<path d="M204.764 51.8303H169.851C169.122 51.8303 168.531 52.4215 168.531 53.1507V76.6686C168.531 77.3978 169.122 77.9889 169.851 77.9889H204.764C205.493 77.9889 206.084 77.3978 206.084 76.6686V53.1507C206.084 52.4215 205.493 51.8303 204.764 51.8303Z" fill="#2F2E41"/>
<path d="M204.821 53.2269H169.795V72.8237H204.821V53.2269Z" fill="#3F3D56"/>
<path d="M187.308 52.8279C187.43 52.8279 187.529 52.7286 187.529 52.6062C187.529 52.4838 187.43 52.3845 187.308 52.3845C187.185 52.3845 187.086 52.4838 187.086 52.6062C187.086 52.7286 187.185 52.8279 187.308 52.8279Z" fill="#F2F2F2"/>
<path d="M206.084 74.3755V76.6686C206.084 76.842 206.05 77.0137 205.984 77.1739C205.917 77.3341 205.82 77.4796 205.697 77.6023C205.575 77.7249 205.429 77.8221 205.269 77.8885C205.109 77.9548 204.937 77.9889 204.764 77.9889H169.851C169.678 77.9889 169.506 77.9548 169.346 77.8885C169.186 77.8221 169.04 77.7249 168.918 77.6023C168.795 77.4796 168.698 77.3341 168.631 77.1739C168.565 77.0137 168.531 76.842 168.531 76.6686V74.3755H206.084Z" fill="#2F2E41"/>
<path d="M204.244 84.307C204.562 84.307 204.821 84.2276 204.821 84.1296C204.821 84.0317 204.562 83.9523 204.244 83.9523C203.926 83.9523 203.668 84.0317 203.668 84.1296C203.668 84.2276 203.926 84.307 204.244 84.307Z" fill="#F2F2F2"/>
<path d="M187.307 77.0357C187.773 77.0357 188.15 76.6585 188.15 76.1933C188.15 75.728 187.773 75.3509 187.307 75.3509C186.842 75.3509 186.465 75.728 186.465 76.1933C186.465 76.6585 186.842 77.0357 187.307 77.0357Z" fill="#F2F2F2"/>
<path opacity="0.1" d="M197.106 85.105V85.5484H173.253V85.1937L173.286 85.105H197.106Z" fill="black"/>
<path opacity="0.4" d="M209.942 54.6166C210.496 54.6166 210.946 54.0771 210.946 53.4116C210.946 52.746 210.496 52.2065 209.942 52.2065C209.387 52.2065 208.938 52.746 208.938 53.4116C208.938 54.0771 209.387 54.6166 209.942 54.6166Z" fill="white"/>
<path d="M177.372 61.632H178.518V64.4272H180.306V65.3404H177.372V61.632ZM180.797 61.632H181.826V62.3327H180.797V61.632ZM180.797 62.654H181.826V65.3404H180.797V62.654ZM182.178 62.654H183.251L183.772 64.3564L184.31 62.654H185.35L184.209 65.3404H183.296L182.178 62.654ZM185.661 62.654H186.625V63.0941C186.718 62.9035 186.813 62.7728 186.911 62.702C187.01 62.6295 187.133 62.5932 187.278 62.5932C187.429 62.5932 187.596 62.6405 187.776 62.7349L187.457 63.4685C187.336 63.4179 187.24 63.3926 187.169 63.3926C187.034 63.3926 186.929 63.4482 186.855 63.5596C186.749 63.7164 186.696 64.0098 186.696 64.4399V65.3404H185.661V62.654ZM187.991 61.632H189.021V62.3327H187.991V61.632ZM187.991 62.654H189.021V65.3404H187.991V62.654Z" fill="white"/>
<rect x="190.376" y="59.7719" width="7.33923" height="6.90751" fill="#FF630C"/>
<path d="M192.017 61.6318H193.049V65.3402H192.017V61.6318ZM193.5 62.6538H194.587L195.141 64.4422L195.655 62.6538H196.669L195.604 65.5249C195.483 65.852 195.359 66.073 195.233 66.1876C195.054 66.3495 194.781 66.4305 194.415 66.4305C194.267 66.4305 194.038 66.4102 193.727 66.3698L193.646 65.6514C193.795 65.6986 193.96 65.7222 194.142 65.7222C194.264 65.7222 194.361 65.6944 194.436 65.6387C194.512 65.5831 194.576 65.4836 194.628 65.3402L193.5 62.6538Z" fill="white"/>
<path opacity="0.1" d="M123.208 24.2542C126.557 24.2542 129.271 21.5394 129.271 18.1906C129.271 14.8418 126.557 12.1271 123.208 12.1271C119.859 12.1271 117.144 14.8418 117.144 18.1906C117.144 21.5394 119.859 24.2542 123.208 24.2542Z" fill="#FF630C"/>
<path opacity="0.1" d="M110.505 7.50727C112.578 7.50727 114.259 5.82671 114.259 3.75363C114.259 1.68056 112.578 0 110.505 0C108.432 0 106.751 1.68056 106.751 3.75363C106.751 5.82671 108.432 7.50727 110.505 7.50727Z" fill="#FF630C"/>
<path opacity="0.1" d="M267.865 17.6132C269.141 17.6132 270.175 16.579 270.175 15.3033C270.175 14.0275 269.141 12.9933 267.865 12.9933C266.59 12.9933 265.555 14.0275 265.555 15.3033C265.555 16.579 266.59 17.6132 267.865 17.6132Z" fill="#FF630C"/>
<path d="M130.892 87.0862L130.821 90.9265L130.251 122.055L125.373 133.477L108.563 133.67V88.8553L126.107 87.4655L130.892 87.0862Z" fill="#5F5D7E"/>
<path opacity="0.1" d="M130.892 87.0862L130.821 90.9265L130.251 122.055L125.373 133.477L108.563 133.67V88.8553L126.107 87.4655L130.892 87.0862Z" fill="black"/>
<path d="M130.892 87.0862L130.821 90.9265L130.251 122.055L125.373 133.477L126.657 90.9996L126.654 90.9727L126.107 87.4655L130.892 87.0862Z" fill="#5F5D7E"/>
<path opacity="0.1" d="M126.107 87.4655L130.892 87.0862L130.821 90.9265L126.653 90.9727L108.563 91.1748V88.8553L126.107 87.4655Z" fill="black"/>
<path d="M282 88.8553V133.412H278.087L262.429 121.991V87.5984L276.418 86.2836L277.276 86.6782L278.087 87.0517L282 88.8553Z" fill="#5F5D7E"/>
<path opacity="0.1" d="M282 86.6781H278.087V133.412H282V86.6781Z" fill="black"/>
<path opacity="0.1" d="M282 86.6782V89.2403L278.087 89.2846L262.429 89.4579V87.5984L276.418 86.2836L277.276 86.6782L278.087 87.0517V86.6782H282Z" fill="black"/>
<path d="M282 85.2249V88.8553L89.6985 90.9997V86.3799L107.793 82.7225L265.253 81.5675L282 85.2249Z" fill="#5F5D7E"/>
<path opacity="0.1" d="M282 85.2249V88.8553L89.6985 90.9997V86.3798L282 85.2249Z" fill="black"/>
<path d="M224.6 58.4913C225.445 58.4913 226.131 57.8061 226.131 56.9609C226.131 56.1158 225.445 55.4306 224.6 55.4306C223.755 55.4306 223.07 56.1158 223.07 56.9609C223.07 57.8061 223.755 58.4913 224.6 58.4913Z" fill="#E6E8EC"/>
<path d="M244.441 91.2885C244.402 91.0531 244.329 90.8247 244.223 90.6109C244.369 90.1123 244.464 89.8063 244.464 89.8063C244.464 89.8063 244.464 89.7331 244.441 89.6138C244.326 88.9084 243.959 88.2685 243.409 87.8127C242.859 87.3568 242.162 87.1159 241.447 87.1344C240.292 87.1556 238.102 87.2326 235.672 87.506C235.811 86.5339 235.977 85.3712 236.15 84.1739L236.467 84.2085C236.541 84.2085 236.618 84.2085 236.695 84.2201H236.797C237.05 84.2359 237.3 84.1593 237.501 84.0045C237.55 83.9566 237.587 83.8972 237.608 83.8317C237.628 83.7662 237.633 83.6966 237.62 83.6291C237.607 83.5616 237.578 83.4983 237.535 83.4449C237.491 83.3915 237.436 83.3497 237.372 83.3231C237.656 83.3513 237.943 83.3084 238.206 83.1982C238.469 83.0879 238.7 82.9139 238.879 82.6917C239.043 82.4631 239.131 82.1892 239.131 81.9082C239.131 81.6273 239.043 81.3534 238.879 81.1248C238.473 80.5473 237.613 80.1623 237.567 79.4828C237.542 79.0978 237.8 78.7513 238.002 78.4106C238.489 77.56 238.683 76.5732 238.556 75.6014C238.428 74.6295 237.985 73.7264 237.295 73.0304C237.024 72.7617 236.739 72.5078 236.441 72.2701C236.017 70.7147 235.574 69.3249 235.443 69.2806C235.274 69.2248 234.983 68.8591 234.706 68.5453C234.732 68.2806 234.727 68.014 234.693 67.7503C234.489 66.4028 233.153 65.4404 232.417 64.2507C231.682 63.0611 231.549 61.604 231.738 60.2411C231.927 58.8782 232.402 57.5597 232.789 56.2295C233.078 55.242 233.318 54.1929 232.995 53.2131C232.766 52.5144 232.267 51.91 231.753 51.3421C230.519 49.9773 229.097 48.6992 227.341 47.8772C226.121 47.302 224.784 47.0161 223.436 47.0418H223.422L223.21 47.0533L223.06 47.063L222.91 47.0784L222.75 47.0938C222.587 47.1149 222.425 47.14 222.263 47.1727C221.091 46.912 219.894 46.7778 218.693 46.7723H218.537C218.18 46.7512 217.826 46.8349 217.516 47.0129C217.089 47.3113 217.035 47.8464 216.906 48.3122C216.675 49.0918 216.186 49.7702 215.52 50.2372C215.06 50.5683 214.519 50.8147 214.08 51.1612C213.642 51.5076 213.299 52.0274 213.416 52.5394C213.514 52.9687 213.915 53.2882 214.379 53.4826C214.323 53.5519 214.265 53.6193 214.211 53.6905C214.302 53.7271 214.404 53.7598 214.487 53.7868C215.064 53.9581 215.686 53.9793 216.271 54.1352C216.432 54.1783 216.59 54.2317 216.745 54.295C216.224 55.274 215.952 56.3661 215.953 57.475C215.956 58.7063 216.29 59.9143 216.92 60.9719C217.551 62.0295 218.455 62.8975 219.538 63.4846C219.538 63.5501 219.538 63.6136 219.538 63.6771C219.597 65.6868 219.445 68.1314 218.417 68.5453C217.389 68.9592 216.406 69.4269 215.799 69.7291L215.607 69.8312C215.447 69.758 215.287 69.681 215.131 69.6002C215.131 69.6002 214.313 69.5039 214.456 70.1276C214.456 70.1276 211.982 69.7426 210.625 70.7994C209.268 71.8562 207.041 74.0622 206.604 74.6377C206.167 75.2133 202.789 76.4722 202.789 76.4722C202.789 76.4722 203.853 74.9842 203.393 73.1613C203.393 73.1613 202.885 70.963 203.128 70.0814C203.37 69.1998 204 65.9274 204 65.9274C204 65.9274 204.088 62.474 202.204 60.8898C200.319 59.3056 199.008 58.0024 199.736 59.5423C200.054 60.2483 200.41 60.9365 200.802 61.604C200.802 61.604 196.296 62.6742 197.896 64.3451C199.495 66.0159 199.93 66.0178 199.93 66.0178C199.93 66.0178 199.397 70.143 199.299 70.911C199.201 71.6791 198.336 77.5309 198.336 77.5309C198.336 77.5309 198.288 80.3144 198.773 80.7456C198.773 80.7456 199.091 82.5377 201.099 82.478C201.099 82.478 204.925 82.3818 205.992 81.9506C207.058 81.5194 210.739 79.2152 211.128 79.3596C211.156 79.371 211.181 79.388 211.203 79.4097C211.223 79.4274 211.243 79.4467 211.26 79.4674C210.875 80.3202 209.963 83.2153 210.352 84.6378C210.352 84.6378 210.013 88.6667 212.048 89.9622C212.048 89.9622 215.002 94.9516 213.888 97.6369C213.799 97.8544 213.72 98.0546 213.647 98.249C211.955 96.8458 209.374 95.5541 205.432 94.84C205.029 94.7668 204.629 94.6783 204.232 94.582C203.112 94.3106 200.03 94.0623 198.563 98.9343C198.221 100.067 197.786 101.169 197.262 102.23C196.685 103.398 196.044 105.073 196.03 106.734C195.998 109.063 197.201 111.371 201.566 112.218C201.615 113.951 201.813 116.014 202.406 117.498C203.616 120.521 205.555 125.414 205.555 125.414C205.555 125.414 207.88 130.403 208.026 132.417C208.121 133.735 208.259 135.464 208.163 136.652C208.163 136.725 208.152 136.794 208.144 136.863C207.944 137.079 207.727 137.276 207.493 137.454C207.154 137.647 206.04 138.846 206.04 139.133C206.042 139.408 206.067 139.682 206.113 139.953C205.586 140.413 205.297 140.915 205.297 141.416C205.297 144.018 212.683 146.128 221.794 146.128C230.904 146.128 238.288 144.011 238.288 141.416C238.288 139.04 232.129 137.077 224.125 136.754C225.794 136.088 227.276 135.389 227.89 134.829C228.022 134.726 228.122 134.589 228.181 134.432L226.631 130.834C226.631 130.834 226.51 130.861 226.331 130.913L226.223 130.752C225.534 129.703 224.208 127.612 224.208 127.044C224.208 126.834 223.857 125.493 223.349 123.654V117.754C228.404 118.524 234.918 117.477 234.918 117.477L234.947 117.462H235.074V117.393C235.95 116.907 240.331 114.342 241.63 110.938C242.015 109.945 241.536 108.522 240.583 107.002C241.249 105.348 242.893 101.077 242.729 99.3732C242.729 99.2827 242.718 99.1807 242.718 99.0806C242.733 98.9065 242.74 98.7318 242.737 98.557C242.93 96.0546 244.469 91.4829 244.469 91.4829C244.469 91.4829 244.46 91.404 244.441 91.2885ZM211.717 80.17C212.067 80.786 212.442 81.5733 212.591 81.8928C212.591 81.8928 212.078 80.9496 211.726 80.17H211.717ZM212.082 134.088L212.046 134.101V133.909C212.025 133.407 212.037 132.904 212.082 132.403C212.088 132.134 212.031 131.866 211.917 131.622C211.324 130.131 210.927 128.57 210.737 126.977C210.544 125.298 210.385 123.468 210.485 123.002C210.635 122.288 210.758 116.879 210.571 114.213L213.551 114.882L217.016 121.947C217.016 121.947 219.245 125.396 219.936 128.118V130.844C219.734 131.656 219.381 132.423 218.895 133.104C218.435 133.733 217.986 134.371 217.57 135.029C217.443 135.233 217.303 135.443 217.162 135.639C217.116 135.639 214.839 135.772 214.452 136.199C214.213 136.463 213.797 136.879 213.728 137.296L213.63 137.312C213.183 135.982 212.092 134.088 212.092 134.088H212.082Z" fill="url(#paint0_linear)"/>
<path opacity="0.1" d="M226.741 131.614L225.971 134.116L222.698 136.956L217.886 138.338C217.886 138.338 215.624 137.1 216.394 136.859C216.608 136.792 216.862 136.548 217.12 136.228C216.85 137.21 218.993 135.945 218.993 135.945C218.993 135.945 224.527 131.999 225.105 131.566C225.483 131.315 225.899 131.124 226.337 131.002C226.577 131.377 226.741 131.614 226.741 131.614Z" fill="black"/>
<path d="M226.741 131.614L225.971 134.116L222.698 136.956L217.886 138.338C217.886 138.338 215.624 137.1 216.394 136.859C216.608 136.792 216.862 136.548 217.12 136.228C217.352 135.932 217.567 135.622 217.763 135.3C218.175 134.638 218.621 133.999 219.077 133.375C219.743 132.428 220.161 131.328 220.292 130.178C220.629 127.531 217.212 122.189 217.212 122.189L211.004 109.437L219.666 110.495C219.666 110.495 224.334 126.52 224.334 127.29C224.334 127.868 225.651 129.957 226.336 131.009C226.577 131.377 226.741 131.614 226.741 131.614Z" fill="#FDC2CC"/>
<path d="M221.936 146.43C230.985 146.43 238.321 144.314 238.321 141.704C238.321 139.095 230.985 136.979 221.936 136.979C212.887 136.979 205.551 139.095 205.551 141.704C205.551 144.314 212.887 146.43 221.936 146.43Z" fill="#5F5D7E"/>
<path d="M228.281 134.694C228.222 134.85 228.123 134.988 227.992 135.092C226.802 136.184 222.354 137.806 219.605 138.688C218.885 138.94 218.15 139.148 217.405 139.314C216.731 139.362 215.336 138.929 214.373 138.338C213.411 137.747 214.277 136.908 214.666 136.474C215.054 136.041 217.361 135.912 217.361 135.912C216.254 137.755 218.995 136.138 218.995 136.138C218.995 136.138 224.529 132.191 225.107 131.758C225.684 131.325 226.743 131.085 226.743 131.085L228.281 134.694Z" fill="#FF630C"/>
<path opacity="0.3" d="M228.281 134.694C228.222 134.85 228.123 134.988 227.992 135.092C226.802 136.184 222.354 137.806 219.605 138.688C218.885 138.94 218.15 139.148 217.405 139.314C216.731 139.362 215.336 138.929 214.373 138.338C213.411 137.747 214.277 136.908 214.666 136.474C215.054 136.041 217.361 135.912 217.361 135.912C216.254 137.755 218.995 136.138 218.995 136.138C218.995 136.138 224.529 132.191 225.107 131.758C225.684 131.325 226.743 131.085 226.743 131.085L228.281 134.694Z" fill="black"/>
<path opacity="0.1" d="M227.992 135.096C226.803 136.188 222.354 137.81 219.605 138.692C222.096 136.582 226.273 135.479 227.992 135.096Z" fill="black"/>
<path opacity="0.1" d="M221.936 141.127C223.747 141.127 225.214 140.704 225.214 140.182C225.214 139.66 223.747 139.237 221.936 139.237C220.126 139.237 218.658 139.66 218.658 140.182C218.658 140.704 220.126 141.127 221.936 141.127Z" fill="black"/>
<path d="M223.482 115.254H220.113V140.182H223.482V115.254Z" fill="#5F5D7E"/>
<path opacity="0.1" d="M223.482 116.49V119.377C222.808 119.169 221.27 118.293 220.113 117.604V115.252H220.816L223.482 116.49Z" fill="black"/>
<path d="M215.545 104.401C215.545 104.401 226.667 101.539 229.436 99.3961C232.204 97.2537 243.074 107.335 241.638 111.138C240.202 114.942 234.974 117.697 234.974 117.697C234.974 117.697 220.515 120.049 218.053 115.142C215.591 110.235 215.545 104.401 215.545 104.401Z" fill="#474157"/>
<path opacity="0.1" d="M215.545 104.401C215.545 104.401 226.667 101.539 229.436 99.3961C232.204 97.2537 243.074 107.335 241.638 111.138C240.202 114.942 234.974 117.697 234.974 117.697C234.974 117.697 220.515 120.049 218.053 115.142C215.591 110.235 215.545 104.401 215.545 104.401Z" fill="black"/>
<path d="M214.583 103.246C214.583 103.246 225.705 100.384 228.473 98.2412C231.241 96.0987 242.111 106.18 240.675 109.983C239.239 113.787 234.011 116.542 234.011 116.542C234.011 116.542 219.553 118.894 217.091 113.987C214.629 109.081 214.583 103.246 214.583 103.246Z" fill="#474157"/>
<path d="M204.267 76.9977L203.064 76.5607C203.064 76.5607 204.123 75.0689 203.667 73.2402C203.667 73.2402 203.16 71.0342 203.401 70.141C203.642 69.2478 204.267 65.9735 204.267 65.9735C204.267 65.9735 204.356 62.5086 202.483 60.9206C200.61 59.3325 199.31 58.0331 200.032 59.5731C200.348 60.2815 200.701 60.9723 201.091 61.6424C201.091 61.6424 196.616 62.7146 198.204 64.3931C199.792 66.0717 200.225 66.0698 200.225 66.0698C200.225 66.0698 199.695 70.2084 199.599 70.9784C199.503 71.7483 198.637 77.6194 198.637 77.6194C198.637 77.6194 198.589 80.4106 199.07 80.8437C199.177 81.3648 199.471 81.8288 199.896 82.1479C200.322 82.4671 200.85 82.6194 201.38 82.5761C201.722 82.5704 205.807 78.0564 204.267 76.9977Z" fill="#FDC2CC"/>
<path d="M233.334 68.1429V70.8378L230.542 71.7483L225.788 75.2478L224.527 76.1757L218.897 73.9139L215.335 70.1602C215.335 70.1602 215.509 70.0659 215.809 69.91L216.001 69.808C216.604 69.5058 217.553 69.038 218.602 68.6203C219.651 68.2026 219.774 65.754 219.715 63.7367V63.5442C219.667 62.1294 219.522 60.9725 219.522 60.9725C219.522 60.9725 220.109 60.8608 220.964 60.7338C223.334 60.3815 227.755 59.9061 227.366 61.3575C227.253 61.8509 227.253 62.3636 227.366 62.857C227.378 62.9109 227.389 62.9667 227.403 63.0206C227.803 64.7704 229.043 66.6029 229.043 66.6029L232.893 67.9889L233.001 68.0274L233.334 68.1429Z" fill="#FDC2CC"/>
<path d="M233.334 68.961V68.1429C233.636 68.0908 233.945 68.0908 234.248 68.1429C234.585 68.2391 235.224 69.2497 235.513 69.346C235.801 69.4422 237.568 76.0351 237.376 76.6126C237.183 77.1901 235.364 90.2277 235.364 90.2277L231.697 94.2701L230.975 83.1536L233.334 76.5606V68.961Z" fill="#FDC2CC"/>
<path d="M214.325 99.2307C214.325 99.2307 210.974 99.9526 211.399 101.011C211.824 102.07 213.699 102.118 213.699 102.118L214.325 99.2307Z" fill="#FDC2CC"/>
<path d="M218.993 77.8543L216.442 83.35L213.41 85.5636L212.881 82.143C212.881 82.143 211.857 79.8812 211.416 79.4982C211.395 79.4765 211.369 79.4595 211.341 79.4481C210.956 79.3037 207.299 81.6137 206.24 82.0468C205.181 82.4799 201.38 82.5761 201.38 82.5761L203.064 76.5607C203.064 76.5607 206.433 75.3095 206.866 74.732C207.299 74.1545 209.512 71.9408 210.86 70.8821C212.207 69.8234 214.666 70.2084 214.666 70.2084L214.704 70.2238L215.335 70.4971L217.164 74.9726L218.993 77.8543Z" fill="#FDC2CC"/>
<path d="M212.304 132.676C212.259 133.178 212.246 133.682 212.267 134.186C212.281 134.723 212.304 135.179 212.304 135.179L211.197 137.489C211.197 137.489 207.395 138.74 208.021 138.211C208.238 138.028 208.35 137.552 208.406 136.923C208.5 135.733 208.363 133.999 208.269 132.676C208.125 130.655 205.815 125.65 205.815 125.65C205.815 125.65 203.89 120.742 202.687 117.71C201.484 114.678 201.917 109.192 201.917 109.192C201.917 109.192 202.109 105.054 202.976 103.802C203.842 102.551 207.21 102.118 207.21 102.118L208.791 107.36C208.791 107.36 210.09 112.268 210.571 112.99C211.053 113.712 210.908 122.326 210.716 123.24C210.618 123.708 210.783 125.55 210.968 127.229C211.156 128.825 211.55 130.391 212.138 131.887C212.253 132.134 212.31 132.404 212.304 132.676Z" fill="#FDC2CC"/>
<path opacity="0.1" d="M212.304 135.179L211.197 137.489C211.197 137.489 207.395 138.74 208.021 138.211C208.238 138.028 208.35 137.552 208.406 136.923C208.542 136.786 208.689 136.636 208.839 136.482C209.806 135.479 210.978 134.696 212.275 134.186C212.281 134.723 212.304 135.179 212.304 135.179Z" fill="black"/>
<path d="M214.04 138.617C214.041 138.626 214.041 138.635 214.04 138.644C213.848 139.558 210.671 140.809 210.671 140.809C210.671 140.809 208.65 141.146 207.495 141.435C207.407 141.459 207.315 141.467 207.224 141.46C206.333 141.393 206.292 139.678 206.292 139.414C206.292 139.15 207.399 137.922 207.736 137.729C208.117 137.414 208.474 137.071 208.806 136.703C209.794 135.681 210.99 134.882 212.313 134.361C212.313 134.361 214.194 137.668 214.04 138.617Z" fill="#FF630C"/>
<path opacity="0.3" d="M214.04 138.617C214.041 138.626 214.041 138.635 214.04 138.644C213.848 139.558 210.671 140.809 210.671 140.809C210.671 140.809 208.65 141.146 207.495 141.435C207.407 141.459 207.315 141.467 207.224 141.46C206.333 141.393 206.292 139.677 206.292 139.414C206.292 139.15 207.399 137.922 207.736 137.729C208.123 137.409 208.486 137.061 208.822 136.688C209.789 135.68 210.961 134.893 212.26 134.378L212.313 134.357C212.313 134.357 214.194 137.668 214.04 138.617Z" fill="black"/>
<path opacity="0.1" d="M214.04 138.617C214.041 138.626 214.041 138.635 214.04 138.644C213.847 139.558 210.671 140.809 210.671 140.809C210.671 140.809 208.65 141.146 207.495 141.435C207.407 141.459 207.315 141.467 207.224 141.46C208.271 140.742 210.81 139.019 211.153 138.981C211.495 138.942 213.183 138.457 214.04 138.617Z" fill="black"/>
<path opacity="0.1" d="M227.41 63.0206C226.221 64.0004 225.128 63.8599 223.466 63.8599C222.265 63.8599 220.704 64.2815 219.72 63.7406C219.68 62.2372 219.528 60.9725 219.528 60.9725C219.528 60.9725 227.901 59.3844 227.372 61.3575C227.251 61.9069 227.264 62.4774 227.41 63.0206Z" fill="black"/>
<path d="M229.917 57.5153C229.917 59.3404 229.192 61.0908 227.901 62.3814C226.611 63.6719 224.861 64.3969 223.035 64.3969C222.858 64.3969 222.681 64.3969 222.508 64.3777C221.173 64.2747 219.898 63.7849 218.838 62.968C217.777 62.1512 216.978 61.0429 216.538 59.7788C216.098 58.5148 216.036 57.1498 216.36 55.8512C216.684 54.5525 217.38 53.3764 218.362 52.4671C219.344 51.5577 220.57 50.9544 221.889 50.7312C223.209 50.5079 224.565 50.6744 225.792 51.2101C227.018 51.7459 228.062 52.6277 228.795 53.7476C229.528 54.8675 229.919 56.1768 229.919 57.5153H229.917Z" fill="#FDC2CC"/>
<path opacity="0.1" d="M217.164 74.9765L218.993 77.8639L216.442 83.3596L213.411 85.5733L212.881 82.143C212.881 82.143 211.857 79.8812 211.416 79.4982C211.543 79.1883 211.63 79.0458 211.63 79.1594C211.63 79.6406 212.814 81.8062 212.814 81.8062C216.471 80.555 215.336 75.6945 215.336 75.6945C215.336 75.6945 214.881 71.3634 214.704 70.2238L215.336 70.4972L217.164 74.9765Z" fill="black"/>
<path opacity="0.1" d="M233.334 68.1429V70.8378L230.542 71.7483L225.788 75.2479L224.527 76.1757L218.897 73.9139L215.335 70.1602C215.335 70.1602 215.509 70.0659 215.809 69.91L216.001 69.808C218.479 70.9341 221.16 71.3479 223.076 71.4961C223.956 71.5708 224.841 71.5907 225.724 71.5558C232.976 70.4009 233.191 68.6492 233.01 68.0274L233.334 68.1429Z" fill="black"/>
<path d="M235.403 111.787C233.588 112.677 231.724 113.464 229.821 114.145C226.5 115.348 219.185 113.76 218.271 113.52C217.357 113.279 210.331 110.488 207.636 109.429C204.941 108.37 204.267 109.237 203.641 109.14C203.016 109.044 202.583 107.841 202.486 107.504C202.39 107.167 204.219 104.232 205.229 102.74C206.24 101.248 209.272 101.537 209.705 101.441C210.138 101.344 213.17 101.441 213.17 101.441C213.17 101.441 212.977 100.478 214.084 97.7832C215.191 95.0882 212.256 90.0834 212.256 90.0834C210.234 88.7841 210.571 84.7417 210.571 84.7417C210.09 82.9611 211.63 78.8706 211.63 79.3518C211.63 79.8331 212.814 81.9986 212.814 81.9986C216.471 80.7474 215.335 75.887 215.335 75.887C215.335 75.887 214.806 70.834 214.666 70.2084C214.525 69.5828 215.335 69.679 215.335 69.679C215.492 69.7599 215.65 69.8369 215.809 69.91C218.342 71.1035 221.114 71.5385 223.081 71.6887C223.962 71.7633 224.847 71.7833 225.73 71.7483C234.521 70.3297 232.964 68.0678 232.906 67.987L233.334 68.1391C236.51 70.449 235.547 78.1006 235.547 78.1006L234.358 83.8119L233.474 88.0661C233.474 88.0661 236.602 107.027 236.891 107.989C237.18 108.952 235.403 111.787 235.403 111.787Z" fill="#FF630C"/>
<path opacity="0.1" d="M211.967 103.125C211.774 103.269 209.609 107.745 211.197 108.996C212.785 110.247 211.967 103.125 211.967 103.125Z" fill="black"/>
<path opacity="0.1" d="M213.507 103.754C213.555 103.899 218.03 111.021 220.485 111.598L213.507 103.754Z" fill="black"/>
<path opacity="0.1" d="M224.288 47.394L223.572 47.546C223.77 47.4732 223.971 47.4134 224.177 47.367L224.288 47.394Z" fill="black"/>
<path opacity="0.1" d="M235.072 78.1005L233.724 83.808C233.037 83.4944 232.405 83.0712 231.853 82.5549C231.424 82.1468 231.039 81.679 230.487 81.4114C229.776 81.0669 228.92 81.1131 228.113 81.0842C227.106 81.0466 226.108 80.8757 225.145 80.576C224.865 80.5059 224.603 80.3787 224.375 80.2026C223.917 79.7983 223.948 79.1458 223.99 78.576C224.074 77.4685 224.083 76.3566 224.019 75.2478C224.007 75.0399 223.992 74.832 223.975 74.6241C223.898 73.6944 223.647 72.6164 222.696 72.2179C222.208 72.0254 221.624 72.0408 221.157 71.8079C221.089 71.7739 221.025 71.734 220.964 71.6886C220.271 71.2035 220.208 70.2314 220.234 69.4133C220.276 68.2891 220.315 67.1643 220.352 66.0389C220.387 65.4838 220.375 64.9268 220.315 64.3738C220.269 64.0066 220.168 63.6484 220.015 63.3112C219.597 62.4181 218.727 61.6731 218.571 60.7299C218.563 60.686 218.557 60.6417 218.554 60.5971C218.473 59.7539 219.004 58.9686 219.191 58.1389C219.565 56.47 218.31 54.6413 216.464 54.162C215.886 54.0118 215.266 53.983 214.691 53.8116C214.599 53.7842 214.508 53.752 214.419 53.7154C215.813 51.8559 218.202 50.6355 220.914 50.6355C225.212 50.6355 228.698 53.7154 228.698 57.5172C228.698 59.6731 227.576 61.5961 225.823 62.8589C225.834 62.9128 225.848 62.9686 225.863 63.0225C226.315 64.7723 227.719 66.6048 227.719 66.6048L232.077 67.9908L232.562 68.1448C236.161 70.4528 235.072 78.1005 235.072 78.1005Z" fill="black"/>
<path opacity="0.1" d="M237.438 83.629C237.395 83.629 237.355 83.6194 237.314 83.6117C237.356 83.6073 237.399 83.6132 237.438 83.629Z" fill="black"/>
<path d="M222.554 47.2034C221.35 46.9236 220.118 46.7796 218.881 46.7742C218.479 46.7742 218.048 46.7953 217.726 47.0167C217.301 47.3151 217.247 47.8541 217.12 48.3199C216.89 49.0978 216.405 49.7758 215.743 50.2448C215.287 50.5779 214.75 50.8223 214.313 51.1727C213.876 51.523 213.543 52.0427 213.653 52.5548C213.763 53.0668 214.338 53.4614 214.916 53.625C215.493 53.7887 216.107 53.8175 216.689 53.9754C218.535 54.4547 219.788 56.2853 219.414 57.9504C219.222 58.78 218.696 59.5654 218.777 60.4085C218.871 61.4153 219.801 62.191 220.238 63.1246C220.637 63.9754 220.61 64.9302 220.579 65.8503L220.461 69.2267C220.431 70.116 220.508 71.1863 221.385 71.6213C221.855 71.8523 222.44 71.8273 222.925 72.0313C223.876 72.4279 224.127 73.5077 224.204 74.4356C224.314 75.7504 224.319 77.0718 224.219 78.3875C224.175 78.9649 224.144 79.6098 224.604 80.014C224.832 80.191 225.094 80.3182 225.374 80.3875C226.337 80.6872 227.335 80.8581 228.342 80.8957C229.151 80.9265 230.005 80.8803 230.716 81.2229C231.268 81.4905 231.653 81.9602 232.082 82.3663C233.313 83.4924 234.882 84.1795 236.544 84.3201C236.9 84.3509 237.305 84.3432 237.553 84.1142C237.801 83.8851 237.655 83.3904 237.301 83.4193C237.602 83.4698 237.911 83.439 238.196 83.33C238.481 83.221 238.731 83.0378 238.922 82.7994C239.084 82.5692 239.171 82.2946 239.171 82.0131C239.171 81.7316 239.084 81.457 238.922 81.2267C238.519 80.6493 237.665 80.2643 237.618 79.579C237.593 79.194 237.849 78.8456 238.05 78.503C238.532 77.6499 238.725 76.6631 238.599 75.6911C238.472 74.7192 238.034 73.8145 237.349 73.1131C236.446 72.1795 235.093 71.4712 234.777 70.2738C234.567 69.4731 234.885 68.6319 234.764 67.8176C234.571 66.4702 233.237 65.5077 232.504 64.3065C231.771 63.1054 231.642 61.652 231.828 60.2853C232.015 58.9186 232.489 57.5904 232.873 56.2622C233.16 55.2709 233.397 54.2179 233.078 53.2343C232.848 52.5355 232.356 51.9292 231.844 51.3575C230.617 49.9888 229.206 48.7068 227.462 47.8926C225.718 47.0783 223.593 46.7626 221.742 47.3651" fill="#474157"/>
<path opacity="0.1" d="M222.554 47.2034C221.35 46.9236 220.118 46.7796 218.881 46.7742C218.479 46.7742 218.048 46.7953 217.726 47.0167C217.301 47.3151 217.247 47.8541 217.12 48.3199C216.89 49.0978 216.405 49.7758 215.743 50.2448C215.287 50.5779 214.75 50.8223 214.313 51.1727C213.876 51.523 213.543 52.0427 213.653 52.5548C213.763 53.0668 214.338 53.4614 214.916 53.625C215.493 53.7887 216.107 53.8175 216.689 53.9754C218.535 54.4547 219.788 56.2853 219.414 57.9504C219.222 58.78 218.696 59.5654 218.777 60.4085C218.871 61.4153 219.801 62.191 220.238 63.1246C220.637 63.9754 220.61 64.9302 220.579 65.8503L220.461 69.2267C220.431 70.116 220.508 71.1863 221.385 71.6213C221.855 71.8523 222.44 71.8273 222.925 72.0313C223.876 72.4279 224.127 73.5077 224.204 74.4356C224.314 75.7504 224.319 77.0718 224.219 78.3875C224.175 78.9649 224.144 79.6098 224.604 80.014C224.832 80.191 225.094 80.3182 225.374 80.3875C226.337 80.6872 227.335 80.8581 228.342 80.8957C229.151 80.9265 230.005 80.8803 230.716 81.2229C231.268 81.4905 231.653 81.9602 232.082 82.3663C233.313 83.4924 234.882 84.1795 236.544 84.3201C236.9 84.3509 237.305 84.3432 237.553 84.1142C237.801 83.8851 237.655 83.3904 237.301 83.4193C237.602 83.4698 237.911 83.439 238.196 83.33C238.481 83.221 238.731 83.0378 238.922 82.7994C239.084 82.5692 239.171 82.2946 239.171 82.0131C239.171 81.7316 239.084 81.457 238.922 81.2267C238.519 80.6493 237.665 80.2643 237.618 79.579C237.593 79.194 237.849 78.8456 238.05 78.503C238.532 77.6499 238.725 76.6631 238.599 75.6911C238.472 74.7192 238.034 73.8145 237.349 73.1131C236.446 72.1795 235.093 71.4712 234.777 70.2738C234.567 69.4731 234.885 68.6319 234.764 67.8176C234.571 66.4702 233.237 65.5077 232.504 64.3065C231.771 63.1054 231.642 61.652 231.828 60.2853C232.015 58.9186 232.489 57.5904 232.873 56.2622C233.16 55.2709 233.397 54.2179 233.078 53.2343C232.848 52.5355 232.356 51.9292 231.844 51.3575C230.617 49.9888 229.206 48.7068 227.462 47.8926C225.718 47.0783 223.593 46.7626 221.742 47.3651" fill="black"/>
<path opacity="0.1" d="M212.256 90.0872C212.256 90.0872 213.892 90.7128 215.624 88.9803C217.357 87.2479 212.256 90.0872 212.256 90.0872Z" fill="black"/>
<g opacity="0.1">
<path opacity="0.1" d="M223.278 47.1745C223.595 47.1113 223.917 47.0708 224.24 47.0532C223.791 47.0257 223.34 47.0399 222.893 47.0956L223.278 47.1745Z" fill="black"/>
<path opacity="0.1" d="M232.929 82.3663C232.498 81.9601 232.115 81.4905 231.561 81.2229C230.852 80.8802 229.996 80.9264 229.187 80.8956C228.18 80.8588 227.182 80.6879 226.219 80.3875C225.939 80.3182 225.677 80.1909 225.449 80.014C224.991 79.6098 225.024 78.9592 225.064 78.3875C225.164 77.0718 225.159 75.7504 225.049 74.4355C224.97 73.5077 224.722 72.4278 223.769 72.0313C223.282 71.8273 222.698 71.8523 222.229 71.6213C221.351 71.1862 221.266 70.116 221.303 69.2267C221.343 68.1012 221.382 66.9764 221.42 65.8522C221.453 64.9302 221.478 63.9754 221.08 63.1246C220.643 62.191 219.713 61.4172 219.619 60.4085C219.54 59.5673 220.071 58.78 220.258 57.9504C220.631 56.2814 219.376 54.4547 217.53 53.9754C216.952 53.8252 216.333 53.7944 215.757 53.625C215.182 53.4556 214.623 53.0899 214.504 52.5663C214.385 52.0427 214.725 51.5345 215.162 51.1823C215.599 50.83 216.136 50.5875 216.594 50.2544C217.256 49.7858 217.74 49.1076 217.969 48.3295C218.098 47.8637 218.161 47.3266 218.575 47.0263C218.812 46.8792 219.085 46.7994 219.364 46.7953C219.193 46.7953 219.022 46.7857 218.852 46.7857C218.45 46.7857 218.019 46.8069 217.697 47.0263C217.272 47.3266 217.218 47.8637 217.091 48.3295C216.861 49.1074 216.376 49.7854 215.715 50.2544C215.259 50.5875 214.721 50.8319 214.285 51.1823C213.848 51.5326 213.515 52.0523 213.624 52.5663C213.734 53.0803 214.304 53.4537 214.879 53.625C215.455 53.7963 216.071 53.8175 216.652 53.9754C218.498 54.4547 219.751 56.2853 219.378 57.9504C219.185 58.78 218.66 59.5673 218.741 60.4085C218.835 61.4172 219.765 62.191 220.202 63.1246C220.6 63.9754 220.575 64.9302 220.542 65.8522C220.503 66.9764 220.464 68.1012 220.425 69.2267C220.394 70.116 220.471 71.1862 221.349 71.6213C221.819 71.8523 222.404 71.8273 222.889 72.0313C223.84 72.4278 224.09 73.5077 224.167 74.4355C224.277 75.7504 224.282 77.0718 224.183 78.3875C224.138 78.9649 224.107 79.6098 224.568 80.014C224.795 80.1909 225.058 80.3182 225.338 80.3875C226.3 80.6881 227.298 80.859 228.306 80.8956C229.114 80.9264 229.969 80.8802 230.679 81.2229C231.232 81.4905 231.617 81.9601 232.048 82.3663C233.278 83.4928 234.846 84.1799 236.508 84.3201C236.723 84.3457 236.941 84.3372 237.153 84.2951C235.577 84.1132 234.099 83.4381 232.929 82.3663Z" fill="black"/>
</g>
<path opacity="0.1" d="M203.064 76.5607C203.064 76.5607 201.524 77.9736 201.749 78.5511C201.975 79.1285 203.064 76.5607 203.064 76.5607Z" fill="black"/>
<path d="M204.492 94.7225C203.382 94.4511 200.319 94.2009 198.862 99.0883C198.523 100.224 198.091 101.329 197.57 102.393C196.173 105.264 194.367 111.165 202.308 112.465L221.365 116.796C221.365 116.796 231.567 118.047 232.24 117.566C232.914 117.085 232.818 116.026 232.818 116.026C232.818 116.026 221.557 116.026 219.343 112.561C217.13 109.096 217.033 104.38 217.033 104.38C217.033 104.38 217.311 97.0979 205.676 94.9824C205.291 94.9093 204.887 94.8188 204.492 94.7225Z" fill="#474157"/>
<path opacity="0.1" d="M204.492 94.7552C203.382 94.4838 200.319 94.2336 198.862 99.1229C198.523 100.258 198.091 101.364 197.57 102.428C196.173 105.296 194.367 111.198 202.308 112.497L221.365 116.829C221.365 116.829 231.567 118.08 232.24 117.599C232.914 117.117 232.818 116.059 232.818 116.059C232.818 116.059 221.557 116.059 219.343 112.594C217.13 109.129 217.033 104.413 217.033 104.413C217.033 104.413 217.311 97.1306 205.676 95.0151C205.291 94.942 204.887 94.8476 204.492 94.7552Z" fill="black"/>
<path d="M244.441 89.7427C244.33 89.0382 243.968 88.3978 243.421 87.9404C242.874 87.4829 242.179 87.2396 241.467 87.2557C238.726 87.3057 230.288 87.6715 226.369 90.2317C226.369 90.2317 223.386 92.1566 222.519 92.1566C221.653 92.1566 209.911 102.166 227.332 111.117C227.332 111.117 236.668 113.774 240.325 107.537C240.325 107.537 242.924 100.838 242.731 98.5185C242.539 96.199 244.464 89.9429 244.464 89.9429C244.464 89.9429 244.46 89.8678 244.441 89.7427Z" fill="#474157"/>
<path opacity="0.1" d="M244.441 91.4289C244.221 90.0814 242.939 89.1074 241.467 89.1324C238.726 89.1786 230.288 89.5174 226.369 91.8793C226.369 91.8793 223.386 93.656 222.519 93.656C221.653 93.656 209.911 102.896 227.332 111.16C227.332 111.16 236.668 113.612 240.325 107.854C240.325 107.854 242.924 101.67 242.731 99.529C242.539 97.3885 244.464 91.6137 244.464 91.6137C244.464 91.6137 244.46 91.5444 244.441 91.4289Z" fill="black"/>
<path d="M235.128 111.115H232.048V117.674H235.128V111.115Z" fill="#5F5D7E"/>
<path opacity="0.1" d="M122.469 84.4472C127.257 84.4472 131.139 84.1981 131.139 83.8909C131.139 83.5837 127.257 83.3346 122.469 83.3346C117.68 83.3346 113.799 83.5837 113.799 83.8909C113.799 84.1981 117.68 84.4472 122.469 84.4472Z" fill="black"/>
<path d="M129.745 62.4355C129.56 62.6886 129.412 62.9666 129.306 63.2613C129.279 63.3344 129.252 63.4153 129.225 63.4942C129.177 63.4712 129.126 63.4537 129.073 63.4422C128.849 63.386 128.617 63.3659 128.386 63.3825C128.386 63.294 128.397 63.19 128.399 63.1015C128.428 62.087 128.309 60.6722 127.341 61.2709C126.413 61.8484 127.075 62.8108 127.674 63.4287L127.828 63.5789C127.281 63.9639 127.177 64.8744 127.087 65.8195C126.996 66.7647 126.193 67.8003 125.66 68.3874C125.606 68.4471 125.558 68.501 125.51 68.551C125.295 68.3786 125.045 68.2539 124.778 68.1852C124.511 68.1165 124.232 68.1053 123.96 68.1525C123.939 68.0698 123.914 67.9831 123.889 67.8907C123.458 66.3354 122.563 63.6386 121.421 63.0476L121.572 62.8551C122.057 62.2199 122.603 61.2786 121.797 61.036C120.99 60.7935 120.917 61.8541 120.961 62.6472C120.961 62.7473 120.977 62.8397 120.984 62.9282C120.823 62.936 120.665 62.9766 120.521 63.0474C120.376 63.1182 120.247 63.2179 120.141 63.3402L120.016 63.1939C119.362 62.4239 118.163 61.1977 117.799 62.1236C117.46 62.986 118.517 64.1044 119.26 64.7531L119.306 64.7935C118.807 66.8205 120.979 68.4759 122.157 69.192L122.309 69.2844C120.692 71.1901 119.693 74.7609 119.693 74.7609L124.22 75.5693C124.22 75.5693 127.223 72.9803 126.838 70.5472H126.869C129.87 69.9466 130.551 66.7473 130.084 64.8474L130.138 64.8262C130.684 64.602 131.163 64.2398 131.527 63.7752C132.367 62.6068 130.603 61.2901 129.745 62.4355Z" fill="#FF630C"/>
<path opacity="0.1" d="M129.745 62.4355C129.56 62.6886 129.412 62.9666 129.306 63.2613C129.279 63.3344 129.252 63.4153 129.225 63.4942C129.177 63.4712 129.126 63.4537 129.073 63.4422C128.849 63.386 128.617 63.3659 128.386 63.3825C128.386 63.294 128.397 63.19 128.399 63.1015C128.428 62.087 128.309 60.6722 127.341 61.2709C126.413 61.8484 127.075 62.8108 127.674 63.4287L127.828 63.5789C127.281 63.9639 127.177 64.8744 127.087 65.8195C126.996 66.7647 126.193 67.8003 125.66 68.3874C125.606 68.4471 125.558 68.501 125.51 68.551C125.295 68.3786 125.045 68.2539 124.778 68.1852C124.511 68.1165 124.232 68.1053 123.96 68.1525C123.939 68.0698 123.914 67.9831 123.889 67.8907C123.458 66.3354 122.563 63.6386 121.421 63.0476L121.572 62.8551C122.057 62.2199 122.603 61.2786 121.797 61.036C120.99 60.7935 120.917 61.8541 120.961 62.6472C120.961 62.7473 120.977 62.8397 120.984 62.9282C120.823 62.936 120.665 62.9766 120.521 63.0474C120.376 63.1182 120.247 63.2179 120.141 63.3402L120.016 63.1939C119.362 62.4239 118.163 61.1977 117.799 62.1236C117.46 62.986 118.517 64.1044 119.26 64.7531L119.306 64.7935C118.807 66.8205 120.979 68.4759 122.157 69.192L122.309 69.2844C120.692 71.1901 119.693 74.7609 119.693 74.7609L124.22 75.5693C124.22 75.5693 127.223 72.9803 126.838 70.5472H126.869C129.87 69.9466 130.551 66.7473 130.084 64.8474L130.138 64.8262C130.684 64.602 131.163 64.2398 131.527 63.7752C132.367 62.6068 130.603 61.2901 129.745 62.4355Z" fill="black"/>
<path d="M120.732 63.7406L120.209 65.2902C120.209 65.2902 119.914 65.0823 119.543 64.755C118.8 64.1063 117.743 62.9879 118.082 62.1256C118.446 61.1997 119.645 62.422 120.299 63.1958C120.557 63.5019 120.732 63.7406 120.732 63.7406Z" fill="#FF630C"/>
<path d="M121.849 62.857C121.688 63.0681 121.516 63.2705 121.333 63.4633C121.288 63.1937 121.256 62.9219 121.239 62.6491C121.194 61.856 121.279 60.8031 122.074 61.0379C122.869 61.2728 122.326 62.2218 121.849 62.857Z" fill="#FF630C"/>
<path d="M128.679 63.1015C128.663 63.6116 128.613 64.0177 128.613 64.0177C128.38 63.8365 128.159 63.6397 127.953 63.4287C127.354 62.8069 126.692 61.8483 127.62 61.2708C128.586 60.6722 128.705 62.087 128.679 63.1015Z" fill="#FF630C"/>
<path d="M131.805 63.7695C131.439 64.2339 130.959 64.5954 130.411 64.8186C130.259 64.8842 130.104 64.9402 129.945 64.986L129.321 64.1102C129.387 63.8209 129.474 63.5366 129.579 63.2594C129.686 62.9647 129.834 62.6867 130.018 62.4336C130.885 61.2902 132.644 62.6068 131.805 63.7695Z" fill="#FF630C"/>
<path opacity="0.1" d="M120.293 63.1959C120.557 63.5019 120.732 63.7406 120.732 63.7406L120.209 65.2902C120.209 65.2902 119.914 65.0823 119.543 64.7551C119.626 64.2589 119.831 63.7912 120.139 63.3941C120.186 63.3229 120.241 63.2555 120.293 63.1959Z" fill="black"/>
<path opacity="0.1" d="M121.849 62.8571C121.688 63.0682 121.515 63.2707 121.333 63.4635C121.288 63.1938 121.256 62.9221 121.238 62.6492C121.459 62.6529 121.672 62.7256 121.849 62.8571Z" fill="black"/>
<path d="M124.444 69.0091L123.127 69.5866C123.127 69.5866 122.84 69.448 122.426 69.1901C121.042 68.3373 118.261 66.1949 120.126 63.6694C121.991 61.1438 123.547 65.6751 124.159 67.8888C124.353 68.5529 124.444 69.0091 124.444 69.0091Z" fill="#FF630C"/>
<path opacity="0.1" d="M127.951 63.4287C128.142 63.2305 128.402 63.1133 128.677 63.1014C128.661 63.6115 128.611 64.0177 128.611 64.0177C128.378 63.8365 128.157 63.6397 127.951 63.4287Z" fill="black"/>
<path opacity="0.1" d="M130.411 64.8186C130.259 64.8843 130.104 64.9402 129.945 64.9861L129.321 64.1102C129.387 63.8209 129.474 63.5366 129.579 63.2594C129.986 63.4981 130.282 64.0814 130.411 64.8186Z" fill="black"/>
<path d="M127.139 70.5413L126.917 70.5798C122.503 71.2516 125.462 68.8705 125.462 68.8705C125.462 68.8705 125.655 68.6876 125.93 68.3873C126.463 67.8002 127.264 66.7704 127.356 65.8195C127.495 64.3892 127.655 63.0475 129.343 63.4422C131.008 63.8291 131.325 69.704 127.139 70.5413Z" fill="#FF630C"/>
<path d="M127.064 81.5289H118.63V83.7465H127.064V81.5289Z" fill="#474157"/>
<path d="M128.309 74.322H117.291V82.0602H128.309V74.322Z" fill="#474157"/>
<path opacity="0.1" d="M126.983 81.5289H118.549V83.7465H126.983V81.5289Z" fill="black"/>
<path opacity="0.1" d="M128.274 74.3239H117.256V82.0621H128.274V74.3239Z" fill="black"/>
<path d="M127.618 81.5289H119.185V83.7465H127.618V81.5289Z" fill="#474157"/>
<path opacity="0.1" d="M124.166 67.8984C124.359 68.5606 124.451 69.0168 124.451 69.0168L123.135 69.5943C123.135 69.5943 122.848 69.4557 122.434 69.1978C122.95 68.5375 123.531 68.0428 124.166 67.8984Z" fill="black"/>
<path opacity="0.1" d="M127.139 70.5413L126.917 70.5798C122.503 71.2516 125.462 68.8705 125.462 68.8705C125.462 68.8705 125.655 68.6876 125.93 68.3873C126.754 69.0534 127.102 69.7906 127.139 70.5413Z" fill="black"/>
<path d="M119.97 74.7608C119.97 74.7608 122.442 65.906 125.908 68.6395C129.375 71.3729 124.497 75.5692 124.497 75.5692L119.97 74.7608Z" fill="#FF630C"/>
<path opacity="0.1" d="M121.217 65.3344C121.37 65.3344 121.495 65.2102 121.495 65.0572C121.495 64.9041 121.37 64.78 121.217 64.78C121.064 64.78 120.94 64.9041 120.94 65.0572C120.94 65.2102 121.064 65.3344 121.217 65.3344Z" fill="black"/>
<path opacity="0.1" d="M121.194 66.6298C121.347 66.6298 121.472 66.5057 121.472 66.3526C121.472 66.1995 121.347 66.0754 121.194 66.0754C121.041 66.0754 120.917 66.1995 120.917 66.3526C120.917 66.5057 121.041 66.6298 121.194 66.6298Z" fill="black"/>
<path opacity="0.1" d="M129.235 65.5885C129.388 65.5885 129.512 65.4644 129.512 65.3113C129.512 65.1582 129.388 65.0341 129.235 65.0341C129.082 65.0341 128.958 65.1582 128.958 65.3113C128.958 65.4644 129.082 65.5885 129.235 65.5885Z" fill="black"/>
<path opacity="0.1" d="M122.765 72.2198C122.918 72.2198 123.042 72.0957 123.042 71.9427C123.042 71.7896 122.918 71.6655 122.765 71.6655C122.612 71.6655 122.488 71.7896 122.488 71.9427C122.488 72.0957 122.612 72.2198 122.765 72.2198Z" fill="black"/>
<path opacity="0.1" d="M128.657 67.7386C128.81 67.7386 128.935 67.6145 128.935 67.4615C128.935 67.3084 128.81 67.1843 128.657 67.1843C128.504 67.1843 128.38 67.3084 128.38 67.4615C128.38 67.6145 128.504 67.7386 128.657 67.7386Z" fill="black"/>
<path opacity="0.1" d="M125.793 70.603C125.946 70.603 126.07 70.4789 126.07 70.3258C126.07 70.1727 125.946 70.0486 125.793 70.0486C125.64 70.0486 125.516 70.1727 125.516 70.3258C125.516 70.4789 125.64 70.603 125.793 70.603Z" fill="black"/>
<path opacity="0.1" d="M122.165 65.8888C122.318 65.8888 122.442 65.7647 122.442 65.6116C122.442 65.4585 122.318 65.3344 122.165 65.3344C122.011 65.3344 121.887 65.4585 121.887 65.6116C121.887 65.7647 122.011 65.8888 122.165 65.8888Z" fill="black"/>
<path opacity="0.1" d="M128.473 66.4221C128.626 66.4221 128.75 66.298 128.75 66.1449C128.75 65.9918 128.626 65.8677 128.473 65.8677C128.319 65.8677 128.195 65.9918 128.195 66.1449C128.195 66.298 128.319 66.4221 128.473 66.4221Z" fill="black"/>
<path opacity="0.1" d="M127.525 68.5703C127.679 68.5703 127.803 68.4461 127.803 68.2931C127.803 68.14 127.679 68.0159 127.525 68.0159C127.372 68.0159 127.248 68.14 127.248 68.2931C127.248 68.4461 127.372 68.5703 127.525 68.5703Z" fill="black"/>
<path opacity="0.1" d="M124.613 72.012C124.766 72.012 124.89 71.8879 124.89 71.7348C124.89 71.5817 124.766 71.4576 124.613 71.4576C124.46 71.4576 124.336 71.5817 124.336 71.7348C124.336 71.8879 124.46 72.012 124.613 72.012Z" fill="black"/>
<path opacity="0.1" d="M124.013 70.6492C124.166 70.6492 124.29 70.5251 124.29 70.372C124.29 70.2189 124.166 70.0948 124.013 70.0948C123.859 70.0948 123.735 70.2189 123.735 70.372C123.735 70.5251 123.859 70.6492 124.013 70.6492Z" fill="black"/>
<path opacity="0.1" d="M122.58 67.577C122.733 67.577 122.857 67.4529 122.857 67.2998C122.857 67.1467 122.733 67.0226 122.58 67.0226C122.427 67.0226 122.303 67.1467 122.303 67.2998C122.303 67.4529 122.427 67.577 122.58 67.577Z" fill="black"/>
<path opacity="0.1" d="M127.618 81.5289H119.185V82.3393H127.618V81.5289Z" fill="black"/>
<path d="M128.863 74.322H117.845V82.0602H128.863V74.322Z" fill="#474157"/>
<path opacity="0.1" d="M124.983 73.2593C125.136 73.2593 125.26 73.1352 125.26 72.9821C125.26 72.8291 125.136 72.705 124.983 72.705C124.83 72.705 124.706 72.8291 124.706 72.9821C124.706 73.1352 124.83 73.2593 124.983 73.2593Z" fill="black"/>
<path opacity="0.1" d="M123.319 73.6058C123.473 73.6058 123.597 73.4817 123.597 73.3286C123.597 73.1756 123.473 73.0515 123.319 73.0515C123.166 73.0515 123.042 73.1756 123.042 73.3286C123.042 73.4817 123.166 73.6058 123.319 73.6058Z" fill="black"/>
<path d="M149.736 103.895C149.736 103.895 151.108 105.691 149.102 108.401C147.096 111.111 145.445 113.406 146.107 115.092C146.107 115.092 149.137 110.057 151.603 109.987C154.069 109.918 152.448 106.925 149.736 103.895Z" fill="#FF630C"/>
<path opacity="0.1" d="M149.735 103.895C149.855 104.068 149.95 104.257 150.016 104.457C152.421 107.283 153.703 109.92 151.391 109.987C149.237 110.055 146.654 113.904 146.034 114.867C146.055 114.942 146.08 115.017 146.107 115.088C146.107 115.088 149.137 110.053 151.603 109.983C154.068 109.914 152.448 106.925 149.735 103.895Z" fill="black"/>
<path d="M152.288 106.186C152.288 106.817 152.217 107.329 152.13 107.329C152.043 107.329 151.972 106.817 151.972 106.186C151.972 105.554 152.061 105.851 152.147 105.851C152.234 105.851 152.288 105.552 152.288 106.186Z" fill="#FFD037"/>
<path d="M153.164 106.94C152.609 107.242 152.126 107.425 152.084 107.348C152.041 107.271 152.457 106.963 153.013 106.661C153.57 106.359 153.348 106.578 153.398 106.661C153.448 106.744 153.72 106.638 153.164 106.94Z" fill="#FFD037"/>
<path d="M142.48 103.895C142.48 103.895 141.108 105.691 143.114 108.401C145.119 111.111 146.771 113.406 146.107 115.092C146.107 115.092 143.079 110.057 140.613 109.987C138.147 109.918 139.768 106.925 142.48 103.895Z" fill="#FF630C"/>
<path opacity="0.1" d="M142.48 103.895C142.36 104.068 142.266 104.257 142.199 104.457C139.795 107.283 138.513 109.92 140.825 109.987C142.979 110.055 145.562 113.904 146.182 114.867C146.161 114.942 146.136 115.016 146.107 115.088C146.107 115.088 143.079 110.055 140.613 109.989C138.147 109.924 139.768 106.925 142.48 103.895Z" fill="black"/>
<path d="M139.928 106.186C139.928 106.817 139.999 107.329 140.086 107.329C140.172 107.329 140.244 106.817 140.244 106.186C140.244 105.554 140.155 105.851 140.069 105.851C139.982 105.851 139.928 105.552 139.928 106.186Z" fill="#FFD037"/>
<path d="M139.052 106.94C139.606 107.242 140.09 107.425 140.132 107.348C140.174 107.271 139.759 106.963 139.202 106.661C138.646 106.359 138.867 106.578 138.817 106.661C138.767 106.744 138.496 106.638 139.052 106.94Z" fill="#FFD037"/>
<path opacity="0.1" d="M146.107 128.834C154.038 128.834 160.467 127.848 160.467 126.63C160.467 125.413 154.038 124.426 146.107 124.426C138.176 124.426 131.747 125.413 131.747 126.63C131.747 127.848 138.176 128.834 146.107 128.834Z" fill="#FF630C"/>
<path d="M153.499 112.674L153.429 113.235L153.333 114.028L153.295 114.357L153.196 115.15L153.156 115.481L153.06 116.272L151.97 125.281C151.872 126.085 150.557 126.711 148.973 126.711H143.252C141.666 126.711 140.365 126.085 140.257 125.281L139.156 116.272L139.06 115.481L139.019 115.15L138.921 114.357L138.882 114.028L138.786 113.235L138.717 112.674C138.661 112.22 139.371 111.835 140.27 111.835H151.947C152.842 111.835 153.554 112.22 153.499 112.674Z" fill="#65617D"/>
<path d="M153.429 113.235L153.333 114.026H138.883L138.786 113.235H153.429Z" fill="#9D9CB5"/>
<path d="M153.295 114.357L153.198 115.15H139.019L138.921 114.357H153.295Z" fill="#9D9CB5"/>
<path d="M153.156 115.479L153.06 116.272H139.156L139.06 115.479H153.156Z" fill="#9D9CB5"/>
<path opacity="0.1" d="M208.514 141.445C217.469 141.445 224.729 140.721 224.729 139.828C224.729 138.935 217.469 138.211 208.514 138.211C199.558 138.211 192.298 138.935 192.298 139.828C192.298 140.721 199.558 141.445 208.514 141.445Z" fill="#FF630C"/>
<path d="M248.584 71.5694L258.233 77.14L258.233 88.2932L248.584 82.7226L248.584 71.5694Z" fill="#FF5B00"/>
<path d="M251.529 75.4597L253.116 76.3757L253.116 82.9589L251.529 82.0428L251.529 75.4597Z" fill="white"/>
<path d="M258.232 77.1445L267.881 71.574L267.881 82.7228L258.232 88.2933L258.232 77.1445Z" fill="#CB4600"/>
<path d="M260.823 78.7742L262.495 77.8088L263.347 80.4919L264.137 76.8613L265.696 75.9609L264.059 82.003C263.872 82.6915 263.682 83.1937 263.487 83.5095C263.212 83.9556 262.794 84.341 262.231 84.6659C262.003 84.7976 261.65 84.9652 261.173 85.1688L261.049 83.9653C261.277 83.9174 261.531 83.8127 261.811 83.651C261.998 83.5432 262.148 83.407 262.262 83.2423C262.379 83.0762 262.477 82.8427 262.558 82.5418L260.823 78.7742Z" fill="white"/>
<path d="M248.58 71.5774L258.227 66.0074L267.885 71.5832L258.238 77.1533L248.58 71.5774Z" fill="#FF690E"/>
<rect width="1.11401" height="11.1518" transform="matrix(0.866025 -0.5 0.866025 0.5 253.026 69.0048)" fill="#EE8E09"/>
<rect x="3.88855" y="13.6355" width="62.2168" height="123.727" rx="3.53505" fill="white"/>
<rect x="14.4937" y="57.4103" width="41.0517" height="38.6369" fill="#FF630C"/>
<path d="M23.6763 66.2527H29.4492V86.9955H23.6763V66.2527ZM31.9678 71.969H38.052L41.1507 81.9726L44.023 71.969H49.6968L43.74 88.0284C43.0608 89.8584 42.3675 91.0941 41.6601 91.7355C40.6602 92.6411 39.1368 93.0939 37.0899 93.0939C36.2598 93.0939 34.9769 92.9807 33.2413 92.7543L32.7885 88.7359C33.6186 89 34.543 89.1321 35.5617 89.1321C36.2409 89.1321 36.788 88.9764 37.203 88.6652C37.6275 88.3539 37.986 87.7973 38.2784 86.9955L31.9678 71.969Z" fill="white"/>
<defs>
<linearGradient id="paint0_linear" x1="220.242" y1="146.118" x2="220.242" y2="46.7742" gradientUnits="userSpaceOnUse">
<stop stop-color="#808080" stop-opacity="0.25"/>
<stop offset="0.54" stop-color="#808080" stop-opacity="0.12"/>
<stop offset="1" stop-color="#808080" stop-opacity="0.1"/>
</linearGradient>
</defs>
</svg>
