<svg width="126" height="157" viewBox="0 0 126 157" fill="none" xmlns="http://www.w3.org/2000/svg">
<path d="M78.0414 37.1933H77.1815V13.635C77.1815 10.0188 75.745 6.55065 73.188 3.99359C70.6309 1.43654 67.1628 0 63.5466 0H13.635C10.0188 0 6.55065 1.43654 3.99359 3.99359C1.43654 6.55065 0 10.0188 0 13.635V142.878C0 146.494 1.43654 149.962 3.99359 152.519C6.55065 155.076 10.0188 156.513 13.635 156.513H63.5466C67.1628 156.513 70.6309 155.076 73.188 152.519C75.745 149.962 77.1815 146.494 77.1815 142.878V53.9625H78.0414V37.1933Z" fill="#3F3D56"/>
<path d="M97.8798 153.029H94.0915L92.2894 138.417H97.8805L97.8798 153.029Z" fill="#A0616A"/>
<path d="M90.2698 151.947H98.6916V156.547H86.7857V155.431C86.7857 154.507 87.1527 153.621 87.8061 152.967C88.4595 152.314 89.3457 151.947 90.2698 151.947Z" fill="#2F2E41"/>
<path d="M113.021 153.029H109.233L107.43 138.417H113.022L113.021 153.029Z" fill="#A0616A"/>
<path d="M105.411 151.947H113.833V156.547H101.927V155.431C101.927 154.507 102.294 153.621 102.947 152.967C103.601 152.314 104.487 151.947 105.411 151.947Z" fill="#2F2E41"/>
<path d="M91.2798 110.907C91.5888 110.617 91.8305 110.263 91.9879 109.87C92.1452 109.476 92.2144 109.053 92.1906 108.63C92.1668 108.208 92.0506 107.795 91.8501 107.422C91.6496 107.049 91.3697 106.724 91.0301 106.471L92.6532 100.052L88.9928 98.114L86.8282 107.211C86.4402 107.81 86.2854 108.53 86.393 109.235C86.5006 109.94 86.8632 110.582 87.4121 111.037C87.961 111.493 88.6579 111.731 89.3709 111.707C90.0838 111.683 90.7631 111.398 91.2801 110.907H91.2798Z" fill="#A0616A"/>
<path d="M114.368 99.6947L114.059 121.325L113.751 149.752L106.953 149.134L103.553 109.892L99.2274 149.134H92.2091L91.5023 109.582L93.9746 100.931L114.368 99.6947Z" fill="#2F2E41"/>
<path d="M93.2958 101.063L93.1963 101.018L97.0705 74.5184L95.1009 66.509C94.9985 66.0922 95.0525 65.6524 95.2527 65.2728C95.4529 64.8932 95.7855 64.6003 96.1873 64.4495L99.7311 63.1206L100.983 59.6777L110.861 60.7421L111.104 63.4335C112.174 63.7769 120.989 66.7124 120.38 70.0568C119.78 73.3583 116.236 83.7453 116.056 84.2717L115.436 99.1681L115.359 99.2063C115.267 99.2531 108.459 102.6 101.062 102.6C98.4581 102.599 95.7789 102.184 93.2958 101.063Z" fill="#CCCCCC"/>
<path d="M86.7 103.844L89.814 83.9132C89.8325 83.7961 91.6751 72.1282 92.2862 68.4621C92.9181 64.677 95.8473 64.6332 95.8768 64.6332H97.4893L99.3754 73.1206L95.6596 90.15L92.2316 104.262L86.7 103.844Z" fill="#CCCCCC"/>
<path d="M106.9 101.877C106.92 101.454 107.033 101.04 107.23 100.666C107.427 100.291 107.704 99.9635 108.041 99.7072C108.379 99.4509 108.768 99.2717 109.182 99.1822C109.596 99.0926 110.025 99.0949 110.438 99.189L114.269 93.789L118.119 95.317L112.601 102.867C112.397 103.55 111.949 104.135 111.343 104.511C110.736 104.886 110.013 105.027 109.311 104.904C108.608 104.782 107.974 104.407 107.53 103.849C107.086 103.291 106.862 102.589 106.9 101.877V101.877Z" fill="#A0616A"/>
<path d="M111.104 97.2333L117.917 85.7756L115.141 78.3742L118.921 68.2933L119.061 68.3532C119.153 68.3923 121.301 69.3509 121.619 72.7835L125.963 86.4365L114.37 101.477L111.104 97.2333Z" fill="#CCCCCC"/>
<path d="M105.642 62.4358C109.57 62.4358 112.754 59.2516 112.754 55.3237C112.754 51.3957 109.57 48.2115 105.642 48.2115C101.714 48.2115 98.5295 51.3957 98.5295 55.3237C98.5295 59.2516 101.714 62.4358 105.642 62.4358Z" fill="#A0616A"/>
<path d="M100.738 51.1424C101.474 52.0137 102.72 52.2594 103.87 52.3594C106.204 52.5642 109.598 52.2321 111.879 51.7055C112.043 53.2834 111.598 54.9848 112.527 56.283C112.963 54.7115 113.216 53.095 113.282 51.4656C113.31 50.7668 113.299 50.0438 113.015 49.4023C112.732 48.7608 112.112 48.2162 111.399 48.2106C111.929 47.8087 112.55 47.5435 113.206 47.4383L110.948 46.3034L111.528 45.7081L107.44 45.4579L108.624 44.7057C106.841 44.4608 105.037 44.4041 103.242 44.5365C102.409 44.5978 101.538 44.715 100.863 45.1979C100.188 45.6807 99.798 46.64 100.217 47.3487C99.6925 47.4348 99.1985 47.6535 98.782 47.984C98.3656 48.3144 98.0403 48.7458 97.8372 49.2371C97.5362 50.0001 97.5638 50.8475 97.6565 51.6605C97.8105 52.9608 98.1127 54.2393 98.5571 55.4709" fill="#2F2E41"/>
<rect x="4.68602" y="9.77687" width="68.8292" height="136.876" rx="3.91075" fill="white"/>
<rect x="16.4183" y="58.2041" width="45.4147" height="42.7433" fill="#FF630C"/>
<path d="M26.5769 67.5853H32.9633V90.5327H26.5769V67.5853ZM35.7496 73.9091H42.4804L45.9084 84.9758L49.086 73.9091H55.3628L48.7729 91.6753C48.0215 93.6998 47.2545 95.0668 46.4719 95.7764C45.3657 96.7782 43.6804 97.2791 41.416 97.2791C40.4976 97.2791 39.0784 97.1539 37.1583 96.9034L36.6574 92.458C37.5757 92.7502 38.5984 92.8963 39.7254 92.8963C40.4768 92.8963 41.082 92.7241 41.5412 92.3797C42.0108 92.0353 42.4073 91.4197 42.7308 90.5327L35.7496 73.9091Z" fill="white"/>
</svg>
