<svg width="293" height="182" viewBox="0 0 293 182" fill="none" xmlns="http://www.w3.org/2000/svg">
<path d="M47.8947 181.06H46.4358V179.175H47.8947V181.06ZM47.8947 177.291H46.4358V175.406H47.8947V177.291Z" fill="#E6E6E6"/>
<path d="M28.2216 161.828C27.8073 161.829 27.4101 161.994 27.1172 162.287C26.8242 162.58 26.6595 162.977 26.659 163.391V167.047C26.6595 167.461 26.8242 167.858 27.1172 168.151C27.4101 168.444 27.8073 168.609 28.2216 168.609H30.2036C30.6179 168.609 31.0151 168.444 31.308 168.151C31.6009 167.858 31.7657 167.461 31.7662 167.047V163.391C31.7657 162.977 31.6009 162.58 31.308 162.287C31.0151 161.994 30.6179 161.829 30.2036 161.828H28.2216Z" fill="#3F3D56"/>
<path d="M64.8595 168.731H62.8775C62.431 168.73 62.0029 168.553 61.6872 168.237C61.3714 167.921 61.1938 167.493 61.1933 167.047V163.391C61.1938 162.944 61.3714 162.516 61.6872 162.201C62.0029 161.885 62.431 161.707 62.8775 161.707H64.8595C65.306 161.707 65.7341 161.885 66.0499 162.201C66.3656 162.516 66.5432 162.944 66.5437 163.391V167.047C66.5432 167.493 66.3656 167.921 66.0499 168.237C65.7341 168.553 65.306 168.73 64.8595 168.731Z" fill="#3F3D56"/>
<path d="M63.5444 165.804H29.415C27.8618 165.804 26.5982 164.888 26.5982 163.763V157.2L28.2922 155.416H64.9968L66.3613 157.204V163.763C66.3613 164.888 65.0976 165.804 63.5444 165.804Z" fill="#EE8E09"/>
<path d="M64.8374 158.699H28.4867L28.1173 153.035L28.3524 152.455L29.7188 149.093H63.3593L65.2069 152.911L64.8374 158.699Z" fill="#EE8E09"/>
<path d="M65.1453 152.923L64.8741 157.179H56.8765V154.017L64.9179 152.454L65.1453 152.923Z" fill="black" fill-opacity="0.8"/>
<path d="M36.3262 154.017V157.179H28.4489L28.1789 153.045L28.4088 152.478L36.3262 154.017Z" fill="black" fill-opacity="0.8"/>
<path d="M63.1566 150.065H29.9212L33.466 138.25C33.6106 137.762 33.9083 137.333 34.3152 137.027C34.7221 136.721 35.2166 136.555 35.7255 136.552L57.7362 136.342C58.268 136.337 58.7863 136.51 59.2084 136.833C59.6306 137.157 59.9323 137.612 60.0655 138.127L63.1566 150.065Z" fill="#EE8E09"/>
<path d="M60.5981 148.948L32.4743 148.615C32.4388 148.614 32.4038 148.605 32.3722 148.589C32.3407 148.573 32.3134 148.549 32.2926 148.52C32.2718 148.491 32.2581 148.458 32.2526 148.423C32.247 148.388 32.2497 148.352 32.2606 148.318L34.9567 139.906C34.9714 139.86 35.0003 139.82 35.0392 139.792C35.0781 139.764 35.125 139.748 35.1731 139.748H57.7936C57.8418 139.748 57.8887 139.764 57.9275 139.792C57.9664 139.82 57.9953 139.86 58.01 139.906L60.8172 148.651C60.8282 148.686 60.8309 148.722 60.825 148.758C60.8192 148.793 60.805 148.827 60.7836 148.856C60.7622 148.885 60.7342 148.908 60.702 148.924C60.6697 148.94 60.6341 148.949 60.5981 148.948Z" fill="black" fill-opacity="0.8"/>
<path d="M51.4131 137.784H42.7726C42.6998 137.784 42.6337 137.712 42.6002 137.597C42.5668 137.479 42.5716 137.353 42.614 137.238L43.3265 135.436C43.3628 135.344 43.4221 135.289 43.4851 135.289H50.7006C50.7636 135.289 50.8229 135.344 50.8592 135.436L51.5717 137.238C51.614 137.353 51.6189 137.479 51.5855 137.597C51.552 137.712 51.4859 137.784 51.4131 137.784Z" fill="#FF630C"/>
<path d="M29.9422 149.822H24.9566V148.726C24.957 148.372 25.0979 148.033 25.3484 147.782C25.5989 147.532 25.9385 147.391 26.2927 147.39H29.9422V149.822Z" fill="#EE8E09"/>
<path d="M68.1245 149.822H63.1389V147.39H66.7883C67.1426 147.391 67.4822 147.532 67.7327 147.782C67.9832 148.033 68.1241 148.372 68.1245 148.726V149.822Z" fill="#EE8E09"/>
<path d="M24.3733 166.905L0 175.66L0.103466 175.948L24.4767 167.193L24.3733 166.905Z" fill="#3F3D56"/>
<path d="M68.5541 166.905L68.4506 167.193L92.8246 175.947L92.928 175.659L68.5541 166.905Z" fill="#3F3D56"/>
<path d="M47.8947 173.254H46.4358V171.37H47.8947V173.254ZM47.8947 169.485H46.4358V167.601H47.8947V169.485Z" fill="#E6E6E6"/>
<path d="M45.7341 137.748V136.838H45.409V136.653H46.2796V136.838H45.9553V137.748H45.7341ZM47.2975 137.748H47.0569L46.9612 137.499H46.5233L46.4328 137.748H46.1982L46.6249 136.653H46.8588L47.2975 137.748ZM46.8902 137.315L46.7392 136.908L46.5913 137.315H46.8902ZM47.3042 137.748L47.6786 137.176L47.3394 136.653H47.5979L47.8176 137.005L48.0329 136.653H48.2892L47.9484 137.185L48.3228 137.748H48.056L47.8132 137.369L47.5695 137.748H47.3042ZM48.4297 137.748V136.653H48.6509V137.748H48.4297Z" fill="white"/>
<path d="M97.9848 130.43L102.843 135.487L100.89 142.231L96.0319 137.173L97.9848 130.43Z" fill="#FF5B00"/>
<path d="M99.1661 133.015L99.965 133.846L98.8123 137.827L98.0134 136.995L99.1661 133.015Z" fill="white"/>
<path d="M102.842 135.49L109.651 133.811L107.699 140.552L100.89 142.231L102.842 135.49Z" fill="#CB4600"/>
<path d="M104.205 136.646L105.385 136.355L105.431 138.127L106.544 136.07L107.644 135.798L105.596 139.165C105.363 139.548 105.16 139.819 104.987 139.976C104.743 140.197 104.422 140.357 104.025 140.455C103.864 140.494 103.621 140.534 103.297 140.574L103.433 139.824C103.579 139.835 103.751 139.816 103.949 139.768C104.08 139.735 104.195 139.679 104.293 139.599C104.393 139.519 104.493 139.396 104.594 139.228L104.205 136.646Z" fill="white"/>
<path d="M97.981 130.434L104.789 128.755L109.652 133.818L102.844 135.496L97.981 130.434Z" fill="#FF690E"/>
<rect width="0.701221" height="7.01958" transform="matrix(0.970932 -0.239354 0.692753 0.721175 101.119 129.657)" fill="#EE8E09"/>
<path d="M96.569 145.703C96.2928 145.874 95.9608 145.932 95.6427 145.865C95.3247 145.797 95.0452 145.608 94.8629 145.339L93.6471 143.543L94.7687 142.248L96.6465 143.617C96.813 143.739 96.9471 143.899 97.0371 144.084C97.1271 144.27 97.1701 144.475 97.1625 144.681C97.1548 144.886 97.0967 145.087 96.9932 145.266C96.8897 145.444 96.7441 145.594 96.569 145.703Z" fill="#FFB9B9"/>
<path d="M84.0234 123.644C85.721 123.644 87.0971 122.268 87.0971 120.57C87.0971 118.873 85.721 117.497 84.0234 117.497C82.3258 117.497 80.9496 118.873 80.9496 120.57C80.9496 122.268 82.3258 123.644 84.0234 123.644Z" fill="#FFB9B9"/>
<path d="M84.9015 127.45L79.6322 126.133C80.7741 124.419 81.5028 122.819 81.3886 121.449H84.7551C84.5448 123.67 84.5449 125.712 84.9015 127.45Z" fill="#FFB9B9"/>
<path d="M86.6581 146.039H78.6077C76.9252 137.572 77.3536 130.34 80.2178 124.669C80.3029 124.465 80.3485 124.246 80.352 124.025C80.3587 123.947 80.3847 123.871 80.4276 123.805C80.4705 123.739 80.529 123.685 80.598 123.647C80.6669 123.609 80.7442 123.589 80.8229 123.588C80.9016 123.587 80.9792 123.606 81.049 123.642C82.2436 124.262 83.5151 124.721 84.8302 125.007C84.9039 125.023 84.9728 125.056 85.0312 125.104C85.0896 125.152 85.1358 125.213 85.1661 125.282C85.1964 125.351 85.2099 125.426 85.2055 125.502C85.2011 125.577 85.179 125.65 85.1408 125.715C85.0971 125.775 85.0663 125.842 85.0503 125.914C85.0343 125.986 85.0335 126.06 85.048 126.133C86.9621 132.584 87.5104 139.364 86.6581 146.039Z" fill="#FF630C"/>
<path d="M85.7797 170.629L83.4378 170.922L81.9742 150.137L76.9976 170.336L74.5093 170.483L76.9976 144.575H87.0971L85.7797 170.629Z" fill="#2F2E41"/>
<path d="M77.251 175.165L75.5249 175.322C74.3582 174.973 74.5918 173.668 74.4036 172.171L74.6662 170.07L75.0336 169.994C75.5735 168.897 76.1898 168.789 76.8959 169.845L77.1004 169.808L77.363 171.515L78.0818 173.94C78.122 174.076 78.1316 174.219 78.1099 174.359C78.0882 174.499 78.0357 174.632 77.9562 174.749C77.8767 174.866 77.7723 174.965 77.6503 175.036C77.5284 175.108 77.392 175.152 77.251 175.165Z" fill="#2F2E41"/>
<path d="M86.0333 175.165L84.3072 175.322C83.1405 174.973 83.3741 173.668 83.1859 172.171L83.4485 170.07L83.8159 169.994C84.3558 168.897 84.9721 168.789 85.6783 169.845L85.8827 169.808L86.1453 171.515L86.8641 173.94C86.9043 174.076 86.9139 174.219 86.8922 174.359C86.8705 174.499 86.818 174.632 86.7385 174.749C86.659 174.866 86.5546 174.965 86.4326 175.036C86.3107 175.108 86.1743 175.152 86.0333 175.165Z" fill="#2F2E41"/>
<path d="M86.6356 120.304L85.261 119.412C85.0436 119.271 84.7969 119.181 84.5397 119.149C84.2824 119.116 84.0212 119.143 83.7757 119.226C83.5301 119.309 83.3066 119.447 83.1218 119.629C82.9371 119.811 82.796 120.032 82.709 120.276L81.901 122.546L81.3155 122.254C80.2804 120.464 79.7907 118.765 81.4619 117.423C81.912 116.336 83.496 115.938 84.6709 116.013C86.1177 116.107 87.6094 117.291 87.6094 118.741L87.4171 119.791C87.4335 119.889 87.4212 119.99 87.3815 120.08C87.3418 120.171 87.2766 120.249 87.1937 120.303C87.1109 120.357 87.014 120.386 86.9149 120.387C86.8158 120.387 86.7187 120.358 86.6356 120.304Z" fill="#2F2E41"/>
<path d="M82.7061 152.333L73.192 150.576C75.8573 142.389 76.9812 134.399 75.4032 126.753C75.3274 126.39 75.3965 126.012 75.5956 125.699C75.7947 125.387 76.1081 125.165 76.4688 125.08L79.4859 124.376L81.096 123.205L82.7061 125.401V152.333Z" fill="#2F2E41"/>
<path d="M88.1216 151.747L85.1942 152.479C85.9193 144.514 85.3035 135.664 83.8769 126.279L84.6087 124.669L85.2674 125.181L87.6317 127.757C87.8272 127.888 87.9873 128.065 88.0975 128.272C88.2077 128.48 88.2647 128.711 88.2632 128.946L88.1216 151.747Z" fill="#2F2E41"/>
<path d="M95.4757 142.257L93.4142 143.871L87.212 134.677L88.167 128.359L95.4757 142.257Z" fill="#2F2E41"/>
<path d="M89.2811 137.81C89.1535 138.109 88.9151 138.348 88.6159 138.475C88.3166 138.602 87.9797 138.609 87.6758 138.493L85.6485 137.721L85.8226 136.017L88.1464 136.059C88.3524 136.063 88.5544 136.117 88.7346 136.217C88.9147 136.317 89.0676 136.46 89.1796 136.633C89.2917 136.806 89.3595 137.004 89.3772 137.209C89.3949 137.414 89.3619 137.621 89.2811 137.81Z" fill="#FFB9B9"/>
<path d="M85.6921 135.647L86.8174 138.685C83.5747 139.093 80.5934 138.499 78.0127 136.369L75.3797 128.952C75.1427 128.284 75.0969 127.564 75.2477 126.871C75.3985 126.179 75.7398 125.542 76.2331 125.034L80.8597 130.329L81.461 134.351L85.6921 135.647Z" fill="#2F2E41"/>
<path d="M83.3363 120.053C83.4611 119.755 83.4111 119.45 83.2247 119.372C83.0383 119.294 82.7859 119.472 82.6611 119.771C82.5363 120.069 82.5863 120.374 82.7727 120.452C82.9591 120.53 83.2114 120.351 83.3363 120.053Z" fill="#FFB9B9"/>
<path d="M111.998 174.55H110.391L109.627 168.353H111.998V174.55Z" fill="#FFB8B8"/>
<path d="M112.408 176.108H107.227V176.042C107.227 175.508 107.44 174.995 107.818 174.617C108.196 174.239 108.709 174.026 109.243 174.026H112.408L112.408 176.108Z" fill="#2F2E41"/>
<path d="M132.718 171.506L131.341 172.333L127.493 167.414L129.526 166.193L132.718 171.506Z" fill="#FFB8B8"/>
<path d="M129.431 175.298L129.397 175.242C129.122 174.783 129.04 174.234 129.17 173.715C129.299 173.197 129.629 172.75 130.087 172.474L132.799 170.845L133.872 172.63L129.431 175.298Z" fill="#2F2E41"/>
<path d="M112.416 173.271L112.388 173.271C111.606 173.269 110.825 173.224 110.049 173.136C109.753 173.107 109.431 173.076 109.045 173.044L109.031 173.041C108.767 172.963 108.76 170.487 108.872 162.011C108.929 157.67 108.994 152.75 108.917 149.617L108.916 149.586L108.939 149.566C111.806 147.073 115.486 146.138 119.304 146.935L119.332 146.94L119.347 146.965C120.926 149.637 123.311 153.486 125.616 157.208C130.91 165.753 132.423 168.265 132.257 168.455L132.237 168.47C131.876 168.651 131.605 168.79 131.374 168.909C130.601 169.305 130.282 169.469 128.563 170.176L128.521 170.194L128.49 170.16C123.119 164.275 118.65 157.7 115.885 151.623C115.562 153.698 115.17 156.407 114.756 159.27C113.564 167.501 112.759 172.921 112.435 173.251L112.416 173.271Z" fill="#2F2E41"/>
<path d="M116.099 123.335C117.877 123.335 119.318 121.894 119.318 120.116C119.318 118.339 117.877 116.897 116.099 116.897C114.321 116.897 112.88 118.339 112.88 120.116C112.88 121.894 114.321 123.335 116.099 123.335Z" fill="#FFB8B8"/>
<path d="M113.863 150.25C117.065 150.236 120.247 150.768 123.27 151.825C123.375 146.751 121.628 141.667 118.47 137.864L118.446 137.836L118.458 137.801C119.302 135.363 120.174 132.844 120.953 130.336L120.941 130.294C120.395 128.351 119.222 126.388 117.355 124.292C117.153 124.082 116.878 123.958 116.587 123.943C116.296 123.928 116.01 124.025 115.787 124.213C112.47 127.254 110.666 131.811 111.08 136.105L111.081 136.118L111.077 136.13C109.616 141.081 109.085 143.624 108.617 145.868C108.276 147.505 107.98 148.922 107.386 150.947C109.514 150.484 111.685 150.251 113.863 150.25Z" fill="#3F3D56"/>
<path opacity="0.1" d="M118.578 134.598L113.823 144.949L111.107 142.2L118.578 134.598Z" fill="black"/>
<path d="M100.189 143.376C100.371 143.438 100.565 143.459 100.757 143.438C100.948 143.417 101.133 143.354 101.297 143.254C101.462 143.153 101.602 143.018 101.709 142.858C101.816 142.697 101.886 142.515 101.915 142.325L106.519 141.467L104.83 139.715L100.716 140.798C100.393 140.771 100.071 140.864 99.8114 141.058C99.5518 141.252 99.3725 141.535 99.3075 141.853C99.2425 142.171 99.2963 142.502 99.4588 142.782C99.6212 143.063 99.8811 143.274 100.189 143.376Z" fill="#FFB8B8"/>
<path d="M104.406 142.498L104.377 142.445C103.841 141.418 103.224 140.326 102.627 139.269L102.591 139.206L102.658 139.177C105.676 137.872 108.745 136.467 111.714 135.109C111.714 135.105 111.714 135.101 111.714 135.099L111.736 135.099L111.748 135.093L111.75 135.099L111.764 135.098L111.712 135.077L113.338 130.306C113.167 129.347 113.754 127.898 114.91 127.252C116.108 126.583 117.76 126.971 118.445 128.083C118.619 128.384 118.723 128.721 118.75 129.069C118.776 129.416 118.724 129.765 118.598 130.089C118.498 130.385 118.335 130.655 118.118 130.879C117.901 131.103 117.637 131.276 117.345 131.385C116.424 133.881 115.393 136.01 114.396 138.069L114.386 138.09L114.365 138.1C111.152 139.647 107.751 141.084 104.461 142.474L104.406 142.498Z" fill="#3F3D56"/>
<path d="M140.439 176.307H103.859C103.819 176.307 103.78 176.291 103.751 176.262C103.722 176.234 103.706 176.195 103.706 176.154C103.706 176.113 103.722 176.075 103.751 176.046C103.78 176.017 103.819 176.001 103.859 176.001H140.439C140.479 176.001 140.518 176.017 140.547 176.046C140.576 176.075 140.592 176.113 140.592 176.154C140.592 176.195 140.576 176.234 140.547 176.262C140.518 176.291 140.479 176.307 140.439 176.307Z" fill="#3F3D56"/>
<path d="M115.716 114.537C116.753 114.212 117.87 114.254 118.88 114.656C119.395 114.858 119.869 115.152 120.278 115.526C120.771 116.003 121.179 116.561 121.484 117.176C122.304 118.747 122.73 120.618 123.9 121.885C124.679 122.728 125.71 123.209 126.717 123.668C127.311 123.938 127.925 124.209 128.568 124.282C129.211 124.354 129.902 124.204 130.381 123.722C129.968 124.261 129.367 124.572 128.773 124.827C126.432 125.838 123.872 126.229 121.336 125.965C120.623 125.889 119.909 125.759 119.248 125.442C118.773 125.214 118.311 124.856 118.123 124.32C117.691 123.083 118.906 121.77 118.678 120.466C118.559 119.797 118.072 119.277 117.53 118.956C116.988 118.635 116.383 118.48 115.804 118.266C115.195 118.02 114.602 117.737 114.028 117.419C113.726 117.259 113.415 117.092 113.196 116.811C112.977 116.53 112.869 116.097 113.032 115.778C113.195 115.458 113.524 115.342 113.83 115.243L116.295 114.445" fill="#FE5858"/>
<path d="M105.494 170.28C105.918 171.847 107.369 172.817 107.369 172.817C107.369 172.817 108.133 171.247 107.709 169.681C107.286 168.115 105.834 167.145 105.834 167.145C105.834 167.145 105.07 168.714 105.494 170.28Z" fill="#3F3D56"/>
<path d="M106.116 169.944C107.279 171.075 107.421 172.815 107.421 172.815C107.421 172.815 105.678 172.72 104.515 171.588C103.353 170.456 103.211 168.717 103.211 168.717C103.211 168.717 104.954 168.812 106.116 169.944Z" fill="#FF630C"/>
<path d="M137.76 170.28C138.184 171.847 139.635 172.817 139.635 172.817C139.635 172.817 140.4 171.247 139.976 169.681C139.552 168.115 138.101 167.145 138.101 167.145C138.101 167.145 137.337 168.714 137.76 170.28Z" fill="#3F3D56"/>
<path d="M138.383 169.944C139.546 171.075 139.688 172.815 139.688 172.815C139.688 172.815 137.945 172.72 136.782 171.588C135.619 170.456 135.477 168.717 135.477 168.717C135.477 168.717 137.22 168.812 138.383 169.944Z" fill="#FF630C"/>
<path d="M144.159 45.5203L139.05 41.4332L167.658 15.8904H240.2V38.3681L193.201 70.0413L144.159 45.5203Z" fill="#3F3D56"/>
<path d="M253.426 30.2184L248.944 25.4472L245.875 21.9946L243.794 19.7846L240.2 15.8904L216.7 41.4332L207.505 47.5636L193.247 151.733L214.75 173.235H264.721V42.455L253.426 30.2184Z" fill="#CCCCCC"/>
<path d="M216.7 41.4333H139.05V173.235H216.7V41.4333Z" fill="#F2F2F2"/>
<path d="M189.71 105.369H159.686V172.922H189.71V105.369Z" fill="#3C3B4A"/>
<path d="M238.667 48.0743V42.9659H232.537V48.0743H238.156H238.667Z" fill="#3F3D56"/>
<path d="M238.156 52.1614H232.537V57.2697H238.667V52.1614H238.156Z" fill="#3F3D56"/>
<path d="M248.884 42.9659H242.754V48.0745H248.884V42.9659Z" fill="#3F3D56"/>
<path d="M248.884 52.1613H242.754V57.2699H248.884V52.1613Z" fill="#3F3D56"/>
<path d="M238.667 76.6823V71.5737H232.537V76.6823H238.156H238.667Z" fill="#3F3D56"/>
<path d="M238.156 80.7693H232.537V85.8779H238.667V80.7693H238.156Z" fill="#3F3D56"/>
<path d="M248.884 71.5739H242.754V76.6824H248.884V71.5739Z" fill="#3F3D56"/>
<path d="M248.884 80.7693H242.754V85.8779H248.884V80.7693Z" fill="#3F3D56"/>
<path d="M238.667 105.29V100.182H232.537V105.29H238.156H238.667Z" fill="#3F3D56"/>
<path d="M238.156 109.377H232.537V114.486H238.667V109.377H238.156Z" fill="#3F3D56"/>
<path d="M248.884 100.182H242.754V105.291H248.884V100.182Z" fill="#3F3D56"/>
<path d="M248.884 109.377H242.754V114.486H248.884V109.377Z" fill="#3F3D56"/>
<path d="M238.667 133.899V128.79H232.537V133.899H238.156H238.667Z" fill="#3F3D56"/>
<path d="M238.156 137.985H232.537V143.094H238.667V137.985H238.156Z" fill="#3F3D56"/>
<path d="M248.884 128.79H242.754V133.899H248.884V128.79Z" fill="#3F3D56"/>
<path d="M248.884 137.985H242.754V143.094H248.884V137.985Z" fill="#3F3D56"/>
<path d="M207.437 45.5237H148.178V57.7843H207.437V45.5237Z" fill="#3F3D56"/>
<path d="M207.084 67.774H147.824V80.0346H207.084V67.774Z" fill="#3F3D56"/>
<path d="M195.747 89.2571H153.804V100.254H195.747V89.2571Z" fill="#3F3D56"/>
<path d="M290.631 172.632H138.97V173.143H290.631V172.632Z" fill="#3F3D56"/>
<path d="M271.986 26.1919C260.411 26.2453 250.989 26.4163 250.989 26.4163C250.989 26.4163 262.189 11.5819 271.944 17.0779C281.7 22.574 292.907 26.2231 292.907 26.2231C292.907 26.2231 283.561 26.1386 271.986 26.1919Z" fill="#F2F2F2"/>
<path d="M103.349 69.8658C91.7735 69.9191 82.3518 70.0901 82.3518 70.0901C82.3518 70.0901 93.551 55.2557 103.307 60.7518C113.062 66.2478 124.269 69.8969 124.269 69.8969C124.269 69.8969 114.924 69.8124 103.349 69.8658Z" fill="#F2F2F2"/>
<path d="M145.37 10.3354C133.795 10.3887 124.374 10.5597 124.374 10.5597C124.374 10.5597 135.573 -4.27467 145.328 1.22136C155.084 6.7174 166.291 10.3665 166.291 10.3665C166.291 10.3665 156.945 10.282 145.37 10.3354Z" fill="#F2F2F2"/>
<path d="M279.313 115.088H277.843V173.131H279.313V115.088Z" fill="#3F3D56"/>
<path d="M293 121.848C293.093 142.145 278.814 158.664 278.814 158.664C278.814 158.664 264.383 142.277 264.289 121.981C264.195 101.685 278.475 85.1651 278.475 85.1651C278.475 85.1651 292.906 101.552 293 121.848Z" fill="#FF630C"/>
<path d="M161.717 93.173H163.216V96.8298H165.556V98.0244H161.717V93.173ZM166.198 93.173H167.545V94.0897H166.198V93.173ZM166.198 94.51H167.545V98.0244H166.198V94.51ZM168.005 94.51H169.408L170.09 96.7371L170.795 94.51H172.155L170.662 98.0244H169.468L168.005 94.51ZM172.562 94.51H173.823V95.0858C173.944 94.8365 174.069 94.6655 174.197 94.5728C174.327 94.478 174.487 94.4305 174.676 94.4305C174.875 94.4305 175.092 94.4923 175.328 94.6159L174.911 95.5756C174.753 95.5094 174.627 95.4763 174.534 95.4763C174.358 95.4763 174.221 95.5491 174.124 95.6947C173.985 95.8999 173.915 96.2837 173.915 96.8463V98.0244H172.562V94.51ZM175.61 93.173H176.957V94.0897H175.61V93.173ZM175.61 94.51H176.957V98.0244H175.61V94.51Z" fill="white"/>
<rect x="178.729" y="90.5892" width="9.60131" height="9.03653" fill="#FF630C"/>
<path d="M180.877 93.173H182.227V98.0244H180.877V93.173ZM182.816 94.51H184.239L184.964 96.8496L185.636 94.51H186.963L185.57 98.266C185.411 98.694 185.249 98.983 185.083 99.133C184.849 99.3448 184.493 99.4507 184.014 99.4507C183.82 99.4507 183.52 99.4242 183.114 99.3713L183.008 98.4315C183.202 98.4932 183.419 98.5241 183.657 98.5241C183.816 98.5241 183.944 98.4877 184.041 98.4149C184.14 98.3421 184.224 98.2119 184.292 98.0244L182.816 94.51Z" fill="white"/>
</svg>
