<svg width="157" height="120" viewBox="0 0 157 120" fill="none" xmlns="http://www.w3.org/2000/svg">
<path d="M50.0477 15.359C52.8669 15.359 55.1523 13.0736 55.1523 10.2544C55.1523 7.43524 52.8669 5.14984 50.0477 5.14984C47.2285 5.14984 44.9431 7.43524 44.9431 10.2544C44.9431 13.0736 47.2285 15.359 50.0477 15.359Z" fill="#FFB9B9"/>
<path d="M51.506 21.679L42.7553 19.4914C44.6517 16.6457 45.8618 13.9878 45.6722 11.713H51.2629C50.9137 15.402 50.9138 18.793 51.506 21.679Z" fill="#FFB9B9"/>
<path d="M54.4229 52.5495H41.0538C38.2597 38.488 38.9711 26.4779 43.7276 17.0606C43.869 16.7216 43.9446 16.3588 43.9505 15.9916C43.9617 15.8614 44.0048 15.7359 44.076 15.6264C44.1473 15.5169 44.2445 15.4266 44.359 15.3637C44.4736 15.3007 44.6018 15.2671 44.7325 15.2656C44.8632 15.2642 44.9922 15.295 45.1081 15.3554C47.0919 16.3848 49.2034 17.147 51.3874 17.622C51.5098 17.6487 51.6242 17.704 51.7212 17.7834C51.8181 17.8628 51.8949 17.964 51.9452 18.0788C51.9956 18.1935 52.018 18.3186 52.0107 18.4437C52.0034 18.5688 51.9666 18.6904 51.9033 18.7985C51.8307 18.8968 51.7794 19.0093 51.7529 19.1286C51.7263 19.2479 51.725 19.3715 51.7491 19.4913C54.9278 30.2052 55.8384 41.4641 54.4229 52.5495Z" fill="#FF630C"/>
<path d="M52.9642 93.3862L49.075 93.8722L46.6443 59.3556L38.3798 92.9001L34.2475 93.143L38.3798 50.1188H55.152L52.9642 93.3862Z" fill="#2F2E41"/>
<path d="M38.8008 100.919L35.9344 101.18C33.9968 100.6 34.3848 98.4333 34.0722 95.947L34.5083 92.4585L35.1185 92.3319C36.015 90.5105 37.0385 90.3314 38.2112 92.0844L38.5508 92.0224L38.9869 94.8569L40.1805 98.8854C40.2473 99.1108 40.2633 99.3482 40.2272 99.5806C40.1912 99.8129 40.104 100.034 39.972 100.229C39.84 100.423 39.6665 100.586 39.464 100.706C39.2615 100.825 39.035 100.898 38.8008 100.919Z" fill="#2F2E41"/>
<path d="M53.3855 100.919L50.5191 101.18C48.5815 100.6 48.9694 98.4333 48.6569 95.947L49.0929 92.4585L49.7031 92.3319C50.5997 90.5105 51.6232 90.3314 52.7959 92.0844L53.1355 92.0224L53.5716 94.8569L54.7652 98.8854C54.832 99.1108 54.8479 99.3482 54.8119 99.5806C54.7758 99.8129 54.6887 100.034 54.5567 100.229C54.4247 100.423 54.2512 100.586 54.0487 100.706C53.8461 100.825 53.6196 100.898 53.3855 100.919Z" fill="#2F2E41"/>
<path d="M54.3857 9.81244L52.103 8.33064C51.7418 8.09621 51.3323 7.94663 50.9051 7.89312C50.4778 7.83961 50.0441 7.88356 49.6362 8.02167C49.2284 8.15978 48.8572 8.38846 48.5504 8.69056C48.2436 8.99266 48.0093 9.36032 47.8649 9.76595L46.523 13.536L45.5507 13.0499C43.8318 10.0781 43.0185 7.25627 45.7938 5.02839C46.5413 3.22184 49.1719 2.56074 51.123 2.68661C53.5257 2.84163 56.0029 4.80833 56.0029 7.21606L55.6836 8.9608C55.7109 9.1231 55.6903 9.28983 55.6244 9.44064C55.5585 9.59146 55.4502 9.71984 55.3126 9.81013C55.175 9.90042 55.0141 9.94872 54.8495 9.94913C54.6849 9.94953 54.5238 9.90204 54.3857 9.81244Z" fill="#2F2E41"/>
<path d="M70.8821 51.9913C70.4234 52.2763 69.8721 52.3726 69.3439 52.26C68.8157 52.1475 68.3516 51.8348 68.0489 51.3876L66.0297 48.4043L67.8923 46.2536L71.0108 48.5279C71.2873 48.7295 71.5101 48.996 71.6595 49.304C71.8089 49.6119 71.8804 49.9518 71.8677 50.2938C71.855 50.6359 71.7585 50.9695 71.5866 51.2655C71.4148 51.5615 71.1729 51.8107 70.8821 51.9913Z" fill="#FFB9B9"/>
<path d="M47.8599 63.0017L32.06 60.0848C36.4861 46.4886 38.3526 33.2188 35.732 20.521C35.6062 19.9186 35.7209 19.291 36.0516 18.772C36.3823 18.2531 36.9027 17.884 37.5018 17.7435L42.5122 16.5744L45.1861 14.6298L47.8599 18.2759V63.0017Z" fill="#2F2E41"/>
<path d="M56.8537 62.0294L51.9922 63.2448C53.1963 50.0169 52.1737 35.3199 49.8045 19.7344L51.0199 17.0605L52.1137 17.9113L56.04 22.1899C56.3647 22.4063 56.6306 22.7001 56.8136 23.0447C56.9967 23.3894 57.0913 23.7741 57.0889 24.1643L56.8537 62.0294Z" fill="#2F2E41"/>
<path d="M69.0663 46.2687L65.6428 48.9497L55.3429 33.6814L56.9289 23.1885L69.0663 46.2687Z" fill="#2F2E41"/>
<path d="M56.3792 41.9849L63.9103 45.3888L64.7288 53.6218L57.1978 50.2179L56.3792 41.9849Z" fill="#FF5B00"/>
<path d="M58.8962 45.2195L60.1347 45.7792L60.6178 50.6387L59.3793 50.0789L58.8962 45.2195Z" fill="white"/>
<path d="M63.9103 45.3922L70.6237 40.5721L71.4419 48.8018L64.7286 53.6219L63.9103 45.3922Z" fill="#CB4600"/>
<path d="M66.0001 46.9841L67.1636 46.1487L67.9892 48.0667L68.3055 45.3288L69.3906 44.5497L68.6255 49.1299C68.5382 49.6519 68.4344 50.0366 68.314 50.284C68.1439 50.6334 67.8631 50.9487 67.4717 51.2298C67.3129 51.3437 67.065 51.4934 66.7278 51.6786L66.5476 50.7994C66.7125 50.7473 66.8923 50.6513 67.0872 50.5114C67.217 50.4182 67.318 50.3066 67.3902 50.1767C67.4641 50.0455 67.5197 49.8659 67.5569 49.6379L66.0001 46.9841Z" fill="white"/>
<path d="M56.376 41.9909L63.0888 37.1712L70.627 40.5783L63.9143 45.398L56.376 41.9909Z" fill="#FF690E"/>
<rect width="0.826378" height="8.27246" transform="matrix(0.812307 -0.58323 0.911246 0.411864 59.4693 39.7657)" fill="#EE8E09"/>
<path d="M58.9336 46.5731C58.6484 47.0317 58.1968 47.3621 57.6733 47.4951C57.1499 47.628 56.5953 47.5531 56.1259 47.2861L52.9945 45.5052L53.7124 42.7521L57.5155 43.4106C57.8527 43.469 58.1705 43.6094 58.4408 43.8193C58.7111 44.0292 58.9257 44.3024 59.0657 44.6147C59.2058 44.927 59.2669 45.2689 59.2439 45.6103C59.2209 45.9518 59.1143 46.2824 58.9336 46.5731Z" fill="#FFB9B9"/>
<path d="M53.5921 42.1122L54.6685 47.3841C49.243 47.2317 44.5006 45.5008 40.8054 41.3495L38.3648 28.5097C38.1451 27.3536 38.2528 26.159 38.6759 25.0609C39.0989 23.9628 39.8205 23.0047 40.759 22.2949L47.0095 32.159L46.9764 38.9127L53.5921 42.1122Z" fill="#2F2E41"/>
<path d="M48.9066 9.39518C49.1138 8.89981 49.0309 8.39321 48.7213 8.26367C48.4117 8.13412 47.9927 8.43068 47.7854 8.92605C47.5781 9.42142 47.6611 9.92802 47.9707 10.0576C48.2803 10.1871 48.6993 9.89055 48.9066 9.39518Z" fill="#FFB9B9"/>
<path opacity="0.4" d="M61.0981 51.5856C61.5509 51.5856 61.918 51.1451 61.918 50.6018C61.918 50.0584 61.5509 49.618 61.0981 49.618C60.6453 49.618 60.2783 50.0584 60.2783 50.6018C60.2783 51.1451 60.6453 51.5856 61.0981 51.5856Z" fill="white"/>
<path d="M79.2605 63.0834L78.7899 66.0878C78.7899 66.0878 76.4732 67.3185 78.1021 67.3547C79.731 67.3909 87.4049 67.3547 87.4049 67.3547C87.4049 67.3547 88.889 67.3547 86.5362 66.0516L86.0656 62.9024L79.2605 63.0834Z" fill="#2F2E41"/>
<path opacity="0.1" d="M77.7743 67.3221C78.1442 66.9929 78.7897 66.65 78.7897 66.65L79.2603 63.6456L86.0654 63.652L86.536 66.6138C87.0847 66.9176 87.4246 67.1506 87.6234 67.3293C87.9256 67.2603 88.2558 67.0041 86.536 66.0516L86.0654 62.9024L79.2603 63.0834L78.7897 66.0878C78.7897 66.0878 76.8431 67.1221 77.7743 67.3221Z" fill="black"/>
<path d="M96.8785 42.1431H68.3751C67.7797 42.1431 67.2971 42.6257 67.2971 43.221V62.4217C67.2971 63.017 67.7797 63.4996 68.3751 63.4996H96.8785C97.4739 63.4996 97.9565 63.017 97.9565 62.4217V43.221C97.9565 42.6257 97.4739 42.1431 96.8785 42.1431Z" fill="#2F2E41"/>
<path d="M96.925 43.2833H68.3289V59.2826H96.925V43.2833Z" fill="#3F3D56"/>
<path d="M82.6268 42.9576C82.7268 42.9576 82.8078 42.8765 82.8078 42.7766C82.8078 42.6766 82.7268 42.5956 82.6268 42.5956C82.5268 42.5956 82.4458 42.6766 82.4458 42.7766C82.4458 42.8765 82.5268 42.9576 82.6268 42.9576Z" fill="#F2F2F2"/>
<path d="M97.9565 60.5496V62.4217C97.9565 62.5633 97.9286 62.7034 97.8745 62.8342C97.8203 62.965 97.7409 63.0839 97.6408 63.184C97.5407 63.2841 97.4218 63.3635 97.2911 63.4176C97.1603 63.4718 97.0201 63.4997 96.8785 63.4997H68.3751C68.2335 63.4997 68.0933 63.4718 67.9625 63.4176C67.8318 63.3635 67.7129 63.2841 67.6128 63.184C67.5127 63.0839 67.4333 62.965 67.3791 62.8342C67.325 62.7034 67.2971 62.5633 67.2971 62.4217V60.5496H97.9565Z" fill="#2F2E41"/>
<path d="M96.4543 68.6578C96.7142 68.6578 96.9248 68.593 96.9248 68.513C96.9248 68.4331 96.7142 68.3682 96.4543 68.3682C96.1944 68.3682 95.9837 68.4331 95.9837 68.513C95.9837 68.593 96.1944 68.6578 96.4543 68.6578Z" fill="#F2F2F2"/>
<path d="M82.6267 62.7214C83.0066 62.7214 83.3145 62.4135 83.3145 62.0336C83.3145 61.6538 83.0066 61.3459 82.6267 61.3459C82.2469 61.3459 81.939 61.6538 81.939 62.0336C81.939 62.4135 82.2469 62.7214 82.6267 62.7214Z" fill="#F2F2F2"/>
<path opacity="0.1" d="M90.6265 69.3094V69.6714H71.1522V69.3818L71.179 69.3094H90.6265Z" fill="black"/>
<path opacity="0.4" d="M101.106 44.4178C101.559 44.4178 101.926 43.9773 101.926 43.434C101.926 42.8907 101.559 42.4502 101.106 42.4502C100.653 42.4502 100.286 42.8907 100.286 43.434C100.286 43.9773 100.653 44.4178 101.106 44.4178Z" fill="white"/>
<path d="M74.5149 50.2476H75.4505V52.5297H76.9106V53.2752H74.5149V50.2476ZM77.3113 50.2476H78.1518V50.8196H77.3113V50.2476ZM77.3113 51.0819H78.1518V53.2752H77.3113V51.0819ZM78.4389 51.0819H79.3145L79.74 52.4718L80.1799 51.0819H81.0287L80.0973 53.2752H79.3517L78.4389 51.0819ZM81.2827 51.0819H82.0696V51.4413C82.1453 51.2857 82.2231 51.179 82.3029 51.1212C82.3842 51.062 82.484 51.0324 82.6024 51.0324C82.7263 51.0324 82.8619 51.0709 83.0092 51.148L82.749 51.7469C82.6499 51.7056 82.5714 51.685 82.5136 51.685C82.4034 51.685 82.3181 51.7304 82.2575 51.8213C82.1708 51.9493 82.1274 52.1889 82.1274 52.54V53.2752H81.2827V51.0819ZM83.1848 50.2476H84.0253V50.8196H83.1848V50.2476ZM83.1848 51.0819H84.0253V53.2752H83.1848V51.0819Z" fill="white"/>
<rect x="85.1315" y="48.6267" width="5.99194" height="5.63947" fill="#FF630C"/>
<path d="M86.4719 50.2466H87.3145V53.2742H86.4719V50.2466ZM87.6821 51.081H88.5701L89.0224 52.5411L89.4417 51.081H90.2698L89.4004 53.425C89.3012 53.6921 89.2 53.8725 89.0968 53.9661C88.9508 54.0983 88.7285 54.1643 88.4297 54.1643C88.3085 54.1643 88.1213 54.1478 87.868 54.1148L87.8019 53.5283C87.923 53.5668 88.058 53.5861 88.2067 53.5861C88.3058 53.5861 88.3856 53.5634 88.4462 53.5179C88.5082 53.4725 88.5605 53.3913 88.6032 53.2742L87.6821 51.081Z" fill="white"/>
<path opacity="0.1" d="M27.358 19.8018C30.092 19.8018 32.3084 17.5854 32.3084 14.8513C32.3084 12.1173 30.092 9.90088 27.358 9.90088C24.6239 9.90088 22.4075 12.1173 22.4075 14.8513C22.4075 17.5854 24.6239 19.8018 27.358 19.8018Z" fill="#FF630C"/>
<path opacity="0.1" d="M16.987 6.12913C18.6795 6.12913 20.0516 4.75708 20.0516 3.06456C20.0516 1.37205 18.6795 0 16.987 0C15.2945 0 13.9225 1.37205 13.9225 3.06456C13.9225 4.75708 15.2945 6.12913 16.987 6.12913Z" fill="#FF630C"/>
<path opacity="0.1" d="M145.46 14.3799C146.502 14.3799 147.346 13.5355 147.346 12.494C147.346 11.4524 146.502 10.6081 145.46 10.6081C144.418 10.6081 143.574 11.4524 143.574 12.494C143.574 13.5355 144.418 14.3799 145.46 14.3799Z" fill="#FF630C"/>
<path d="M33.6316 71.0995L33.5734 74.2348L33.1082 99.6486L29.1259 108.974L15.4014 109.132V72.5438L29.7247 71.4091L33.6316 71.0995Z" fill="#5F5D7E"/>
<path opacity="0.1" d="M33.6316 71.0995L33.5734 74.2348L33.1082 99.6486L29.1259 108.974L15.4014 109.132V72.5438L29.7247 71.4091L33.6316 71.0995Z" fill="black"/>
<path d="M33.6317 71.0995L33.5735 74.2348L33.1083 99.6487L29.126 108.974L30.1742 74.2945L30.1711 74.2725L29.7247 71.4091L33.6317 71.0995Z" fill="#5F5D7E"/>
<path opacity="0.1" d="M29.7247 71.4091L33.6316 71.0995L33.5734 74.2348L30.171 74.2725L15.4014 74.4375V72.5438L29.7247 71.4091Z" fill="black"/>
<path d="M157 72.5438V108.921H153.805L141.022 99.5968V71.5175L152.442 70.4442L153.143 70.7663L153.805 71.0712L157 72.5438Z" fill="#5F5D7E"/>
<path opacity="0.1" d="M157 70.7663H153.805V108.921H157V70.7663Z" fill="black"/>
<path opacity="0.1" d="M157 70.7663V72.8581L153.805 72.8942L141.022 73.0357V71.5175L152.442 70.4442L153.143 70.7663L153.805 71.0712V70.7663H157Z" fill="black"/>
<path d="M157 69.5798V72.5438L0 74.2945V70.5227L14.7728 67.5368L143.327 66.5938L157 69.5798Z" fill="#5F5D7E"/>
<path opacity="0.1" d="M157 69.5798V72.5438L0 74.2945V70.5228L157 69.5798Z" fill="black"/>
<path d="M110.137 47.7537C110.827 47.7537 111.387 47.1944 111.387 46.5043C111.387 45.8143 110.827 45.2549 110.137 45.2549C109.447 45.2549 108.888 45.8143 108.888 46.5043C108.888 47.1944 109.447 47.7537 110.137 47.7537Z" fill="#E6E8EC"/>
<path opacity="0.1" d="M111.885 107.453L111.256 109.496L108.585 111.814L104.656 112.943C104.656 112.943 102.809 111.932 103.438 111.736C103.612 111.681 103.82 111.481 104.03 111.22C103.81 112.022 105.559 110.989 105.559 110.989C105.559 110.989 110.078 107.767 110.549 107.414C110.858 107.209 111.198 107.053 111.555 106.953C111.751 107.26 111.885 107.453 111.885 107.453Z" fill="black"/>
<path d="M111.885 107.453L111.256 109.496L108.584 111.814L104.656 112.943C104.656 112.943 102.809 111.932 103.438 111.736C103.612 111.681 103.819 111.481 104.03 111.22C104.22 110.978 104.395 110.725 104.555 110.463C104.891 109.922 105.256 109.4 105.628 108.891C106.172 108.117 106.513 107.22 106.62 106.281C106.895 104.12 104.105 99.7586 104.105 99.7586L99.0372 89.347L106.109 90.2113C106.109 90.2113 109.92 103.295 109.92 103.923C109.92 104.395 110.995 106.1 111.555 106.96C111.751 107.26 111.885 107.453 111.885 107.453Z" fill="#FDC2CC"/>
<path d="M107.962 119.549C115.35 119.549 121.339 117.822 121.339 115.691C121.339 113.56 115.35 111.833 107.962 111.833C100.574 111.833 94.585 113.56 94.585 115.691C94.585 117.822 100.574 119.549 107.962 119.549Z" fill="#5F5D7E"/>
<path d="M113.142 109.968C113.094 110.095 113.013 110.208 112.906 110.293C111.935 111.184 108.303 112.509 106.059 113.229C105.471 113.434 104.871 113.604 104.263 113.739C103.713 113.779 102.573 113.425 101.788 112.943C101.002 112.46 101.709 111.775 102.026 111.421C102.344 111.068 104.227 110.962 104.227 110.962C103.323 112.466 105.561 111.146 105.561 111.146C105.561 111.146 110.079 107.925 110.551 107.571C111.022 107.217 111.887 107.021 111.887 107.021L113.142 109.968Z" fill="#FF630C"/>
<path opacity="0.3" d="M113.142 109.968C113.094 110.095 113.013 110.208 112.906 110.293C111.935 111.184 108.303 112.509 106.059 113.229C105.471 113.434 104.871 113.604 104.263 113.739C103.713 113.779 102.573 113.425 101.788 112.943C101.002 112.46 101.709 111.775 102.026 111.421C102.344 111.068 104.227 110.962 104.227 110.962C103.323 112.466 105.561 111.146 105.561 111.146C105.561 111.146 110.079 107.925 110.551 107.571C111.022 107.217 111.887 107.021 111.887 107.021L113.142 109.968Z" fill="black"/>
<path opacity="0.1" d="M112.907 110.296C111.935 111.187 108.303 112.512 106.059 113.232C108.093 111.509 111.503 110.609 112.907 110.296Z" fill="black"/>
<path opacity="0.1" d="M107.962 115.22C109.44 115.22 110.639 114.874 110.639 114.448C110.639 114.022 109.44 113.676 107.962 113.676C106.484 113.676 105.286 114.022 105.286 114.448C105.286 114.874 106.484 115.22 107.962 115.22Z" fill="black"/>
<path d="M109.224 94.0963H106.474V114.448H109.224V94.0963Z" fill="#5F5D7E"/>
<path opacity="0.1" d="M109.224 95.1052V97.4626C108.674 97.2929 107.418 96.5778 106.474 96.0152V94.0947H107.048L109.224 95.1052Z" fill="black"/>
<path d="M102.745 85.2357C102.745 85.2357 111.825 82.8988 114.085 81.1497C116.345 79.4005 125.22 87.6308 124.047 90.7362C122.875 93.8417 118.606 96.0906 118.606 96.0906C118.606 96.0906 106.802 98.0111 104.792 94.0051C102.782 89.9992 102.745 85.2357 102.745 85.2357Z" fill="#474157"/>
<path opacity="0.1" d="M102.745 85.2357C102.745 85.2357 111.825 82.8988 114.085 81.1497C116.345 79.4005 125.22 87.6308 124.047 90.7362C122.875 93.8417 118.606 96.0906 118.606 96.0906C118.606 96.0906 106.802 98.0111 104.792 94.0051C102.782 89.9992 102.745 85.2357 102.745 85.2357Z" fill="black"/>
<path d="M101.959 84.2928C101.959 84.2928 111.039 81.9559 113.299 80.2067C115.559 78.4576 124.434 86.6879 123.262 89.7933C122.089 92.8987 117.821 95.1477 117.821 95.1477C117.821 95.1477 106.017 97.0681 104.007 93.0622C101.997 89.0562 101.959 84.2928 101.959 84.2928Z" fill="#474157"/>
<path d="M91.4665 67.1097L91.6747 66.0857C91.6747 66.0857 93.0067 66.7613 94.4285 66.173C94.4285 66.173 96.149 65.499 96.8992 65.5859C97.6494 65.6728 100.369 65.7844 100.369 65.7844C100.369 65.7844 103.177 65.4393 104.235 63.7359C105.292 62.0325 106.185 60.8271 105.028 61.5951C104.494 61.9349 103.979 62.3033 103.484 62.6989C103.484 62.6989 102.08 59.2137 100.916 60.6979C99.7514 62.1821 99.805 62.5316 99.805 62.5316C99.805 62.5316 96.3993 62.6017 95.766 62.6166C95.1327 62.6314 90.2875 62.6378 90.2875 62.6378C90.2875 62.6378 88.0277 62.9345 87.7359 63.3751C87.3279 63.5241 86.9886 63.8173 86.782 64.1993C86.5754 64.5813 86.5159 65.0258 86.6146 65.4487C86.6604 65.7247 90.7967 68.4806 91.4665 67.1097Z" fill="#FDC2CC"/>
<path d="M117.268 55.6337V57.8339L114.989 58.5772L111.107 61.4343L110.078 62.1918L105.481 60.3452L102.573 57.2807C102.573 57.2807 102.715 57.2037 102.96 57.0764L103.117 56.9931C103.609 56.7464 104.384 56.3645 105.24 56.0234C106.097 55.6824 106.197 53.6834 106.149 52.0363V51.8792C106.109 50.7241 105.991 49.7796 105.991 49.7796C105.991 49.7796 106.471 49.6884 107.169 49.5847C109.103 49.2971 112.713 48.9089 112.396 50.0939C112.303 50.4967 112.303 50.9153 112.396 51.3181C112.405 51.3621 112.415 51.4077 112.426 51.4517C112.752 52.8803 113.764 54.3764 113.764 54.3764L116.908 55.508L116.996 55.5394L117.268 55.6337Z" fill="#FDC2CC"/>
<path d="M117.267 56.3016V55.6336C117.514 55.5911 117.767 55.5911 118.014 55.6336C118.289 55.7122 118.811 56.5373 119.046 56.6159C119.282 56.6944 120.725 62.0771 120.568 62.5486C120.411 63.02 118.925 73.6643 118.925 73.6643L115.932 76.9646L115.342 67.8888L117.267 62.5061V56.3016Z" fill="#FDC2CC"/>
<path d="M101.748 81.0145C101.748 81.0145 99.0121 81.6039 99.3594 82.4682C99.7068 83.3326 101.237 83.3719 101.237 83.3719L101.748 81.0145Z" fill="#FDC2CC"/>
<path d="M105.559 63.5622L103.477 68.0491L101.002 69.8564L100.57 67.0637C100.57 67.0637 99.7334 65.2171 99.3736 64.9044C99.3561 64.8867 99.3353 64.8728 99.3123 64.8635C98.9979 64.7456 96.012 66.6315 95.1476 66.9851C94.2832 67.3387 91.1794 67.4173 91.1794 67.4173L92.5545 62.5061C92.5545 62.5061 95.3047 61.4846 95.6584 61.0131C96.012 60.5417 97.8193 58.7344 98.9194 57.87C100.019 57.0056 102.026 57.3199 102.026 57.3199L102.058 57.3325L102.573 57.5557L104.066 61.2096L105.559 63.5622Z" fill="#FDC2CC"/>
<path d="M100.098 108.321C100.061 108.73 100.051 109.142 100.068 109.553C100.079 109.991 100.098 110.364 100.098 110.364L99.1945 112.249C99.1945 112.249 96.0907 113.271 96.6014 112.839C96.779 112.689 96.8702 112.301 96.9157 111.787C96.9928 110.816 96.8812 109.4 96.8042 108.321C96.6863 106.67 94.8004 102.584 94.8004 102.584C94.8004 102.584 93.2288 98.5768 92.2466 96.1016C91.2644 93.6263 91.618 89.1474 91.618 89.1474C91.618 89.1474 91.7751 85.7685 92.4823 84.747C93.1895 83.7254 95.9398 83.3718 95.9398 83.3718L97.2301 87.6512C97.2301 87.6512 98.2909 91.6587 98.6838 92.2481C99.0767 92.8374 98.9588 99.8702 98.8016 100.617C98.7215 100.999 98.8566 102.503 99.0075 103.873C99.1615 105.176 99.4826 106.455 99.963 107.676C100.057 107.878 100.103 108.098 100.098 108.321Z" fill="#FDC2CC"/>
<path opacity="0.1" d="M100.098 110.364L99.1944 112.249C99.1944 112.249 96.0906 113.271 96.6013 112.839C96.7789 112.69 96.8701 112.301 96.9157 111.787C97.0272 111.676 97.1467 111.553 97.2693 111.428C98.0591 110.609 99.0158 109.969 100.075 109.553C100.079 109.991 100.098 110.364 100.098 110.364Z" fill="black"/>
<path d="M101.516 113.17C101.517 113.178 101.517 113.185 101.516 113.192C101.359 113.939 98.7655 114.96 98.7655 114.96C98.7655 114.96 97.1153 115.235 96.1724 115.471C96.1002 115.491 96.0253 115.498 95.9508 115.492C95.2232 115.437 95.1902 114.036 95.1902 113.821C95.1902 113.606 96.0938 112.603 96.3688 112.446C96.6798 112.188 96.9718 111.908 97.2426 111.608C98.0492 110.773 99.0257 110.121 100.106 109.696C100.106 109.696 101.641 112.396 101.516 113.17Z" fill="#FF630C"/>
<path opacity="0.3" d="M101.516 113.17C101.517 113.178 101.517 113.185 101.516 113.192C101.359 113.939 98.7655 114.96 98.7655 114.96C98.7655 114.96 97.1153 115.235 96.1724 115.471C96.1002 115.491 96.0253 115.498 95.9508 115.492C95.2232 115.437 95.1902 114.036 95.1902 113.821C95.1902 113.606 96.0938 112.603 96.3688 112.446C96.6848 112.185 96.9811 111.901 97.2552 111.596C98.0447 110.773 99.002 110.13 100.062 109.71L100.106 109.693C100.106 109.693 101.641 112.396 101.516 113.17Z" fill="black"/>
<path opacity="0.1" d="M101.516 113.17C101.517 113.178 101.517 113.185 101.516 113.192C101.358 113.939 98.7654 114.96 98.7654 114.96C98.7654 114.96 97.1152 115.235 96.1723 115.471C96.1001 115.491 96.0252 115.498 95.9507 115.492C96.8056 114.905 98.8785 113.499 99.1583 113.467C99.438 113.436 100.816 113.04 101.516 113.17Z" fill="black"/>
<path opacity="0.1" d="M112.432 51.4517C111.46 52.2516 110.568 52.1369 109.212 52.1369C108.231 52.1369 106.956 52.4811 106.153 52.0395C106.12 50.8121 105.996 49.7796 105.996 49.7796C105.996 49.7796 112.832 48.483 112.4 50.0939C112.301 50.5424 112.312 51.0082 112.432 51.4517Z" fill="black"/>
<path d="M114.478 46.957C114.478 48.4471 113.886 49.8762 112.833 50.9298C111.779 51.9835 110.35 52.5754 108.86 52.5754C108.715 52.5754 108.571 52.5754 108.429 52.5597C107.34 52.4756 106.298 52.0757 105.433 51.4088C104.567 50.7419 103.914 49.8371 103.555 48.8051C103.196 47.7731 103.145 46.6587 103.41 45.5984C103.674 44.5381 104.242 43.578 105.044 42.8355C105.846 42.0931 106.847 41.6006 107.924 41.4183C109.002 41.236 110.109 41.3719 111.11 41.8093C112.112 42.2467 112.964 42.9667 113.562 43.881C114.161 44.7953 114.479 45.8643 114.48 46.957H114.478Z" fill="#FDC2CC"/>
<path opacity="0.1" d="M104.066 61.2127L105.559 63.5701L103.477 68.0569L101.002 69.8642L100.57 67.0637C100.57 67.0637 99.7336 65.2171 99.3737 64.9044C99.4774 64.6513 99.5481 64.535 99.5481 64.6278C99.5481 65.0206 100.515 66.7887 100.515 66.7887C103.501 65.7671 102.573 61.7989 102.573 61.7989C102.573 61.7989 102.202 58.2629 102.058 57.3325L102.573 57.5557L104.066 61.2127Z" fill="black"/>
<path opacity="0.1" d="M117.268 55.6337V57.8339L114.989 58.5772L111.107 61.4343L110.078 62.1918L105.481 60.3452L102.573 57.2807C102.573 57.2807 102.715 57.2037 102.96 57.0764L103.117 56.9931C105.14 57.9124 107.329 58.2503 108.893 58.3713C109.612 58.4323 110.334 58.4486 111.055 58.4201C116.975 57.4771 117.151 56.047 117.003 55.5394L117.268 55.6337Z" fill="black"/>
<path d="M118.957 91.2659C117.475 91.9925 115.953 92.6352 114.399 93.1911C111.688 94.1733 105.716 92.8768 104.97 92.6803C104.223 92.4839 98.4872 90.2051 96.287 89.3407C94.0868 88.4764 93.5368 89.1836 93.026 89.105C92.5152 89.0264 92.1616 88.0442 92.0831 87.7691C92.0045 87.4941 93.4975 85.0975 94.3225 83.8795C95.1476 82.6615 97.6228 82.8973 97.9764 82.8187C98.33 82.7401 100.805 82.8187 100.805 82.8187C100.805 82.8187 100.648 82.0329 101.552 79.8327C102.455 77.6325 100.059 73.5464 100.059 73.5464C98.4086 72.4856 98.6837 69.1853 98.6837 69.1853C98.2908 67.7316 99.548 64.392 99.548 64.7849C99.548 65.1778 100.515 66.9458 100.515 66.9458C103.501 65.9243 102.573 61.9561 102.573 61.9561C102.573 61.9561 102.141 57.8307 102.026 57.3199C101.912 56.8092 102.573 56.8878 102.573 56.8878C102.701 56.9538 102.83 57.0166 102.96 57.0764C105.028 58.0507 107.291 58.4059 108.897 58.5285C109.616 58.5894 110.339 58.6057 111.06 58.5772C118.237 57.419 116.966 55.5724 116.919 55.5063L117.267 55.6305C119.861 57.5164 119.075 63.7634 119.075 63.7634L118.104 68.4262L117.382 71.8994C117.382 71.8994 119.936 87.3794 120.172 88.1652C120.407 88.951 118.957 91.2659 118.957 91.2659Z" fill="#FF630C"/>
<path opacity="0.1" d="M99.823 84.1938C99.6659 84.3117 97.8979 87.9656 99.1944 88.9871C100.491 90.0086 99.823 84.1938 99.823 84.1938Z" fill="black"/>
<path opacity="0.1" d="M101.08 84.7077C101.12 84.8256 104.773 90.6404 106.777 91.1119L101.08 84.7077Z" fill="black"/>
<path opacity="0.1" d="M109.883 38.6937L109.298 38.8178C109.459 38.7584 109.624 38.7096 109.791 38.6717L109.883 38.6937Z" fill="black"/>
<path opacity="0.1" d="M118.687 63.7634L117.587 68.4231C117.025 68.1671 116.509 67.8216 116.059 67.4C115.709 67.0668 115.394 66.6849 114.943 66.4665C114.363 66.1852 113.664 66.2229 113.005 66.1993C112.183 66.1686 111.368 66.0291 110.582 65.7844C110.354 65.7272 110.14 65.6234 109.953 65.4795C109.579 65.1495 109.605 64.6168 109.639 64.1516C109.707 63.2474 109.715 62.3396 109.663 61.4343C109.653 61.2646 109.641 61.0949 109.627 60.9251C109.564 60.1661 109.359 59.286 108.583 58.9607C108.184 58.8035 107.708 58.8161 107.326 58.6259C107.271 58.5982 107.218 58.5656 107.169 58.5285C106.603 58.1325 106.551 57.3388 106.573 56.6709C106.607 55.7531 106.638 54.8348 106.669 53.9159C106.697 53.4628 106.687 53.008 106.639 52.5565C106.601 52.2567 106.519 51.9643 106.394 51.689C106.053 50.9598 105.342 50.3516 105.215 49.5815C105.208 49.5457 105.203 49.5095 105.201 49.4731C105.135 48.7847 105.569 48.1435 105.721 47.4662C106.026 46.1036 105.001 44.6107 103.494 44.2193C103.023 44.0967 102.517 44.0732 102.047 43.9333C101.972 43.9109 101.898 43.8846 101.825 43.8547C102.963 42.3366 104.913 41.3402 107.128 41.3402C110.637 41.3402 113.483 43.8547 113.483 46.9586C113.483 48.7187 112.567 50.2887 111.135 51.3197C111.145 51.3637 111.156 51.4093 111.168 51.4533C111.538 52.8818 112.683 54.378 112.683 54.378L116.241 55.5095L116.637 55.6352C119.576 57.5195 118.687 63.7634 118.687 63.7634Z" fill="black"/>
<path opacity="0.1" d="M120.618 68.2769C120.584 68.2769 120.551 68.2691 120.518 68.2628C120.552 68.2591 120.586 68.264 120.618 68.2769Z" fill="black"/>
<path d="M108.467 38.5381C107.483 38.3096 106.478 38.1921 105.468 38.1876C105.14 38.1876 104.788 38.2049 104.525 38.3856C104.178 38.6292 104.134 39.0693 104.03 39.4496C103.842 40.0847 103.447 40.6382 102.906 41.0212C102.534 41.293 102.095 41.4926 101.739 41.7787C101.382 42.0647 101.11 42.489 101.2 42.9071C101.289 43.3251 101.759 43.6473 102.231 43.7808C102.702 43.9144 103.203 43.938 103.678 44.0669C105.185 44.4582 106.208 45.9528 105.903 47.3122C105.746 47.9895 105.317 48.6307 105.383 49.3191C105.46 50.141 106.219 50.7743 106.576 51.5366C106.901 52.2312 106.879 53.0107 106.854 53.7619L106.758 56.5184C106.733 57.2445 106.796 58.1183 107.513 58.4735C107.896 58.6621 108.374 58.6416 108.77 58.8082C109.546 59.132 109.751 60.0136 109.813 60.7711C109.903 61.8445 109.908 62.9234 109.826 63.9975C109.79 64.469 109.765 64.9955 110.14 65.3255C110.326 65.47 110.54 65.5738 110.769 65.6304C111.555 65.8751 112.37 66.0146 113.192 66.0453C113.852 66.0704 114.55 66.0327 115.13 66.3125C115.581 66.5309 115.895 66.9144 116.246 67.246C117.251 68.1654 118.532 68.7263 119.889 68.8411C120.18 68.8663 120.51 68.86 120.712 68.673C120.915 68.4859 120.796 68.0821 120.506 68.1056C120.752 68.1469 121.004 68.1217 121.237 68.0328C121.47 67.9438 121.674 67.7942 121.83 67.5996C121.962 67.4116 122.033 67.1874 122.033 66.9576C122.033 66.7278 121.962 66.5036 121.83 66.3156C121.501 65.8441 120.803 65.5298 120.766 64.9703C120.745 64.656 120.954 64.3716 121.118 64.0918C121.512 63.3953 121.669 62.5897 121.566 61.7962C121.463 61.0026 121.105 60.264 120.546 59.6914C119.809 58.9292 118.704 58.3509 118.446 57.3734C118.275 56.7196 118.534 56.0328 118.435 55.368C118.278 54.2679 117.189 53.4822 116.59 52.5015C115.991 51.5208 115.886 50.3343 116.038 49.2185C116.191 48.1027 116.578 47.0183 116.892 45.9339C117.126 45.1245 117.319 44.2649 117.058 43.4618C116.871 42.8913 116.469 42.3963 116.051 41.9295C115.05 40.8121 113.898 39.7655 112.474 39.1007C111.05 38.4359 109.315 38.1782 107.803 38.6701" fill="#474157"/>
<path opacity="0.1" d="M108.467 38.5381C107.483 38.3096 106.478 38.1921 105.468 38.1876C105.14 38.1876 104.788 38.2049 104.525 38.3856C104.178 38.6292 104.134 39.0693 104.03 39.4496C103.842 40.0847 103.447 40.6382 102.906 41.0212C102.534 41.293 102.095 41.4926 101.739 41.7787C101.382 42.0647 101.11 42.489 101.2 42.9071C101.289 43.3251 101.759 43.6473 102.231 43.7808C102.702 43.9144 103.203 43.938 103.678 44.0669C105.185 44.4582 106.208 45.9528 105.903 47.3122C105.746 47.9895 105.317 48.6307 105.383 49.3191C105.46 50.141 106.219 50.7743 106.576 51.5366C106.901 52.2312 106.879 53.0107 106.854 53.7619L106.758 56.5184C106.733 57.2445 106.796 58.1183 107.513 58.4735C107.896 58.6621 108.374 58.6416 108.77 58.8082C109.546 59.132 109.751 60.0136 109.813 60.7711C109.903 61.8445 109.908 62.9234 109.826 63.9975C109.79 64.469 109.765 64.9955 110.14 65.3255C110.326 65.47 110.54 65.5738 110.769 65.6304C111.555 65.8751 112.37 66.0146 113.192 66.0453C113.852 66.0704 114.55 66.0327 115.13 66.3125C115.581 66.5309 115.895 66.9144 116.246 67.246C117.251 68.1654 118.532 68.7263 119.889 68.8411C120.18 68.8663 120.51 68.86 120.712 68.673C120.915 68.4859 120.796 68.0821 120.506 68.1056C120.752 68.1469 121.004 68.1217 121.237 68.0328C121.47 67.9438 121.674 67.7942 121.83 67.5996C121.962 67.4116 122.033 67.1874 122.033 66.9576C122.033 66.7278 121.962 66.5036 121.83 66.3156C121.501 65.8441 120.803 65.5298 120.766 64.9703C120.745 64.656 120.954 64.3716 121.118 64.0918C121.512 63.3953 121.669 62.5897 121.566 61.7962C121.463 61.0026 121.105 60.264 120.546 59.6914C119.809 58.9292 118.704 58.3509 118.446 57.3734C118.275 56.7196 118.534 56.0328 118.435 55.368C118.278 54.2679 117.189 53.4822 116.59 52.5015C115.991 51.5208 115.886 50.3343 116.038 49.2185C116.191 48.1027 116.578 47.0183 116.892 45.9339C117.126 45.1245 117.319 44.2649 117.058 43.4618C116.871 42.8913 116.469 42.3963 116.051 41.9295C115.05 40.8121 113.898 39.7655 112.474 39.1007C111.05 38.4359 109.315 38.1782 107.803 38.6701" fill="black"/>
<path opacity="0.1" d="M100.059 73.5496C100.059 73.5496 101.395 74.0603 102.809 72.6459C104.223 71.2315 100.059 73.5496 100.059 73.5496Z" fill="black"/>
<g opacity="0.1">
<path opacity="0.1" d="M109.058 38.5144C109.317 38.4629 109.58 38.4298 109.844 38.4154C109.477 38.393 109.108 38.4045 108.743 38.45L109.058 38.5144Z" fill="black"/>
<path opacity="0.1" d="M116.938 67.2459C116.586 66.9143 116.273 66.5309 115.82 66.3124C115.242 66.0327 114.542 66.0704 113.882 66.0453C113.06 66.0152 112.245 65.8756 111.459 65.6304C111.23 65.5738 111.016 65.4699 110.83 65.3255C110.456 64.9955 110.483 64.4643 110.516 63.9975C110.598 62.9234 110.593 61.8445 110.504 60.7711C110.439 60.0136 110.236 59.1319 109.458 58.8082C109.061 58.6416 108.585 58.662 108.201 58.4734C107.485 58.1183 107.415 57.2445 107.445 56.5184C107.478 55.5996 107.51 54.6812 107.541 53.7634C107.568 53.0107 107.588 52.2312 107.263 51.5365C106.906 50.7743 106.147 50.1425 106.07 49.319C106.006 48.6323 106.439 47.9895 106.592 47.3121C106.897 45.9496 105.872 44.4582 104.365 44.0668C103.893 43.9443 103.387 43.9191 102.918 43.7808C102.448 43.6425 101.992 43.3439 101.894 42.9165C101.797 42.489 102.075 42.0741 102.432 41.7865C102.789 41.4989 103.227 41.3009 103.601 41.029C104.141 40.6464 104.537 40.0927 104.723 39.4574C104.829 39.0771 104.88 38.6386 105.218 38.3935C105.412 38.2734 105.635 38.2082 105.863 38.2049C105.723 38.2049 105.583 38.197 105.445 38.197C105.116 38.197 104.764 38.2143 104.502 38.3935C104.154 38.6386 104.11 39.0771 104.007 39.4574C103.819 40.0925 103.423 40.646 102.883 41.029C102.511 41.3009 102.072 41.5005 101.715 41.7865C101.359 42.0725 101.087 42.4968 101.176 42.9165C101.266 43.3361 101.731 43.6409 102.201 43.7808C102.671 43.9207 103.174 43.938 103.648 44.0668C105.155 44.4582 106.179 45.9527 105.874 47.3121C105.717 47.9895 105.287 48.6323 105.353 49.319C105.43 50.1425 106.19 50.7743 106.546 51.5365C106.872 52.2312 106.851 53.0107 106.824 53.7634C106.792 54.6812 106.76 55.5996 106.729 56.5184C106.703 57.2445 106.766 58.1183 107.483 58.4734C107.866 58.662 108.344 58.6416 108.74 58.8082C109.517 59.1319 109.721 60.0136 109.784 60.7711C109.874 61.8445 109.878 62.9234 109.796 63.9975C109.76 64.469 109.735 64.9955 110.111 65.3255C110.297 65.4699 110.511 65.5738 110.739 65.6304C111.525 65.8758 112.34 66.0153 113.163 66.0453C113.823 66.0704 114.52 66.0327 115.1 66.3124C115.551 66.5309 115.866 66.9143 116.218 67.2459C117.222 68.1656 118.502 68.7266 119.859 68.8411C120.035 68.862 120.212 68.8551 120.386 68.8207C119.099 68.6721 117.892 68.121 116.938 67.2459Z" fill="black"/>
</g>
<path opacity="0.1" d="M92.5547 62.5061C92.5547 62.5061 91.2974 63.6596 91.4813 64.1311C91.6651 64.6026 92.5547 62.5061 92.5547 62.5061Z" fill="black"/>
<path d="M93.7208 77.3339C92.814 77.1123 90.3136 76.908 89.1239 80.8982C88.8469 81.825 88.4942 82.7275 88.0694 83.5966C86.9284 85.9398 85.4543 90.7582 91.937 91.8191L107.496 95.3551C107.496 95.3551 115.825 96.3766 116.375 95.9837C116.925 95.5908 116.846 94.7265 116.846 94.7265C116.846 94.7265 107.653 94.7265 105.845 91.8976C104.038 89.0688 103.96 85.2184 103.96 85.2184C103.96 85.2184 104.186 79.2732 94.6873 77.546C94.373 77.4863 94.0429 77.4124 93.7208 77.3339Z" fill="#474157"/>
<path opacity="0.1" d="M93.7208 77.3606C92.814 77.139 90.3136 76.9347 89.1239 80.9265C88.8469 81.8533 88.4942 82.7558 88.0694 83.6249C86.9284 85.9665 85.4543 90.7849 91.937 91.8458L107.496 95.3818C107.496 95.3818 115.825 96.4033 116.375 96.0104C116.925 95.6175 116.846 94.7532 116.846 94.7532C116.846 94.7532 107.653 94.7532 105.845 91.9243C104.038 89.0955 103.96 85.2452 103.96 85.2452C103.96 85.2452 104.186 79.2999 94.6873 77.5727C94.373 77.513 94.0429 77.436 93.7208 77.3606Z" fill="black"/>
<path d="M126.336 73.2683C126.245 72.6931 125.95 72.1702 125.503 71.7968C125.056 71.4233 124.489 71.2247 123.907 71.2378C121.67 71.2787 114.781 71.5773 111.582 73.6674C111.582 73.6674 109.146 75.239 108.439 75.239C107.731 75.239 98.1447 83.4112 112.367 90.719C112.367 90.719 119.99 92.8878 122.976 87.7959C122.976 87.7959 125.097 82.3268 124.94 80.4331C124.783 78.5393 126.354 73.4317 126.354 73.4317C126.354 73.4317 126.351 73.3704 126.336 73.2683Z" fill="#474157"/>
<path opacity="0.1" d="M126.336 74.6449C126.156 73.5448 125.11 72.7496 123.907 72.77C121.67 72.8078 114.781 73.0844 111.582 75.0127C111.582 75.0127 109.146 76.4632 108.439 76.4632C107.731 76.4632 98.1447 84.0068 112.367 90.7535C112.367 90.7535 119.99 92.7557 122.976 88.0551C122.976 88.0551 125.097 83.0057 124.94 81.2581C124.783 79.5105 126.354 74.7958 126.354 74.7958C126.354 74.7958 126.351 74.7392 126.336 74.6449Z" fill="black"/>
<path d="M118.732 90.7174H116.218V96.0718H118.732V90.7174Z" fill="#5F5D7E"/>
<path opacity="0.1" d="M26.7545 68.9449C30.6637 68.9449 33.8328 68.7415 33.8328 68.4907C33.8328 68.2398 30.6637 68.0365 26.7545 68.0365C22.8452 68.0365 19.6761 68.2398 19.6761 68.4907C19.6761 68.7415 22.8452 68.9449 26.7545 68.9449Z" fill="black"/>
<path d="M32.6949 50.9739C32.5442 51.1805 32.4235 51.4075 32.3366 51.6481C32.3146 51.7078 32.2926 51.7738 32.2706 51.8383C32.231 51.8195 32.1893 51.8053 32.1465 51.7958C31.9632 51.75 31.7738 51.7335 31.5854 51.7471C31.5854 51.6748 31.5948 51.59 31.5964 51.5177C31.62 50.6895 31.5225 49.5344 30.732 50.0231C29.9745 50.4946 30.5152 51.2804 31.0039 51.7848L31.1297 51.9074C30.6833 52.2217 30.5985 52.9651 30.5246 53.7367C30.4507 54.5084 29.7954 55.3539 29.3601 55.8332C29.3161 55.8819 29.2768 55.9259 29.2375 55.9668C29.0617 55.826 28.858 55.7242 28.6399 55.6681C28.4218 55.612 28.1942 55.603 27.9724 55.6415C27.9551 55.5739 27.9346 55.5032 27.9142 55.4277C27.5622 54.1579 26.8314 51.9561 25.8995 51.4737L26.022 51.3165C26.4181 50.7979 26.8644 50.0294 26.2059 49.8314C25.5474 49.6334 25.4877 50.4993 25.5239 51.1468C25.5239 51.2285 25.5364 51.3039 25.5427 51.3762C25.4112 51.3826 25.2823 51.4157 25.1639 51.4735C25.0456 51.5314 24.9402 51.6127 24.8544 51.7126L24.7522 51.5931C24.2179 50.9645 23.2388 49.9634 22.9418 50.7193C22.6652 51.4234 23.528 52.3365 24.1346 52.8661L24.1723 52.8991C23.7653 54.554 25.538 55.9055 26.4998 56.4901L26.624 56.5656C25.3038 58.1214 24.4882 61.0367 24.4882 61.0367L28.1845 61.6967C28.1845 61.6967 30.6362 59.583 30.3219 57.5965H30.347C32.7971 57.1062 33.3534 54.4942 32.9715 52.9431L33.0155 52.9258C33.4616 52.7427 33.8526 52.4471 34.1502 52.0677C34.8354 51.1138 33.3959 50.0388 32.6949 50.9739Z" fill="#FF630C"/>
<path opacity="0.1" d="M32.6949 50.9739C32.5442 51.1805 32.4235 51.4075 32.3366 51.6481C32.3146 51.7078 32.2926 51.7738 32.2706 51.8383C32.231 51.8195 32.1893 51.8053 32.1465 51.7958C31.9632 51.75 31.7738 51.7335 31.5854 51.7471C31.5854 51.6748 31.5948 51.59 31.5964 51.5177C31.62 50.6895 31.5225 49.5344 30.732 50.0231C29.9745 50.4946 30.5152 51.2804 31.0039 51.7848L31.1297 51.9074C30.6833 52.2217 30.5985 52.9651 30.5246 53.7367C30.4507 54.5084 29.7954 55.3539 29.3601 55.8332C29.3161 55.8819 29.2768 55.9259 29.2375 55.9668C29.0617 55.826 28.858 55.7242 28.6399 55.6681C28.4218 55.612 28.1942 55.603 27.9724 55.6415C27.9551 55.5739 27.9346 55.5032 27.9142 55.4277C27.5622 54.1579 26.8314 51.9561 25.8995 51.4737L26.022 51.3165C26.4181 50.7979 26.8644 50.0294 26.2059 49.8314C25.5474 49.6334 25.4877 50.4993 25.5239 51.1468C25.5239 51.2285 25.5364 51.3039 25.5427 51.3762C25.4112 51.3826 25.2823 51.4157 25.1639 51.4735C25.0456 51.5314 24.9402 51.6127 24.8544 51.7126L24.7522 51.5931C24.2179 50.9645 23.2388 49.9634 22.9418 50.7193C22.6652 51.4234 23.528 52.3365 24.1346 52.8661L24.1723 52.8991C23.7653 54.554 25.538 55.9055 26.4998 56.4901L26.624 56.5656C25.3038 58.1214 24.4882 61.0367 24.4882 61.0367L28.1845 61.6967C28.1845 61.6967 30.6362 59.583 30.3219 57.5965H30.347C32.7971 57.1062 33.3534 54.4942 32.9715 52.9431L33.0155 52.9258C33.4616 52.7427 33.8526 52.4471 34.1502 52.0677C34.8354 51.1138 33.3959 50.0388 32.6949 50.9739Z" fill="black"/>
<path d="M25.3369 52.0395L24.9094 53.3046C24.9094 53.3046 24.669 53.1349 24.3657 52.8677C23.759 52.3381 22.8962 51.425 23.1728 50.7209C23.4699 49.965 24.449 50.963 24.9833 51.5947C25.1939 51.8446 25.3369 52.0395 25.3369 52.0395Z" fill="#FF630C"/>
<path d="M26.2484 51.3181C26.1169 51.4905 25.9763 51.6557 25.8272 51.8132C25.7904 51.593 25.7647 51.3712 25.7502 51.1484C25.714 50.5009 25.7832 49.6413 26.4322 49.833C27.0813 50.0247 26.6381 50.7995 26.2484 51.3181Z" fill="#FF630C"/>
<path d="M31.8243 51.5177C31.8118 51.9342 31.7709 52.2658 31.7709 52.2658C31.5806 52.1178 31.4005 51.9571 31.2319 51.7849C30.7431 51.2773 30.2025 50.4946 30.96 50.0231C31.7489 49.5344 31.8463 50.6895 31.8243 51.5177Z" fill="#FF630C"/>
<path d="M34.3766 52.063C34.0778 52.4422 33.6858 52.7374 33.2388 52.9196C33.115 52.9732 32.988 53.0188 32.8584 53.0563L32.3492 52.3412C32.4032 52.105 32.4735 51.8729 32.5598 51.6466C32.6467 51.406 32.7674 51.179 32.9182 50.9724C33.6254 50.0389 35.0618 51.1138 34.3766 52.063Z" fill="#FF630C"/>
<path opacity="0.1" d="M24.9785 51.5947C25.1938 51.8445 25.3368 52.0394 25.3368 52.0394L24.9094 53.3045C24.9094 53.3045 24.6689 53.1348 24.3656 52.8676C24.4333 52.4626 24.6008 52.0808 24.8528 51.7565C24.8905 51.6984 24.9361 51.6434 24.9785 51.5947Z" fill="black"/>
<path opacity="0.1" d="M26.2482 51.3181C26.1167 51.4905 25.9761 51.6557 25.8271 51.8131C25.7902 51.593 25.7645 51.3711 25.7501 51.1484C25.9298 51.1514 26.1041 51.2107 26.2482 51.3181Z" fill="black"/>
<path d="M28.3669 56.3409L27.292 56.8123C27.292 56.8123 27.0578 56.6992 26.7199 56.4886C25.59 55.7924 23.319 54.0432 24.8419 51.9813C26.3647 49.9194 27.6346 53.6189 28.1343 55.4262C28.2931 55.9684 28.3669 56.3409 28.3669 56.3409Z" fill="#FF630C"/>
<path opacity="0.1" d="M31.2303 51.7849C31.3862 51.6231 31.5983 51.5274 31.8228 51.5177C31.8102 51.9342 31.7693 52.2658 31.7693 52.2658C31.579 52.1178 31.3989 51.9571 31.2303 51.7849Z" fill="black"/>
<path opacity="0.1" d="M33.2388 52.9195C33.115 52.9731 32.988 53.0188 32.8584 53.0562L32.3492 52.3412C32.4032 52.105 32.4735 51.8729 32.5598 51.6465C32.8914 51.8414 33.1335 52.3176 33.2388 52.9195Z" fill="black"/>
<path d="M30.5672 57.5919L30.3864 57.6233C26.7828 58.1718 29.1983 56.2277 29.1983 56.2277C29.1983 56.2277 29.3555 56.0784 29.5802 55.8333C30.0155 55.3539 30.6693 54.5131 30.7448 53.7368C30.8579 52.5691 30.9883 51.4737 32.3666 51.7959C33.726 52.1118 33.9853 56.9082 30.5672 57.5919Z" fill="#FF630C"/>
<path d="M30.5058 66.5624H23.6208V68.3728H30.5058V66.5624Z" fill="#474157"/>
<path d="M31.5226 60.6783H22.527V66.9961H31.5226V60.6783Z" fill="#474157"/>
<path opacity="0.1" d="M30.4397 66.5624H23.5547V68.3728H30.4397V66.5624Z" fill="black"/>
<path opacity="0.1" d="M31.4943 60.68H22.4986V66.9977H31.4943V60.68Z" fill="black"/>
<path d="M30.9584 66.5624H24.0733V68.3728H30.9584V66.5624Z" fill="#474157"/>
<path opacity="0.1" d="M28.1405 55.434C28.2977 55.9746 28.3731 56.3471 28.3731 56.3471L27.2982 56.8186C27.2982 56.8186 27.064 56.7054 26.7261 56.4948C27.1473 55.9558 27.6219 55.5519 28.1405 55.434Z" fill="black"/>
<path opacity="0.1" d="M30.5672 57.5918L30.3864 57.6233C26.7828 58.1717 29.1983 56.2277 29.1983 56.2277C29.1983 56.2277 29.3555 56.0784 29.5802 55.8333C30.2529 56.377 30.5373 56.9789 30.5672 57.5918Z" fill="black"/>
<path d="M24.7144 61.0367C24.7144 61.0367 26.7323 53.8075 29.5627 56.0391C32.3931 58.2707 28.4108 61.6967 28.4108 61.6967L24.7144 61.0367Z" fill="#FF630C"/>
<path opacity="0.1" d="M25.7328 53.3407C25.8578 53.3407 25.9591 53.2394 25.9591 53.1144C25.9591 52.9894 25.8578 52.8881 25.7328 52.8881C25.6078 52.8881 25.5065 52.9894 25.5065 53.1144C25.5065 53.2394 25.6078 53.3407 25.7328 53.3407Z" fill="black"/>
<path opacity="0.1" d="M25.7141 54.3984C25.8391 54.3984 25.9404 54.2971 25.9404 54.1721C25.9404 54.0471 25.8391 53.9458 25.7141 53.9458C25.5891 53.9458 25.4878 54.0471 25.4878 54.1721C25.4878 54.2971 25.5891 54.3984 25.7141 54.3984Z" fill="black"/>
<path opacity="0.1" d="M32.2785 53.5481C32.4035 53.5481 32.5048 53.4468 32.5048 53.3218C32.5048 53.1968 32.4035 53.0955 32.2785 53.0955C32.1535 53.0955 32.0522 53.1968 32.0522 53.3218C32.0522 53.4468 32.1535 53.5481 32.2785 53.5481Z" fill="black"/>
<path opacity="0.1" d="M26.9965 58.9623C27.1215 58.9623 27.2228 58.8609 27.2228 58.736C27.2228 58.611 27.1215 58.5096 26.9965 58.5096C26.8715 58.5096 26.7702 58.611 26.7702 58.736C26.7702 58.8609 26.8715 58.9623 26.9965 58.9623Z" fill="black"/>
<path opacity="0.1" d="M31.8071 55.3036C31.9321 55.3036 32.0334 55.2022 32.0334 55.0773C32.0334 54.9523 31.9321 54.851 31.8071 54.851C31.6821 54.851 31.5808 54.9523 31.5808 55.0773C31.5808 55.2022 31.6821 55.3036 31.8071 55.3036Z" fill="black"/>
<path opacity="0.1" d="M29.4687 57.6421C29.5936 57.6421 29.695 57.5407 29.695 57.4158C29.695 57.2908 29.5936 57.1895 29.4687 57.1895C29.3437 57.1895 29.2424 57.2908 29.2424 57.4158C29.2424 57.5407 29.3437 57.6421 29.4687 57.6421Z" fill="black"/>
<path opacity="0.1" d="M26.5062 53.7933C26.6311 53.7933 26.7325 53.692 26.7325 53.567C26.7325 53.442 26.6311 53.3407 26.5062 53.3407C26.3812 53.3407 26.2798 53.442 26.2798 53.567C26.2798 53.692 26.3812 53.7933 26.5062 53.7933Z" fill="black"/>
<path opacity="0.1" d="M31.6561 54.2287C31.7811 54.2287 31.8824 54.1274 31.8824 54.0024C31.8824 53.8774 31.7811 53.7761 31.6561 53.7761C31.5311 53.7761 31.4298 53.8774 31.4298 54.0024C31.4298 54.1274 31.5311 54.2287 31.6561 54.2287Z" fill="black"/>
<path opacity="0.1" d="M30.883 55.9825C31.0079 55.9825 31.1093 55.8812 31.1093 55.7562C31.1093 55.6312 31.0079 55.5299 30.883 55.5299C30.758 55.5299 30.6566 55.6312 30.6566 55.7562C30.6566 55.8812 30.758 55.9825 30.883 55.9825Z" fill="black"/>
<path opacity="0.1" d="M28.5052 58.7925C28.6302 58.7925 28.7315 58.6912 28.7315 58.5662C28.7315 58.4412 28.6302 58.3399 28.5052 58.3399C28.3802 58.3399 28.2789 58.4412 28.2789 58.5662C28.2789 58.6912 28.3802 58.7925 28.5052 58.7925Z" fill="black"/>
<path opacity="0.1" d="M28.0149 57.6798C28.1399 57.6798 28.2412 57.5785 28.2412 57.4535C28.2412 57.3286 28.1399 57.2272 28.0149 57.2272C27.8899 57.2272 27.7886 57.3286 27.7886 57.4535C27.7886 57.5785 27.8899 57.6798 28.0149 57.6798Z" fill="black"/>
<path opacity="0.1" d="M26.8455 55.1716C26.9705 55.1716 27.0718 55.0703 27.0718 54.9453C27.0718 54.8203 26.9705 54.719 26.8455 54.719C26.7205 54.719 26.6192 54.8203 26.6192 54.9453C26.6192 55.0703 26.7205 55.1716 26.8455 55.1716Z" fill="black"/>
<path opacity="0.1" d="M30.9584 66.5624H24.0733V67.224H30.9584V66.5624Z" fill="black"/>
<path d="M31.9752 60.6783H22.9795V66.9961H31.9752V60.6783Z" fill="#474157"/>
<path opacity="0.1" d="M28.807 59.8109C28.932 59.8109 29.0333 59.7096 29.0333 59.5846C29.0333 59.4596 28.932 59.3583 28.807 59.3583C28.682 59.3583 28.5807 59.4596 28.5807 59.5846C28.5807 59.7096 28.682 59.8109 28.807 59.8109Z" fill="black"/>
<path opacity="0.1" d="M27.449 60.0937C27.574 60.0937 27.6753 59.9924 27.6753 59.8674C27.6753 59.7424 27.574 59.6411 27.449 59.6411C27.324 59.6411 27.2227 59.7424 27.2227 59.8674C27.2227 59.9924 27.324 60.0937 27.449 60.0937Z" fill="black"/>
<path d="M49.0158 84.8224C49.0158 84.8224 50.1363 86.2887 48.4988 88.5014C46.8612 90.7142 45.5128 92.5875 46.0534 93.9642C46.0534 93.9642 48.527 89.853 50.5402 89.7964C52.5534 89.7398 51.2301 87.296 49.0158 84.8224Z" fill="#FF630C"/>
<path opacity="0.1" d="M49.0157 84.8224C49.1136 84.9637 49.1909 85.1182 49.2451 85.2813C51.208 87.5884 52.2547 89.7414 50.3672 89.7964C48.6087 89.8514 46.4996 92.9946 45.9936 93.7803C46.0108 93.8416 46.0313 93.9029 46.0533 93.9611C46.0533 93.9611 48.5269 89.8498 50.5401 89.7933C52.5533 89.7367 51.23 87.296 49.0157 84.8224Z" fill="black"/>
<path d="M51.0995 86.6926C51.0995 87.2081 51.0414 87.6261 50.9707 87.6261C50.8999 87.6261 50.8418 87.2081 50.8418 86.6926C50.8418 86.1771 50.9141 86.4191 50.9848 86.4191C51.0555 86.4191 51.0995 86.1756 51.0995 86.6926Z" fill="#FFD037"/>
<path d="M51.8146 87.3087C51.362 87.5554 50.9675 87.7047 50.9329 87.6419C50.8984 87.579 51.2378 87.3275 51.692 87.0808C52.1462 86.8341 51.9655 87.0132 52.0063 87.0808C52.0472 87.1484 52.2688 87.0619 51.8146 87.3087Z" fill="#FFD037"/>
<path d="M43.0925 84.8224C43.0925 84.8224 41.972 86.2887 43.6096 88.5014C45.2472 90.7142 46.5956 92.5875 46.0534 93.9642C46.0534 93.9642 43.5813 89.853 41.5681 89.7964C39.5549 89.7398 40.8782 87.296 43.0925 84.8224Z" fill="#FF630C"/>
<path opacity="0.1" d="M43.0925 84.8224C42.9946 84.9637 42.9173 85.1182 42.8631 85.2813C40.9002 87.5884 39.8535 89.7414 41.741 89.7964C43.4996 89.8514 45.6086 92.9946 46.1147 93.7803C46.0975 93.8417 46.0771 93.902 46.0534 93.9611C46.0534 93.9611 43.5813 89.8514 41.5681 89.798C39.5549 89.7445 40.8782 87.296 43.0925 84.8224Z" fill="black"/>
<path d="M41.0087 86.6926C41.0087 87.2081 41.0669 87.6261 41.1376 87.6261C41.2083 87.6261 41.2664 87.2081 41.2664 86.6926C41.2664 86.1771 41.1942 86.4191 41.1234 86.4191C41.0527 86.4191 41.0087 86.1756 41.0087 86.6926Z" fill="#FFD037"/>
<path d="M40.2936 87.3087C40.7462 87.5554 41.1406 87.7047 41.1752 87.6419C41.2098 87.579 40.8703 87.3275 40.4161 87.0808C39.962 86.8341 40.1427 87.0132 40.1018 87.0808C40.061 87.1484 39.8394 87.0619 40.2936 87.3087Z" fill="#FFD037"/>
<path opacity="0.1" d="M46.0533 105.184C52.5283 105.184 57.7773 104.378 57.7773 103.384C57.7773 102.39 52.5283 101.585 46.0533 101.585C39.5784 101.585 34.3294 102.39 34.3294 103.384C34.3294 104.378 39.5784 105.184 46.0533 105.184Z" fill="#FF630C"/>
<path d="M52.0881 91.9904L52.0315 92.4477L51.9529 93.0952L51.9215 93.3639L51.8413 94.0114L51.8083 94.2817L51.7298 94.9276L50.8402 102.283C50.7601 102.94 49.6867 103.45 48.3933 103.45H43.7226C42.4276 103.45 41.3652 102.94 41.2772 102.283L40.3783 94.9276L40.2997 94.2817L40.2667 94.0114L40.1866 93.3639L40.1551 93.0952L40.0765 92.4477L40.02 91.9904C39.9744 91.6195 40.5543 91.3052 41.2882 91.3052H50.8214C51.5522 91.3052 52.1336 91.6195 52.0881 91.9904Z" fill="#65617D"/>
<path d="M52.0316 92.4477L51.953 93.0936H40.1552L40.0767 92.4477H52.0316Z" fill="#9D9CB5"/>
<path d="M51.9215 93.364L51.843 94.0114H40.2668L40.1866 93.364H51.9215Z" fill="#9D9CB5"/>
<path d="M51.8084 94.2802L51.7298 94.9277H40.3784L40.2998 94.2802H51.8084Z" fill="#9D9CB5"/>
<path opacity="0.1" d="M97.0038 115.479C104.315 115.479 110.243 114.888 110.243 114.159C110.243 113.43 104.315 112.839 97.0038 112.839C89.6921 112.839 83.7648 113.43 83.7648 114.159C83.7648 114.888 89.6921 115.479 97.0038 115.479Z" fill="#FF630C"/>
</svg>
