<svg width="12" height="12" viewBox="0 0 12 12" fill="none" xmlns="http://www.w3.org/2000/svg">
<path d="M6 0C2.68625 0 0 2.68625 0 6C0 9.31375 2.68625 12 6 12C9.31375 12 12 9.31375 12 6C12 2.68625 9.31375 0 6 0ZM4.53125 8.48688H3.31625V4.57687H4.53125V8.48688ZM3.91625 4.09687C3.5325 4.09687 3.28438 3.825 3.28438 3.48875C3.28438 3.14562 3.54 2.88188 3.93187 2.88188C4.32375 2.88188 4.56375 3.14562 4.57125 3.48875C4.57125 3.825 4.32375 4.09687 3.91625 4.09687ZM8.96875 8.48688H7.75375V6.32C7.75375 5.81563 7.5775 5.47312 7.13813 5.47312C6.8025 5.47312 6.60313 5.705 6.515 5.92813C6.4825 6.0075 6.47438 6.12 6.47438 6.23188V8.48625H5.25875V5.82375C5.25875 5.33563 5.24312 4.9275 5.22687 4.57625H6.2825L6.33813 5.11938H6.3625C6.5225 4.86438 6.91438 4.48812 7.57 4.48812C8.36938 4.48812 8.96875 5.02375 8.96875 6.175V8.48688Z" fill="#FF5722"/>
</svg>
